<svg width="103" height="106" viewBox="0 0 103 106" fill="none" xmlns="http://www.w3.org/2000/svg">
<path d="M18.8475 32.2762C18.8475 32.0057 18.6609 31.8262 18.445 31.7753C18.445 31.7753 18.4264 31.7727 18.4157 31.7727C18.3731 31.7646 18.3277 31.7593 18.2824 31.7619C17.0483 31.6762 15.2758 31.7727 15.2758 31.7727C15.2785 31.7727 8.80676 40.8497 8.80676 53.6979C8.80676 66.5461 15.5344 75.6151 15.5344 75.6151C16.5845 75.7196 18.0559 75.6473 18.477 75.6232C18.8395 75.6312 19.2047 75.3607 19.202 74.9161L18.8475 32.2762Z" fill="#733C0E"/>
<path d="M13.1728 51.0089L16.0915 69.1443L15.7849 32.2763C15.7796 31.754 15.0946 31.5585 14.8254 32.0058C6.79439 45.245 6.79972 62.0599 14.8494 75.2912C15.0546 75.6286 15.4331 75.6929 15.7263 75.5617L13.1728 51.0116V51.0089Z" fill="#C26618"/>
<g style="mix-blend-mode:screen" opacity="0.5">
<path d="M16.0702 66.4498C16.0542 66.3882 16.0355 66.3239 16.0115 66.2623C15.7423 65.5338 15.4971 64.7999 15.2732 64.058L15.9076 67.9979C15.9795 67.8533 16.0382 67.7033 16.0782 67.5479L16.0702 66.4525V66.4498Z" fill="#DB7C2C"/>
</g>
<g style="mix-blend-mode:screen" opacity="0.5">
<path d="M15.7848 32.2762C15.7848 32.2093 15.7715 32.1477 15.7502 32.0914C11.7813 38.3374 9.47839 45.7512 9.47839 53.698C9.47839 58.5378 10.3233 63.2732 11.9946 67.7675C12.3171 68.6326 13.1327 69.1683 14.0017 69.1683C14.2495 69.1683 14.5028 69.1255 14.7506 69.0317C14.8493 68.9942 14.9426 68.9487 15.0332 68.8978L13.1727 51.0062L13.7831 54.8015C13.7724 54.4318 13.7644 54.0649 13.7644 53.6926C13.7644 49.4367 14.5054 45.3548 15.8621 41.5622L15.7848 32.2709V32.2762Z" fill="#DB7C2C"/>
</g>
<path d="M32.6733 83.3932H32.6787L29.728 80.4684L29.5841 80.6532C25.7352 76.8231 22.7898 72.077 21.1106 66.7631C21.0653 66.6211 17.9894 63.5812 17.9894 63.5812L18.2266 68.9808L20.375 70.47L19.8792 79.9997C19.8365 80.8086 20.0871 81.604 20.5829 82.2415C21.6144 83.57 22.7392 84.8502 23.9546 86.0716C26.119 88.2464 28.4646 90.124 30.9435 91.7149C31.3353 91.9667 31.855 91.7283 31.9137 91.265L32.8519 83.9128C32.8759 83.72 32.8066 83.5298 32.6707 83.3932H32.6733Z" fill="#733C0E"/>
<path d="M17.5015 63.7607L16.8164 76.9223C16.7738 77.7311 17.0243 78.5266 17.5201 79.1641C18.5516 80.4926 19.6765 81.7728 20.8919 82.9942C23.0563 85.169 25.4018 87.0492 27.8807 88.6375C28.2725 88.8893 28.7923 88.6509 28.8509 88.1876L29.7892 80.8354C29.8185 80.6131 29.7252 80.3935 29.5493 80.2569C24.2051 76.0759 20.1403 70.3201 18.0452 63.6857C17.9519 63.3884 17.5148 63.4473 17.4988 63.758L17.5015 63.7607Z" fill="#DB7C2C"/>
<path d="M48.0074 87.3679L47.6263 88.0804C42.9378 87.4884 38.5478 85.9376 34.6562 83.6235C34.2191 83.3637 33.6593 83.6369 33.59 84.1431C33.59 84.1431 30.9939 91.3185 31.2631 91.4658C36.2235 94.1656 43.175 95.5343 48.5006 95.9414C48.879 95.9709 49.2122 95.6896 49.2602 95.312L50.0305 89.0714C50.0359 89.0365 50.0305 89.0044 50.0305 88.9696C50.0305 88.9696 50.0305 88.9696 50.0305 88.9669C50.1505 87.9197 49.0896 87.467 48.0074 87.3706V87.3679Z" fill="#733C0E"/>
<path d="M31.5136 90.7159C36.3861 93.18 41.645 94.6129 46.9679 95.0174C47.3464 95.0468 47.6796 94.7656 47.7276 94.3879L48.4979 88.1473C48.5485 87.7402 48.25 87.3679 47.8422 87.3357C42.4953 86.9393 37.4949 85.3002 33.1262 82.6995C32.6891 82.4396 32.1294 82.7128 32.0601 83.2191L31.1298 89.9713C31.0872 90.2766 31.2418 90.5766 31.5136 90.7132V90.7159Z" fill="#C26618"/>
<path d="M74.6515 20.8075C73.9452 19.9959 73.4414 19.254 72.7031 18.8335C70.3495 17.4943 67.6574 17.0417 65.1359 16.2007C64.8294 16.0989 64.5015 16.2971 64.4482 16.6185L63.7019 20.8852L61.4496 20.9066C61.5669 21.4369 62.649 22.8591 63.7365 23.2555C67.3296 24.5653 70.6534 26.4375 73.572 28.8025C73.9052 29.073 74.4037 28.8507 74.433 28.4221L74.8941 21.5333C74.9074 21.3405 74.7795 20.9521 74.6515 20.8075Z" fill="#733C0E"/>
<path d="M72.7029 18.8335C69.7016 16.8649 66.5004 15.3302 63.1846 14.2267C62.8781 14.1249 62.5502 14.3231 62.4969 14.6445L61.4414 20.6896C61.3961 20.9467 61.5427 21.1958 61.7879 21.2815C65.3863 22.5752 68.7048 24.4635 71.6234 26.8285C71.9566 27.099 72.455 26.8767 72.4844 26.4481L72.9455 19.3183C72.9588 19.1254 72.8655 18.9379 72.7056 18.8335H72.7029Z" fill="#DB7C2C"/>
<path d="M89.9723 70.1861L88.5596 32.3512C88.5543 32.2066 88.5116 32.0646 88.437 31.9388C87.075 29.705 85.4837 27.573 83.6632 25.5776L83.1141 24.9857C82.8822 24.7393 82.6477 24.4955 82.4078 24.2545L81.4269 23.2688C78.9214 20.7297 77.1968 21.4931 76.5518 23.6867L77.7139 32.3191C77.6499 32.611 77.6446 32.9083 77.6873 33.1976C78.9507 34.9252 80.0568 36.7759 80.9844 38.7285C86.8191 49.7393 85.7289 63.5035 77.7166 73.4832C75.6748 76.2794 73.22 78.7516 70.4426 80.8086C69.6216 81.4166 69.1472 82.3888 69.2005 83.4147L69.5043 89.1437C69.9255 92.9604 72.9374 90.2285 73.7797 89.6312C76.6904 87.5715 79.7743 85.635 82.4078 82.9888C82.6423 82.7531 82.8716 82.512 83.0981 82.271L84.5694 80.6372C86.214 78.7114 87.6534 76.6705 88.8875 74.5385C89.6524 73.218 90.0256 71.7048 89.9696 70.1781L89.9723 70.1861Z" fill="#733C0E"/>
<path d="M81.9814 67.7006L80.8539 74.8144L80.0756 82.2121L83.2554 82.1478L84.5722 80.6425L81.5869 80.5354L81.9814 67.7006Z" fill="#51290B"/>
<path d="M83.114 24.9856H80.0514V29.7826L80.6005 25.5802H83.6631L83.114 24.9856Z" fill="#51290B"/>
<path d="M86.9097 70.1861L85.4971 32.3513C85.4917 32.2066 85.4491 32.0647 85.3745 31.9388C84.0124 29.705 82.4211 27.573 80.6006 25.5776L80.0516 29.78V24.9857C79.8197 24.7393 79.5851 24.4956 79.3452 24.2545L78.3643 23.2689C77.7513 22.6528 76.7011 22.9608 76.5145 23.8126L75.3017 29.3541C75.1978 29.8282 75.3337 30.321 75.6562 30.6826C81.0111 36.7063 84.2656 44.6531 84.2656 53.3632C84.2656 64.9044 78.5509 75.101 69.8162 81.2613C69.3684 81.5773 69.1206 82.1076 69.1472 82.6567L69.4697 88.9455C69.5017 89.5696 70.1787 89.9419 70.7172 89.6312C73.8037 87.8501 76.7118 85.6351 79.3452 82.9888C79.5744 82.7585 79.801 82.5228 80.0222 82.2871C80.0649 82.2416 80.0889 82.188 80.0942 82.1264C80.3821 78.7489 81.9787 67.6952 81.9787 67.6952L81.1444 80.2756C81.1257 80.5488 81.4642 80.6881 81.6402 80.4818C83.2394 78.5882 84.6441 76.5875 85.8489 74.4983C86.6032 73.1913 86.9631 71.6914 86.9044 70.1835L86.9097 70.1861Z" fill="#C26618"/>
<path d="M87.0989 32.3647C87.9172 32.3727 88.5836 33.0236 88.6156 33.8458L89.9216 68.8711C89.951 69.6291 89.4285 70.2987 88.6875 70.446C87.76 70.6335 86.8857 69.9398 86.851 68.9889L85.5583 33.9583C85.5263 33.0825 86.2273 32.3567 87.1016 32.3647H87.0989Z" fill="#51290B"/>
<g style="mix-blend-mode:screen" opacity="0.5">
<path d="M69.4538 88.6455C73.6306 86.235 77.3355 83.0879 80.3955 79.3863C80.7793 76.2259 81.3923 71.8333 81.7335 69.4335C78.9028 75.2563 74.5501 80.2006 69.2032 83.7441L69.4538 88.6455Z" fill="#DB7C2C"/>
</g>
<g style="mix-blend-mode:screen" opacity="0.5">
<path d="M85.6701 36.9661C85.0864 36.5643 84.3188 36.4598 83.6178 36.7598C82.5303 37.2259 82.0238 38.4927 82.4876 39.5855C84.3854 44.0504 85.3476 48.7992 85.3476 53.6979C85.3476 59.2127 84.1055 64.4383 81.8879 69.1147L81.2802 78.2775C83.5671 75.3045 85.4516 72.0047 86.8456 68.4585L85.6701 36.9661Z" fill="#DB7C2C"/>
</g>
<path d="M69.2673 84.462C69.2673 84.462 69.27 84.4513 69.2673 84.4486C69.262 84.4325 69.2513 84.4138 69.2406 84.3924C69.23 84.3736 69.2193 84.3575 69.2087 84.3388C68.9554 83.9397 68.0865 83.0826 67.1856 83.1014L66.959 84.8102C62.4198 87.0761 57.3074 88.3564 51.8939 88.3564H51.8886C51.5554 88.3564 51.2702 88.5894 51.2116 88.9162L50.3453 93.8738L48.6554 94.7791C49.0952 95.4621 50.1907 96.0407 50.7584 96.0487C56.849 96.1799 62.9608 94.972 68.6169 92.4195C68.8542 92.3123 69.0087 92.0793 69.0194 91.8195L69.3153 84.7298C69.3206 84.6307 69.2993 84.5424 69.2673 84.4593V84.462Z" fill="#733C0E"/>
<path d="M66.7724 83.1843C61.9106 85.8922 56.3158 87.4349 50.3639 87.4349H50.3586C50.0254 87.4349 49.7402 87.668 49.6815 87.9947L48.5754 94.3211C48.5034 94.7335 48.8126 95.1165 49.2284 95.1273C50.2893 95.1514 51.3528 95.1273 52.4136 95.071L52.8827 89.7491L53.048 95.0308C57.8538 94.6907 62.6116 93.5176 67.0842 91.5007C67.3215 91.3936 67.4761 91.1606 67.4867 90.9008L67.7826 83.8111C67.8039 83.2754 67.2362 82.9245 66.7697 83.1843H66.7724Z" fill="#DB7C2C"/>
<path d="M53.0506 95.0308L52.8854 89.749L52.4163 95.071L53.0746 96.0352C53.4158 96.0245 53.757 96.0057 54.0982 95.987L53.0506 95.0308Z" fill="#51290B"/>
<g style="mix-blend-mode:screen" opacity="0.5">
<path d="M67.7507 84.6575C62.4171 87.834 56.1959 89.6634 49.5563 89.6634C49.5003 89.6634 49.4444 89.6687 49.3884 89.6714L48.6714 93.7774C48.9406 93.9006 49.2391 93.9702 49.5563 93.9702C50.5532 93.9702 51.5421 93.9327 52.5203 93.8604L52.8828 89.7491L53.0107 93.8176C58.195 93.3703 63.1021 91.9266 67.5401 89.6794L67.7507 84.6575Z" fill="#DB7C2C"/>
</g>
<path d="M39.1049 14.6418V14.6364C39.1049 14.6364 39.0863 14.631 39.0756 14.6284C39.0676 14.6284 39.0623 14.6257 39.0569 14.623C37.8175 14.2936 35.8957 14.631 35.8957 14.631C36.0423 14.5775 36.1942 14.6953 36.1809 14.8533L36.1036 15.681L36.1249 15.7935C36.1249 15.7935 36.101 15.8042 36.0903 15.8095L35.5172 22.0475C35.4772 22.4948 35.208 22.8831 34.8109 23.0894C29.1521 26.0302 24.2584 20.794 21.0199 26.282C20.5561 27.0668 20.2922 37.6009 19.8924 38.4231C19.7671 38.6776 19.5245 38.7686 19.3033 38.7311L19.298 38.7392C20.5854 38.9052 22.1687 38.8169 22.5392 38.7392C22.5445 38.7392 22.5472 38.7311 22.5525 38.7285C22.7124 38.7017 22.8643 38.6026 22.955 38.4205C26.1562 31.8397 31.4071 26.4481 37.8735 23.0867C38.2706 22.8805 38.5372 22.4921 38.5798 22.0448L39.2408 14.848C39.2488 14.7489 39.1875 14.6685 39.1076 14.6364L39.1049 14.6418Z" fill="#733C0E"/>
<path d="M36.117 15.5176L35.6319 20.8101C35.6106 21.0405 35.6879 21.2735 35.8505 21.4342C37.0792 22.6555 38.5959 21.8788 38.7078 20.6575L39.1689 15.6516C39.2089 15.223 38.8731 14.8534 38.4439 14.8534H36.8447C36.4688 14.8534 36.1543 15.14 36.1197 15.5176H36.117Z" fill="#51290B"/>
<path d="M35.8932 14.6337C30.4157 16.6424 25.2793 19.8485 20.892 24.2571C20.6495 24.5008 20.4122 24.7446 20.1777 24.9937C19.7246 25.4704 19.4607 26.0971 19.426 26.7534L18.8343 38.1552C18.8183 38.482 19.0449 38.6936 19.3034 38.7364C19.5246 38.7713 19.7699 38.6829 19.8925 38.4284C20.183 37.8312 20.4975 37.2446 20.8227 36.6661L21.9395 25.9391L21.4011 35.6724C24.6316 30.3424 29.2748 25.9713 34.8136 23.0947C35.2108 22.8884 35.4773 22.5001 35.52 22.0528L36.0931 15.8148L36.1037 15.6863L36.181 14.8586C36.1943 14.7033 36.0424 14.5828 35.8958 14.6363L35.8932 14.6337Z" fill="#DB7C2C"/>
<g style="mix-blend-mode:screen" opacity="0.5">
<path d="M19.4019 27.2008L18.9967 34.9949C19.7164 33.811 20.5027 32.6727 21.3503 31.5853L21.9394 25.9366L21.6488 31.213C25.3431 26.5901 30.1489 22.8993 35.6584 20.5584L36.0955 15.8123L36.1009 15.7667C29.5999 18.1023 23.8718 22.0797 19.4098 27.2008H19.4019Z" fill="#DB7C2C"/>
</g>
<path d="M61.9265 15.2068C61.6227 13.7953 59.3224 12.9623 57.6032 12.3757C58.0883 12.5739 58.4028 13.0721 58.3362 13.6158L57.6778 18.9538C57.5952 19.6154 56.9848 20.0788 56.3291 19.9716C54.4153 19.6609 52.4535 19.4976 50.4544 19.4976C46.1204 19.4976 41.965 20.2555 38.1081 21.6429C37.7642 21.7662 37.4204 21.7179 37.1432 21.5572C37.1432 21.5572 37.1459 21.5599 37.1485 21.5626C37.8042 22.0635 39.9552 22.0179 40.9948 21.651C44.9743 20.6734 49.1883 20.3546 53.4957 20.8073C55.4841 21.0162 57.4192 21.3831 59.2904 21.892C59.9328 22.0661 60.5858 21.6697 60.7377 21.0216L61.9452 15.78C61.9905 15.5818 61.9798 15.3889 61.9292 15.2068H61.9265Z" fill="#733C0E"/>
<path d="M61.5455 15.0381L59.1866 13.9935C58.7627 13.806 58.2803 14.0819 58.2217 14.5426L57.6779 18.9566C57.6593 19.1146 57.6086 19.2592 57.5366 19.3878C57.2221 19.9476 57.3794 20.6547 57.9178 21.0029C58.3443 21.2787 58.7574 21.5493 59.0186 21.7153C59.3278 21.9162 59.7223 21.9831 60.0608 21.8358C60.3887 21.6912 60.6499 21.3993 60.7352 21.0216L61.9426 15.78C61.9426 15.78 61.9426 15.7773 61.9426 15.7747C62.0119 15.4693 61.828 15.164 61.5428 15.0381H61.5455Z" fill="#51290B"/>
<path d="M38.1081 21.6457C41.965 20.2583 46.1231 19.5003 50.4544 19.5003C52.4535 19.5003 54.418 19.6637 56.3291 19.9744C56.9848 20.0816 57.5952 19.6182 57.6778 18.9566L58.3362 13.6186C58.4028 13.0749 58.0883 12.5767 57.6032 12.3812C57.5232 12.3491 57.4379 12.3223 57.3473 12.3062C53.5357 11.6902 49.7214 11.5643 45.8832 11.9393C45.7499 12.1241 45.5154 12.5151 45.5154 12.5151C45.5154 12.5151 44.809 12.183 44.5825 12.0839C42.5008 12.3464 40.4324 12.7562 38.396 13.3106C37.9535 13.4311 37.6256 13.8061 37.551 14.2587L36.5568 20.344C36.4715 20.8663 36.7354 21.3297 37.1379 21.56C37.4151 21.718 37.7589 21.7689 38.1028 21.6457H38.1081Z" fill="#C26618"/>
<path d="M44.5852 12.0813L42.4342 19.0264C42.4342 19.0264 45.3928 12.7027 45.5155 12.5125C45.097 12.2956 44.5826 12.0813 44.5826 12.0813H44.5852Z" fill="#51290B"/>
<g style="mix-blend-mode:screen" opacity="0.5">
<path d="M37.3806 15.3274L36.589 20.1753C40.6111 18.5977 44.9851 17.7299 49.5591 17.7299C52.3178 17.7299 55.0552 18.0487 57.7153 18.6701L58.2457 14.3766C55.4044 13.7472 52.4937 13.4231 49.5591 13.4231C45.3157 13.4231 41.2242 14.0927 37.3806 15.3247V15.3274Z" fill="#DB7C2C"/>
</g>
<path d="M89.8018 34.3574C89.7565 34.2717 89.6712 34.2476 89.5965 34.2637H86.5339L89.4499 46.0084L90.5721 46.3298L90.9612 50.4465L90.9026 50.4304L89.4526 65.7213C91.2864 65.9276 92.5152 65.7213 92.5152 65.7213C92.6058 65.7535 92.7204 65.7187 92.7551 65.6008C95.8257 55.3024 94.8421 44.0318 89.8044 34.3548L89.8018 34.3574Z" fill="#733C0E"/>
<path d="M86.3899 34.4645L89.3246 65.566C89.3432 65.7695 89.6311 65.8016 89.6897 65.6034C92.7603 55.3051 91.7768 44.0344 86.7391 34.3574C86.6458 34.1753 86.3686 34.261 86.3873 34.4645H86.3899Z" fill="#DB7C2C"/>
<path d="M51.7393 19.1682C32.3241 19.1682 16.5314 35.0403 16.5314 54.547C16.5314 74.0537 32.3268 89.9258 51.7393 89.9258C71.1517 89.9258 86.9472 74.0537 86.9472 54.547C86.9472 35.0403 71.1544 19.1682 51.7393 19.1682ZM51.7393 87.7724C33.5076 87.7724 18.6744 72.8672 18.6744 54.547C18.6744 36.2269 33.5076 21.3216 51.7393 21.3216C69.9709 21.3216 84.8041 36.2269 84.8041 54.547C84.8041 72.8672 69.9709 87.7724 51.7393 87.7724Z" fill="#5F300C"/>
<path d="M50.8223 18.2468C31.4072 18.2468 15.6144 34.1189 15.6144 53.6256C15.6144 73.1323 31.4098 89.0044 50.8223 89.0044C70.2347 89.0044 86.0302 73.1323 86.0302 53.6256C86.0302 34.1189 70.2347 18.2468 50.8223 18.2468ZM50.8223 86.851C32.5906 86.851 17.7574 71.9458 17.7574 53.6256C17.7574 35.3055 32.5906 20.4002 50.8223 20.4002C69.0539 20.4002 83.8871 35.3055 83.8871 53.6256C83.8871 71.9458 69.0539 86.851 50.8223 86.851Z" fill="#FFE46B"/>
<g style="mix-blend-mode:multiply">
<path d="M83.8711 54.6434C83.3247 72.1359 69.2618 86.2939 51.8538 86.8349C51.2781 86.8537 50.8223 87.3304 50.8223 87.9089C50.8223 88.5196 51.3287 89.0071 51.9338 88.9857C70.4719 88.4044 85.4438 73.3546 86.0115 54.7238C86.0302 54.1211 85.5584 53.6149 84.956 53.6042C84.3722 53.5935 83.8871 54.0542 83.8685 54.6407L83.8711 54.6434Z" fill="#FFE46B"/>
</g>
<g style="mix-blend-mode:screen">
<path d="M49.7508 18.2628C31.1993 18.8225 16.2115 33.8724 15.6331 52.5086C15.6144 53.1193 16.0969 53.6282 16.7046 53.6282C17.2803 53.6282 17.7548 53.1702 17.7734 52.5916C18.3119 35.1071 32.4361 20.9813 49.8334 20.4189C50.4278 20.4001 50.889 19.8966 50.865 19.2993C50.841 18.7047 50.3425 18.244 49.7508 18.2628Z" fill="#FFE46B"/>
</g>
<path fill-rule="evenodd" clip-rule="evenodd" d="M63.9546 3.03959L61.4027 8.70956L54.8189 8.23946C54.8487 8.60722 55.4502 9.76488 55.5127 9.82884L59.747 14.1877L58.7406 17.0306L58.9907 17.0562L58.2909 19.7041C58.2492 19.8129 58.8418 20.5932 58.9163 20.5516L64.0856 17.5743L69.255 20.5516C69.3324 20.5963 69.922 19.8129 69.8803 19.7041L68.4242 14.1877L72.6585 9.82884C72.7211 9.76488 73.3226 8.60722 73.3524 8.23946L66.7686 8.70956L66.0241 7.05622L66.8698 6.88353L64.2166 3.03959C64.1898 3.00121 64.1422 2.97563 64.0886 2.97563C64.035 2.97563 63.9784 2.99802 63.9606 3.03959H63.9546Z" fill="white"/>
<path fill-rule="evenodd" clip-rule="evenodd" d="M63.9426 1.01221L61.1912 7.1235L54.929 8.04451C54.8366 8.0573 54.7741 8.26197 54.8426 8.32913L59.4045 13.0269L58.7345 17.034C59.0918 16.8357 59.4283 16.6022 59.7469 16.3368C59.4045 16.679 59.1157 16.9412 58.7047 17.2098L58.2849 19.7074C58.267 19.8066 58.4278 19.9313 58.5112 19.8833L64.0796 16.6758L69.6479 19.8833C69.7313 19.9313 69.8891 19.8066 69.8743 19.7074L68.7546 13.0269L73.3165 8.32913C73.385 8.25877 73.3225 8.0573 73.2302 8.04451L65.5952 6.92203C66.0181 6.91244 66.4379 6.90284 66.8608 6.88685L64.2165 1.01541C64.1749 0.925869 63.9783 0.925869 63.9366 1.01541L63.9426 1.01221Z" fill="white"/>
<path fill-rule="evenodd" clip-rule="evenodd" d="M64.4398 1.49187C64.1599 1.58141 63.88 1.67096 63.6 1.77009L63.5375 1.9076C63.5584 1.89801 63.5822 1.89161 63.603 1.88202C63.8948 1.77649 64.1896 1.68375 64.4874 1.5974L64.4368 1.48867L64.4398 1.49187ZM62.8913 3.34668C62.9539 3.32749 63.0134 3.30511 63.076 3.28592C63.7043 3.07805 64.3296 2.86059 64.9519 2.63354L64.9073 2.5376C64.6303 2.64953 64.3504 2.75506 64.0705 2.86059C63.6953 2.99811 63.3142 3.12922 62.933 3.25074L62.8884 3.34668H62.8913ZM65.1902 3.1644C64.5291 3.41704 63.8621 3.65688 63.1891 3.87434C62.9807 3.9415 62.7722 4.00866 62.5638 4.07582L62.5072 4.19734C63.0938 4.02465 63.6745 3.83597 64.2522 3.64089C64.5857 3.52897 64.9192 3.41384 65.2497 3.29552L65.1902 3.1644ZM65.5564 3.97988C65.2855 4.08541 65.0175 4.18774 64.7465 4.28688C64.3534 4.43079 63.9604 4.5683 63.5613 4.69622C63.2427 4.79855 62.9181 4.89449 62.5906 4.97124C62.4328 5.00642 62.275 5.0416 62.1171 5.07038L62.1082 5.08957C62.2839 5.05759 62.4596 5.02241 62.6323 4.98084C63.3112 4.82414 63.9723 4.58109 64.6303 4.34125C64.943 4.22612 65.2557 4.11419 65.5683 4.00226L65.5594 3.97988H65.5564ZM61.7926 5.78672C62.1618 5.72596 62.5281 5.6556 62.8943 5.57566C63.3589 5.47652 63.8204 5.36139 64.282 5.24307C64.5261 5.17911 64.7733 5.11515 65.0175 5.05119C65.3212 4.97124 65.6279 4.89449 65.9346 4.81774L65.8989 4.74099C65.5981 4.81774 65.2944 4.89449 64.9936 4.97124C64.1599 5.1887 63.3201 5.36779 62.4715 5.5085C62.272 5.54048 62.0725 5.57246 61.873 5.60124L61.7896 5.78352L61.7926 5.78672ZM66.2622 5.55007C65.7232 5.64921 65.1842 5.74515 64.6482 5.85388C63.6179 6.05855 62.5787 6.21525 61.5394 6.34956L61.5156 6.40073C62.0397 6.36235 62.5638 6.32078 63.0879 6.26322C63.6179 6.20565 64.148 6.1289 64.672 6.02657C65.2259 5.91784 65.7798 5.8187 66.3366 5.71956L66.2622 5.55007ZM58.7345 17.034C59.1276 16.8165 59.4937 16.5542 59.8421 16.2568C60.3156 15.8475 60.7474 15.3806 61.1523 14.8945C61.4233 14.5683 61.6824 14.2069 61.9027 13.8424C62.132 13.465 62.5697 12.6655 62.4268 12.1986C62.2958 11.7701 61.8998 11.527 61.5365 11.364C59.9702 10.6636 58.4664 10.1967 57.0401 10.5964L57.2694 10.8331C57.448 10.7947 57.6297 10.7723 57.8173 10.7595C58.9994 10.6828 60.1905 11.1177 61.2655 11.6006C61.6079 11.7541 61.8432 11.9812 61.9623 12.3649C62.0933 12.787 61.8759 13.2987 61.6883 13.6601C60.9945 14.9904 60.0059 16.0458 58.7761 16.7813L58.7314 17.0403L58.7345 17.034ZM58.5796 17.9485C58.8089 17.8558 59.0381 17.7631 59.2645 17.6639C59.5235 17.5488 59.7796 17.4273 60.0238 17.2866C60.5717 16.97 61.0392 16.5734 61.4948 16.1193C61.7866 15.8315 62.0665 15.5309 62.3434 15.2271C62.6948 14.8401 63.0373 14.4436 63.3678 14.0374C63.5286 13.8392 63.6864 13.6409 63.8412 13.4394C64.0973 13.1004 64.3475 12.7519 64.5708 12.3873C64.7346 12.1219 64.9073 11.8053 65.0026 11.5015C65.0383 11.3895 65.0562 11.268 65.0562 11.1465C65.0562 11.041 65.0383 10.9322 64.9966 10.8331C64.9549 10.7308 64.8894 10.638 64.812 10.5613C64.7316 10.4813 64.6363 10.4206 64.5351 10.379C64.4427 10.3406 64.3415 10.3118 64.2462 10.2862C64.1152 10.2511 63.9812 10.2191 63.8502 10.1903C63.5286 10.1199 63.204 10.0592 62.8824 9.99842C62.6085 9.95045 62.3345 9.90249 62.0606 9.85452C61.5514 9.76817 61.0451 9.66264 60.536 9.5667C60.0893 9.48355 59.6367 9.41 59.1841 9.38122C58.6897 9.34924 58.2074 9.37802 57.722 9.47396C57.2604 9.5667 56.8108 9.717 56.376 9.90249L56.4267 9.95685C57.0222 9.74899 57.6386 9.57949 58.258 9.51234C58.7969 9.45157 59.3032 9.47716 59.8362 9.5699C60.1727 9.62746 60.5062 9.71061 60.8397 9.78736C61.2208 9.8769 61.599 9.96325 61.9831 10.0272C62.2094 10.0656 62.4358 10.1104 62.6591 10.1551C62.9658 10.2191 63.2755 10.2862 63.5792 10.3662C63.7072 10.3982 63.8323 10.4333 63.9574 10.4717C64.0527 10.5005 64.148 10.5325 64.2403 10.5677C64.6482 10.7308 64.8001 11.1625 64.6661 11.591C64.5767 11.882 64.4457 12.1698 64.3058 12.4353C64.1212 12.7838 63.9068 13.1196 63.6715 13.4298C63.3469 13.8552 63.0194 14.2741 62.6769 14.6802C62.3881 15.0224 62.0933 15.3582 61.7836 15.678C61.2566 16.2184 60.6997 16.6981 60.0744 17.0979C59.6009 17.4049 59.1037 17.6543 58.5915 17.8782L58.5796 17.9421V17.9485ZM58.3473 19.3333C58.5706 19.2533 58.7969 19.1702 59.0173 19.0806C59.6784 18.8216 60.3543 18.5242 60.9528 18.1244C61.2834 17.9038 61.5901 17.6415 61.8789 17.3633C62.1886 17.0659 62.4804 16.7461 62.7663 16.4199C63.2427 15.8699 63.6924 15.2942 64.1569 14.7346C64.7435 14.0278 65.3271 13.3147 65.9227 12.6175C66.5361 11.9012 68.0458 10.1167 68.1262 9.17975C68.1352 9.06462 68.1262 8.9463 68.0816 8.84077C67.9416 8.51138 67.4949 8.45701 67.2031 8.45062C66.1401 8.42503 65.1902 8.55935 64.142 8.56254C63.3737 8.56254 62.135 8.38026 61.328 8.28432C60.7265 8.21397 60.128 8.14361 59.5235 8.13082C58.4753 8.10524 57.4838 8.24914 56.4862 8.60412C56.1527 8.72244 55.8281 8.85995 55.5065 9.01346L55.5929 9.103C56.0515 8.88234 56.519 8.69686 57.0073 8.55935C57.8411 8.3195 58.6749 8.22996 59.5354 8.25234C60.1727 8.26833 60.8069 8.36747 61.4352 8.4794C61.861 8.55295 62.2898 8.6329 62.7186 8.69686C63.1325 8.75762 63.5494 8.79919 63.9663 8.79919C64.5976 8.79919 65.2289 8.74163 65.8602 8.70645C66.0835 8.69366 66.3068 8.68407 66.5272 8.68087C66.7058 8.68087 66.8905 8.68407 67.0691 8.70645C67.2984 8.73523 67.6021 8.80559 67.7361 9.03264C67.8433 9.21812 67.8046 9.45158 67.7391 9.64665C67.6915 9.79376 67.623 9.93447 67.5515 10.0688C67.4562 10.2479 67.3461 10.4238 67.2359 10.59C67.1287 10.7531 67.0155 10.9098 66.8994 11.0665C66.679 11.3608 66.4468 11.6454 66.2115 11.9268C66.0329 12.1379 65.8512 12.3425 65.6726 12.5536C65.3301 12.9533 65.0026 13.3659 64.675 13.7816C64.3088 14.2453 63.9484 14.7122 63.5822 15.1727C63.1415 15.7292 62.6918 16.2824 62.2184 16.8101C62.004 17.0499 61.7836 17.2866 61.5543 17.5104C61.3519 17.7087 61.1434 17.9006 60.9201 18.0765C60.3305 18.5434 59.595 18.8504 58.9041 19.0966C58.7195 19.1638 58.5349 19.2277 58.3473 19.2885L58.3414 19.3333H58.3473ZM63.7311 16.8772C64.1241 16.4615 64.5053 16.033 64.8835 15.6076C66.2889 14.031 67.7212 12.4864 69.2071 11.0026C69.4364 10.7723 69.6776 10.5517 69.9188 10.3374C70.1749 10.1072 70.431 9.8801 70.6871 9.64985C71.0027 9.36523 71.3154 9.07741 71.6132 8.77041C71.8692 8.50498 72.1224 8.22036 72.3368 7.91336L72.1075 7.87818C72.0956 7.89737 72.0836 7.91336 72.0717 7.92935C71.8573 8.24275 71.6042 8.53056 71.3422 8.79919C71.0563 9.0934 70.7556 9.37163 70.4518 9.64345C70.2077 9.86411 69.9605 10.0784 69.7193 10.299C69.493 10.5037 69.2667 10.7116 69.0493 10.929C67.62 12.3585 66.2383 13.8456 64.8894 15.3582C64.5619 15.726 64.2403 16.1001 63.9157 16.4711C63.734 16.6789 63.5524 16.8836 63.3678 17.0851L63.7311 16.874V16.8772ZM66.7475 6.62458C65.8631 6.68535 64.9787 6.74611 64.0914 6.78768C63.1683 6.83245 62.2422 6.81326 61.3161 6.84844L61.2208 7.05951C61.6139 7.03712 62.004 7.01793 62.3941 7.00194C63.3678 6.96357 64.3415 6.94758 65.3152 6.92839C65.8304 6.9188 66.3485 6.906 66.8637 6.88682L66.7445 6.62458H66.7475ZM68.8022 13.2955C68.7099 13.3947 68.6175 13.497 68.5252 13.5993C68.2334 13.9287 67.9356 14.2549 67.623 14.5619C67.3193 14.8625 67.0006 15.1439 66.6671 15.4094C66.018 15.9242 65.4195 16.4999 64.8179 17.0787L64.8031 17.0915L64.9728 17.1906C65.1723 17.0083 65.3718 16.8229 65.5743 16.6438C65.9674 16.292 66.3634 15.9466 66.7743 15.6204C67.1078 15.355 67.4264 15.0736 67.7332 14.773C68.0488 14.4628 68.3466 14.1366 68.6414 13.804C68.7099 13.7272 68.7783 13.6505 68.8468 13.5737L68.7992 13.2955H68.8022ZM69.088 15C68.3287 15.5821 67.5872 16.1865 66.8428 16.7845C66.4855 17.0723 66.1252 17.3601 65.7649 17.6447L65.9138 17.7311C66.2711 17.4688 66.6254 17.2002 66.9798 16.9348C67.7004 16.3911 68.418 15.8379 69.1357 15.2878L69.088 15ZM69.2786 16.1417C68.9779 16.3496 68.6682 16.551 68.3525 16.7237C67.6676 17.1043 67.0215 17.5392 66.3902 18.0061L66.5212 18.0828C67.1406 17.6447 67.7778 17.245 68.427 16.8644C68.7247 16.6917 69.0166 16.5031 69.3054 16.308L69.2786 16.1417ZM69.3858 16.7845C68.8915 17.0691 68.4091 17.3761 67.9356 17.7023C67.623 17.9166 67.3133 18.1372 67.0066 18.3611L67.1108 18.4218C67.3937 18.23 67.6825 18.0413 67.9714 17.859C68.4478 17.5584 68.9332 17.2738 69.4215 17.0051L69.3858 16.7845ZM69.5347 17.6735C69.365 17.779 69.1952 17.8878 69.0255 17.9997C68.6175 18.2683 68.2185 18.5466 67.8225 18.8344L67.9088 18.8855C68.4478 18.5146 68.9987 18.166 69.5615 17.8334L69.5347 17.6767V17.6735ZM69.6806 18.5466C69.5734 18.6105 69.4662 18.6777 69.359 18.7416C69.088 18.9079 68.82 19.0774 68.555 19.2533L68.7426 19.362C69.0642 19.1542 69.3888 18.9559 69.7163 18.7576L69.6806 18.5466ZM58.9667 15.6396C59.0381 15.5821 59.1066 15.5245 59.1751 15.4605C59.5354 15.1279 59.8302 14.6546 60.0565 14.2069C60.2322 13.8552 60.4198 13.3595 60.396 12.9533C60.396 12.9182 60.3871 12.8798 60.3811 12.8446C60.3454 12.6879 60.2501 12.5536 60.1429 12.4449C60 12.3041 59.8243 12.1986 59.6456 12.1187C59.2257 11.93 58.7344 11.8596 58.2788 11.866L58.3592 11.9492C58.7672 11.9652 59.19 12.0515 59.5563 12.2306C59.8511 12.3745 60.1399 12.592 60.2233 12.9501C60.3186 13.3531 60.1191 13.8232 59.9583 14.175C59.7617 14.6003 59.4818 15.1024 59.1513 15.4222C59.0947 15.4765 59.0381 15.5277 58.9786 15.5757L58.9697 15.6364L58.9667 15.6396Z" fill="white"/>
<path fill-rule="evenodd" clip-rule="evenodd" d="M64.4876 1.60372C64.1898 1.69007 63.895 1.78281 63.6032 1.88834C63.5823 1.89474 63.5585 1.90433 63.5377 1.91392L62.9362 3.25067C63.3173 3.12915 63.6955 2.99803 64.0737 2.86052C64.3536 2.75818 64.6335 2.64945 64.9104 2.53753L64.4905 1.60372H64.4876Z" fill="white"/>
<path fill-rule="evenodd" clip-rule="evenodd" d="M64.6779 6.02341C64.1539 6.12574 63.6238 6.20249 63.0938 6.26006C62.5697 6.31762 62.0456 6.35919 61.5215 6.39757L61.319 6.84528C62.2421 6.8133 63.1682 6.82929 64.0943 6.78452C64.9817 6.74295 65.8661 6.68219 66.7504 6.62143L66.3425 5.71641C65.7886 5.81554 65.2318 5.91468 64.6779 6.02341Z" fill="white"/>
<path fill-rule="evenodd" clip-rule="evenodd" d="M65.8662 8.70011C65.2349 8.73529 64.6037 8.79285 63.9724 8.79285C63.5555 8.79285 63.1386 8.75128 62.7247 8.69051C62.2959 8.62975 61.8701 8.5498 61.4413 8.47305C60.813 8.36432 60.1787 8.26199 59.5415 8.246C58.6809 8.22681 57.8442 8.31635 57.0134 8.553C56.528 8.69371 56.0575 8.87919 55.599 9.09665L56.3762 9.89614C56.8109 9.71066 57.2605 9.56036 57.7221 9.46762C58.2104 9.37168 58.6899 9.3429 59.1842 9.37488C59.6368 9.40366 60.0894 9.47721 60.5361 9.56036C61.0453 9.6563 61.5515 9.76183 62.0607 9.84817C62.3346 9.89614 62.6086 9.94091 62.8825 9.99208C63.2071 10.0496 63.5287 10.1104 63.8503 10.184C63.9813 10.2127 64.1153 10.2447 64.2463 10.2799C64.3416 10.3055 64.4429 10.3343 64.5352 10.3726C64.6364 10.4142 64.7317 10.475 64.8121 10.5549C64.8895 10.6317 64.955 10.7244 64.9967 10.8267C65.0384 10.9259 65.0563 11.0314 65.0563 11.1401C65.0563 11.2585 65.0384 11.38 65.0027 11.4951C64.9104 11.7989 64.7347 12.1123 64.5709 12.381C64.3476 12.7455 64.0974 13.0941 63.8414 13.4331C63.6865 13.6345 63.5287 13.836 63.3679 14.0311C63.0374 14.4372 62.6949 14.8338 62.3435 15.2207C62.0666 15.5245 61.7867 15.8251 61.4949 16.113C61.0393 16.5671 60.5718 16.9636 60.0239 17.2802C59.7767 17.4209 59.5236 17.5424 59.2646 17.6576C59.0383 17.7567 58.8089 17.8494 58.5796 17.9421L58.3563 19.2821C58.541 19.2214 58.7286 19.1574 58.9132 19.0903C59.604 18.8408 60.3395 18.537 60.9291 18.0701C61.1495 17.8942 61.3609 17.7023 61.5634 17.5041C61.7927 17.2802 62.013 17.0436 62.2274 16.8037C62.6979 16.2761 63.1475 15.7228 63.5912 15.1664C63.9575 14.7059 64.3208 14.239 64.6841 13.7753C65.0116 13.3595 65.3392 12.947 65.6816 12.5472C65.8603 12.3394 66.0419 12.1315 66.2206 11.9204C66.4558 11.639 66.6881 11.3544 66.9084 11.0602C67.0246 10.9035 67.1377 10.7468 67.2449 10.5837C67.3581 10.4142 67.4653 10.2415 67.5606 10.0624C67.632 9.92812 67.7005 9.78421 67.7482 9.64031C67.8137 9.44523 67.8524 9.21178 67.7452 9.0263C67.6142 8.79605 67.3104 8.72889 67.0782 8.70011C66.8995 8.67772 66.7149 8.67133 66.5362 8.67452C66.3129 8.67452 66.0896 8.68732 65.8692 8.70011H65.8662Z" fill="white"/>
<path fill-rule="evenodd" clip-rule="evenodd" d="M59.9583 14.175C60.122 13.82 60.3186 13.3531 60.2233 12.9501C60.1399 12.592 59.854 12.3745 59.5563 12.2306C59.19 12.0515 58.7642 11.9652 58.3592 11.9492L59.4045 13.0269L58.9786 15.5757C59.0381 15.5277 59.0947 15.4765 59.1513 15.4222C59.4818 15.1024 59.7617 14.6035 59.9583 14.175Z" fill="white"/>
<path fill-rule="evenodd" clip-rule="evenodd" d="M69.2104 10.9993C67.7245 12.4864 66.2893 14.031 64.8867 15.6044C64.5056 16.0297 64.1244 16.4583 63.7344 16.874L64.0857 16.6725L64.8093 17.0882L64.8242 17.0755C65.4227 16.4966 66.0242 15.921 66.6734 15.4061C67.0069 15.1407 67.3225 14.8593 67.6292 14.5587C67.9419 14.2517 68.2397 13.9255 68.5315 13.5961C68.6238 13.4937 68.7161 13.3914 68.8084 13.2923L68.7638 13.0268L73.3257 8.32905C73.3941 8.2587 73.3316 8.05723 73.2393 8.04444L72.343 7.91332C72.1286 8.22032 71.8785 8.50494 71.6194 8.77037C71.3216 9.07738 71.009 9.36519 70.6933 9.64981C70.4373 9.88006 70.1812 10.1071 69.9251 10.3374C69.6839 10.5548 69.4457 10.7755 69.2134 11.0025L69.2104 10.9993Z" fill="white"/>
<path fill-rule="evenodd" clip-rule="evenodd" d="M69.4245 17.0019C68.9332 17.2706 68.4508 17.5552 67.9744 17.8558C67.6855 18.0381 67.3997 18.2267 67.1138 18.4186L67.8255 18.828C68.2215 18.5433 68.6206 18.2619 69.0285 17.9933C69.1982 17.8814 69.368 17.7758 69.5377 17.6671L69.4245 16.9987V17.0019Z" fill="white"/>
<path fill-rule="evenodd" clip-rule="evenodd" d="M56.6827 8.53371C57.6147 8.22671 58.5467 8.10518 59.5264 8.12757C60.1309 8.14036 60.7294 8.21072 61.3309 8.28107C62.1379 8.37701 63.3766 8.56249 64.1449 8.55929C64.401 8.55929 64.6481 8.5497 64.8953 8.53691C62.8317 8.51132 61.6257 8.0828 59.8272 8.00605C58.5616 7.95168 57.704 8.14356 56.6797 8.53051L56.6827 8.53371Z" fill="white"/>
<path fill-rule="evenodd" clip-rule="evenodd" d="M57.6001 10.478C58.8597 10.315 60.1758 10.7467 61.5396 11.3575C61.8106 11.479 62.0995 11.6453 62.2841 11.9011C62.0965 11.5877 61.7391 11.3607 61.2806 11.172C60.6433 10.9098 59.9763 10.6284 59.3004 10.5036C58.5619 10.3661 58.2105 10.3661 57.6001 10.478Z" fill="white"/>
<path fill-rule="evenodd" clip-rule="evenodd" d="M69.0495 10.9257C69.2669 10.7082 69.4932 10.5004 69.7195 10.2957C69.9637 10.075 70.2108 9.86077 70.452 9.64011C70.7558 9.36829 71.0565 9.09007 71.3424 8.79586C71.4109 8.7255 71.4764 8.65515 71.5419 8.58479C71.0535 8.98134 70.4848 9.3555 70.3508 9.5026C70.184 9.68489 69.1388 10.7562 68.5909 11.2935C66.843 13.0076 65.7204 14.0597 64.1749 16.1671C64.4102 15.8953 64.6454 15.6267 64.8836 15.3581C66.2355 13.8422 67.6142 12.3584 69.0435 10.9289L69.0495 10.9257Z" fill="white"/>
<path fill-rule="evenodd" clip-rule="evenodd" d="M59.4074 13.0236L58.3622 11.9459L58.2818 11.8628L57.2753 10.8266L56.4296 9.95357L56.379 9.89921L55.6018 9.09972L55.5155 9.01018L54.8514 8.32582C54.8514 8.32582 54.8336 8.30023 54.8306 8.28744C54.902 8.69678 55.4589 9.76809 55.5184 9.82885L59.2972 13.7208L59.4133 13.0236H59.4074Z" fill="white"/>
<path fill-rule="evenodd" clip-rule="evenodd" d="M58.9132 20.5515L64.0826 17.5742V16.6724L63.7311 16.874L63.3678 17.0851L58.5142 19.8799C58.4457 19.9183 58.3207 19.8384 58.2939 19.752C58.3564 19.9535 58.8478 20.59 58.9163 20.5516L58.9132 20.5515Z" fill="white"/>
<path fill-rule="evenodd" clip-rule="evenodd" d="M64.0826 17.5742L69.252 20.5515C69.3205 20.5899 69.8118 19.9567 69.8743 19.7552C69.8445 19.8416 69.7224 19.9215 69.654 19.8831L68.7457 19.3587L68.5582 19.2499L67.912 18.879L67.8255 18.828L67.1138 18.4186L67.0097 18.3577L66.5244 18.0795L66.3933 18.0027L65.9169 17.7277L65.768 17.6414L64.9789 17.1873L64.8093 17.0882L64.0857 16.6725L64.0856 17.5743L64.0826 17.5742Z" fill="white"/>
<path fill-rule="evenodd" clip-rule="evenodd" d="M68.877 13.7207L72.6557 9.82883C72.7153 9.76807 73.2721 8.69676 73.3436 8.28742C73.3376 8.30341 73.3317 8.3162 73.3227 8.32579L68.7608 13.0236L68.8055 13.289L68.8531 13.5672L68.8799 13.7207H68.877Z" fill="white"/>
<path fill-rule="evenodd" clip-rule="evenodd" d="M55.0538 8.02524L61.2952 7.3121L61.5007 6.8388C62.2987 6.81641 63.0997 6.82281 63.8977 6.79403C63.5553 6.78443 63.2129 6.77484 62.8674 6.74926C62.5101 6.72367 62.1528 6.69809 61.7984 6.6757C61.7478 6.6725 61.6406 6.64372 61.6287 6.61494C61.6168 6.58616 61.6525 6.49662 61.6734 6.44545L62.7245 4.0246C62.8794 3.97663 63.0372 3.92546 63.192 3.8743C63.5077 3.77196 63.8233 3.66323 64.136 3.5513C64.0049 3.58968 62.9151 3.92866 62.8526 3.83272C62.8347 3.80714 62.8794 3.66323 62.9032 3.60887L63.9811 1.13045C64.0377 1.00253 64.1479 0.996138 64.2372 1.04091L64.2223 1.00893C64.1806 0.919387 63.9841 0.919387 63.9424 1.00893L61.191 7.12022L55.0509 8.02204L55.0538 8.02524Z" fill="white"/>
<g filter="url(#filter0_dd_2005_158)">
<path fill-rule="evenodd" clip-rule="evenodd" d="M64.0928 4.38011L61.9524 9.06398L56.4303 8.67564C56.4553 8.97945 56.9598 9.93577 57.0122 9.98861L60.5638 13.5894L59.7196 15.9379L59.9294 15.959L59.3425 18.1464C59.3075 18.2363 59.8045 18.8808 59.867 18.8465L64.2027 16.387L68.5385 18.8465C68.6034 18.8835 69.098 18.2363 69.063 18.1464L67.8417 13.5894L71.3932 9.98861C71.4457 9.93577 71.9502 8.97945 71.9752 8.67564L66.453 9.06398L65.8286 7.69818L66.538 7.55553L64.3126 4.38011C64.2901 4.3484 64.2502 4.32727 64.2052 4.32727C64.1603 4.32727 64.1128 4.34576 64.0978 4.38011H64.0928Z" fill="url(#paint0_linear_2005_158)"/>
<path fill-rule="evenodd" clip-rule="evenodd" d="M64.0826 2.70518L61.7748 7.75363L56.5224 8.51446C56.445 8.52503 56.3925 8.6941 56.45 8.74958L60.2763 12.6304L59.7143 15.9405C60.014 15.7767 60.2962 15.5839 60.5635 15.3646C60.2763 15.6473 60.034 15.8639 59.6893 16.0858L59.3372 18.149C59.3222 18.2309 59.4571 18.334 59.527 18.2943L64.1974 15.6446L68.8679 18.2943C68.9378 18.334 69.0702 18.2309 69.0577 18.149L68.1186 12.6304L71.9449 8.74958C72.0023 8.69146 71.9499 8.52503 71.8725 8.51446L66.6201 7.75363L65.4687 7.58719C65.8234 7.57927 66.1755 7.57134 66.5302 7.55813L64.3123 2.70782C64.2774 2.63385 64.1125 2.63385 64.0776 2.70782L64.0826 2.70518Z" fill="url(#paint1_radial_2005_158)"/>
<g style="mix-blend-mode:multiply" opacity="0.5">
<path fill-rule="evenodd" clip-rule="evenodd" d="M64.4997 3.10152C64.2649 3.17549 64.0301 3.24946 63.7953 3.33135L63.7429 3.44495C63.7604 3.43703 63.7804 3.43174 63.7978 3.42382C64.0426 3.33664 64.2899 3.26003 64.5396 3.1887L64.4972 3.09888L64.4997 3.10152ZM63.2009 4.63375C63.2534 4.6179 63.3033 4.59941 63.3558 4.58356C63.8828 4.41184 64.4073 4.2322 64.9292 4.04463L64.8918 3.96538C64.6595 4.05784 64.4247 4.14502 64.19 4.2322C63.8753 4.3458 63.5556 4.45411 63.2359 4.5545L63.1984 4.63375H63.2009ZM65.1291 4.48317C64.5746 4.69187 64.0151 4.89001 63.4507 5.06965C63.2759 5.12512 63.101 5.1806 62.9262 5.23608L62.8787 5.33647C63.3708 5.19381 63.8578 5.03795 64.3423 4.8768C64.622 4.78433 64.9018 4.68923 65.179 4.59148L65.1291 4.48317ZM65.4363 5.15683C65.209 5.244 64.9842 5.32854 64.7569 5.41044C64.4272 5.52932 64.0976 5.64291 63.7629 5.74858C63.4956 5.83312 63.2234 5.91237 62.9487 5.97578C62.8163 6.00484 62.6839 6.0339 62.5516 6.05767L62.5441 6.07352C62.6914 6.04711 62.8388 6.01805 62.9836 5.9837C63.5531 5.85426 64.1075 5.65348 64.6595 5.45535C64.9218 5.36024 65.184 5.26778 65.4462 5.17532L65.4388 5.15683H65.4363ZM62.2793 6.64943C62.589 6.59924 62.8962 6.54112 63.2034 6.47507C63.593 6.39318 63.9802 6.29808 64.3673 6.20033C64.5721 6.14749 64.7794 6.09466 64.9842 6.04182C65.2389 5.97578 65.4962 5.91237 65.7534 5.84897L65.7235 5.78557C65.4712 5.84897 65.2165 5.91237 64.9642 5.97578C64.2649 6.15542 63.5606 6.30336 62.8488 6.4196C62.6814 6.44601 62.5141 6.47243 62.3468 6.49621L62.2768 6.64679L62.2793 6.64943ZM66.0282 6.45394C65.5761 6.53584 65.1241 6.61509 64.6745 6.70491C63.8103 6.87398 62.9387 7.00343 62.067 7.11439L62.0471 7.15665C62.4866 7.12495 62.9262 7.09061 63.3658 7.04306C63.8103 6.99551 64.2549 6.9321 64.6945 6.84757C65.159 6.75775 65.6236 6.67585 66.0906 6.59395L66.0282 6.45394ZM59.7143 15.9406C60.044 15.7609 60.3512 15.5443 60.6434 15.2986C61.0405 14.9605 61.4027 14.5748 61.7423 14.1732C61.9696 13.9038 62.1869 13.6052 62.3717 13.3041C62.564 12.9924 62.9312 12.3319 62.8113 11.9462C62.7014 11.5922 62.3692 11.3914 62.0645 11.2567C60.7508 10.6781 59.4895 10.2924 58.2932 10.6227L58.4855 10.8182C58.6354 10.7865 58.7877 10.768 58.9451 10.7574C59.9366 10.694 60.9356 11.0533 61.8373 11.4522C62.1245 11.579 62.3218 11.7666 62.4217 12.0836C62.5316 12.4323 62.3493 12.855 62.1919 13.1535C61.61 14.2525 60.7808 15.1243 59.7493 15.7319L59.7118 15.9459L59.7143 15.9406ZM59.5844 16.6961C59.7768 16.6195 59.9691 16.5429 60.1589 16.461C60.3762 16.3659 60.591 16.2655 60.7958 16.1493C61.2553 15.8877 61.6474 15.5602 62.0296 15.185C62.2743 14.9473 62.5091 14.6989 62.7414 14.448C63.0361 14.1283 63.3233 13.8007 63.6005 13.4652C63.7354 13.3014 63.8678 13.1376 63.9977 12.9712C64.2124 12.6912 64.4222 12.4032 64.6096 12.1021C64.7469 11.8828 64.8918 11.6213 64.9717 11.3703C65.0017 11.2778 65.0167 11.1774 65.0167 11.0771C65.0167 10.9899 65.0017 10.9001 64.9667 10.8182C64.9317 10.7336 64.8768 10.657 64.8119 10.5936C64.7444 10.5276 64.6645 10.4774 64.5796 10.443C64.5022 10.4113 64.4172 10.3876 64.3373 10.3664C64.2274 10.3374 64.115 10.3109 64.0051 10.2872C63.7354 10.229 63.4632 10.1789 63.1934 10.1287C62.9637 10.089 62.7339 10.0494 62.5041 10.0098C62.077 9.93845 61.6524 9.85127 61.2254 9.77202C60.8507 9.70333 60.4711 9.64257 60.0915 9.6188C59.6769 9.59238 59.2723 9.61615 58.8652 9.69541C58.478 9.77202 58.1009 9.89618 57.7362 10.0494L57.7787 10.0943C58.2782 9.9226 58.7952 9.78259 59.3147 9.72711C59.7668 9.67691 60.1914 9.69805 60.6384 9.77466C60.9206 9.82221 61.2004 9.8909 61.4801 9.9543C61.7998 10.0283 62.117 10.0996 62.4392 10.1524C62.629 10.1841 62.8188 10.2211 63.0061 10.2581C63.2634 10.3109 63.5231 10.3664 63.7779 10.4325C63.8853 10.4589 63.9902 10.4879 64.0951 10.5196C64.175 10.5434 64.2549 10.5698 64.3323 10.5989C64.6745 10.7336 64.8019 11.0903 64.6895 11.4443C64.6146 11.6847 64.5047 11.9224 64.3873 12.1417C64.2324 12.4297 64.0526 12.707 63.8553 12.9633C63.5831 13.3146 63.3083 13.6607 63.0211 13.9962C62.7788 14.2789 62.5316 14.5563 62.2718 14.8205C61.8298 15.2669 61.3627 15.6632 60.8382 15.9934C60.4411 16.247 60.024 16.4531 59.5944 16.638L59.5844 16.6908V16.6961ZM59.3896 17.84C59.577 17.774 59.7668 17.7053 59.9516 17.6313C60.5061 17.4173 61.073 17.1716 61.575 16.8414C61.8522 16.6591 62.1095 16.4425 62.3518 16.2127C62.6115 15.967 62.8563 15.7028 63.096 15.4334C63.4956 14.979 63.8728 14.5035 64.2624 14.0411C64.7544 13.4573 65.2439 12.8682 65.7435 12.2923C66.258 11.7005 67.5242 10.2264 67.5917 9.45236C67.5991 9.35726 67.5917 9.25951 67.5542 9.17233C67.4368 8.90023 67.0622 8.85532 66.8174 8.85004C65.9258 8.8289 65.1291 8.93986 64.2499 8.9425C63.6055 8.9425 62.5665 8.79192 61.8897 8.71266C61.3852 8.65454 60.8832 8.59643 60.3762 8.58586C59.497 8.56472 58.6653 8.6836 57.8287 8.97684C57.5489 9.07459 57.2767 9.18819 57.007 9.31499L57.0794 9.38896C57.464 9.20668 57.8561 9.05345 58.2657 8.93986C58.9651 8.74172 59.6644 8.66775 60.3862 8.68625C60.9206 8.69946 61.4526 8.78135 61.9796 8.87381C62.3368 8.93457 62.6964 9.00062 63.0561 9.05345C63.4032 9.10365 63.7529 9.13799 64.1026 9.13799C64.632 9.13799 65.1615 9.09044 65.691 9.06138C65.8783 9.05081 66.0656 9.04289 66.2505 9.04025C66.4003 9.04025 66.5552 9.04289 66.705 9.06138C66.8973 9.08516 67.1521 9.14327 67.2645 9.33084C67.3544 9.48406 67.3219 9.67691 67.267 9.83806C67.227 9.95959 67.1696 10.0758 67.1096 10.1868C67.0297 10.3347 66.9373 10.48 66.8449 10.6174C66.755 10.7521 66.6601 10.8816 66.5627 11.011C66.3778 11.2541 66.183 11.4892 65.9857 11.7217C65.8359 11.896 65.6835 12.0651 65.5337 12.2394C65.2464 12.5697 64.9717 12.9105 64.697 13.2539C64.3898 13.6369 64.0876 14.0226 63.7804 14.4031C63.4107 14.8627 63.0336 15.3198 62.6365 15.7557C62.4567 15.9538 62.2718 16.1493 62.0795 16.3342C61.9097 16.498 61.7349 16.6565 61.5475 16.8018C61.053 17.1875 60.4361 17.4411 59.8567 17.6445C59.7018 17.7 59.547 17.7528 59.3896 17.803L59.3846 17.84H59.3896ZM63.9052 15.8111C64.2349 15.4677 64.5546 15.1137 64.8718 14.7623C66.0507 13.4599 67.252 12.184 68.4983 10.9582C68.6906 10.768 68.8929 10.5857 69.0952 10.4087C69.31 10.2185 69.5248 10.0309 69.7396 9.84071C70.0043 9.60559 70.2666 9.36783 70.5163 9.11421C70.7311 8.89495 70.9434 8.65983 71.1232 8.40622L70.9309 8.37716C70.9209 8.39301 70.9109 8.40622 70.9009 8.41943C70.7211 8.67832 70.5088 8.91608 70.289 9.13799C70.0493 9.38104 69.797 9.61087 69.5423 9.83542C69.3375 10.0177 69.1302 10.1947 68.9279 10.377C68.738 10.5461 68.5482 10.7178 68.3659 10.8974C67.1671 12.0783 66.0082 13.3067 64.8768 14.5563C64.6021 14.8601 64.3323 15.1692 64.0601 15.4756C63.9077 15.6473 63.7554 15.8164 63.6005 15.9828L63.9052 15.8085V15.8111ZM66.4353 7.34158C65.6935 7.39177 64.9517 7.44197 64.2075 7.47631C63.4332 7.51329 62.6565 7.49744 61.8797 7.5265L61.7998 7.70086C62.1295 7.68237 62.4567 7.66652 62.7838 7.65331C63.6005 7.62161 64.4172 7.6084 65.234 7.59255C65.666 7.58462 66.1006 7.57406 66.5327 7.55821L66.4328 7.34158H66.4353ZM68.1586 12.8523C68.0812 12.9342 68.0038 13.0188 67.9263 13.1033C67.6816 13.3754 67.4318 13.6449 67.1696 13.8985C66.9148 14.1468 66.6476 14.3793 66.3678 14.5986C65.8234 15.0239 65.3214 15.4994 64.8169 15.9776L64.8044 15.9881L64.9467 16.07C65.1141 15.9194 65.2814 15.7662 65.4512 15.6183C65.7809 15.3277 66.1131 15.0424 66.4578 14.7729C66.7375 14.5536 67.0047 14.3212 67.262 14.0728C67.5267 13.8166 67.7765 13.5471 68.0237 13.2724C68.0812 13.209 68.1386 13.1456 68.1961 13.0822L68.1561 12.8523H68.1586ZM68.3984 14.2604C67.7615 14.7412 67.1396 15.2405 66.5152 15.7345C66.2155 15.9723 65.9133 16.21 65.6111 16.4452L65.736 16.5165C66.0357 16.2999 66.3329 16.078 66.6301 15.8587C67.2345 15.4096 67.8364 14.9526 68.4383 14.4982L68.3984 14.2604ZM68.5582 15.2035C68.306 15.3752 68.0462 15.5417 67.7815 15.6843C67.207 15.9987 66.6651 16.358 66.1356 16.7437L66.2455 16.8071C66.765 16.4452 67.2994 16.1149 67.8439 15.8006C68.0937 15.6579 68.3384 15.502 68.5807 15.3409L68.5582 15.2035ZM68.6481 15.7345C68.2335 15.9696 67.8289 16.2233 67.4318 16.4927C67.1696 16.6697 66.9098 16.852 66.6526 17.0369L66.74 17.0871C66.9773 16.9286 67.2195 16.7727 67.4618 16.6222C67.8614 16.3738 68.2685 16.1387 68.6781 15.9168L68.6481 15.7345ZM68.773 16.4689C68.6306 16.5561 68.4883 16.6459 68.3459 16.7384C68.0038 16.9603 67.6691 17.1901 67.3369 17.4279L67.4093 17.4702C67.8614 17.1637 68.3234 16.8758 68.7955 16.601L68.773 16.4716V16.4689ZM68.8954 17.1901C68.8055 17.243 68.7156 17.2985 68.6257 17.3513C68.3984 17.4887 68.1736 17.6287 67.9513 17.774L68.1087 17.8638C68.3784 17.6921 68.6506 17.5283 68.9254 17.3645L68.8954 17.1901ZM59.9091 14.7888C59.9691 14.7412 60.0265 14.6937 60.084 14.6408C60.3862 14.3661 60.6334 13.9751 60.8232 13.6052C60.9706 13.3146 61.1279 12.9052 61.108 12.5697C61.108 12.5406 61.1005 12.5089 61.0955 12.4798C61.0655 12.3504 60.9856 12.2394 60.8957 12.1496C60.7758 12.0334 60.6284 11.9462 60.4786 11.8802C60.1264 11.7243 59.7143 11.6662 59.3322 11.6715L59.3996 11.7401C59.7418 11.7534 60.0964 11.8247 60.4036 11.9726C60.6509 12.0915 60.8932 12.2711 60.9631 12.567C61.043 12.8999 60.8757 13.2882 60.7408 13.5788C60.576 13.9302 60.3412 14.3449 60.064 14.6091C60.0165 14.654 59.9691 14.6963 59.9191 14.7359L59.9116 14.7861L59.9091 14.7888Z" fill="#B7805C"/>
</g>
<path style="mix-blend-mode:multiply" fill-rule="evenodd" clip-rule="evenodd" d="M64.5398 3.19397C64.29 3.2653 64.0427 3.34191 63.798 3.42909C63.7805 3.43437 63.7605 3.4423 63.743 3.45022L63.2385 4.55449C63.5582 4.4541 63.8754 4.34579 64.1926 4.23219C64.4274 4.14765 64.6621 4.05783 64.8944 3.96537L64.5423 3.19397H64.5398Z" fill="url(#paint2_radial_2005_158)"/>
<path style="mix-blend-mode:multiply" fill-rule="evenodd" clip-rule="evenodd" d="M64.6995 6.84504C64.2599 6.92958 63.8153 6.99298 63.3708 7.04053C62.9312 7.08809 62.4916 7.12243 62.052 7.15413L61.8822 7.52398C62.6564 7.49756 63.4332 7.51077 64.2099 7.47379C64.9542 7.43944 65.696 7.38925 66.4378 7.33906L66.0956 6.59143C65.6311 6.67333 65.164 6.75522 64.6995 6.84504Z" fill="url(#paint3_radial_2005_158)"/>
<path style="mix-blend-mode:multiply" fill-rule="evenodd" clip-rule="evenodd" d="M65.696 9.05629C65.1665 9.08535 64.637 9.1329 64.1075 9.1329C63.7579 9.1329 63.4082 9.09856 63.061 9.04836C62.7014 8.99817 62.3442 8.93212 61.9846 8.86872C61.4576 8.7789 60.9256 8.69436 60.3911 8.68115C59.6693 8.6653 58.9675 8.73927 58.2707 8.93476C57.8636 9.051 57.469 9.20423 57.0844 9.38387L57.7362 10.0443C58.1009 9.89109 58.478 9.76693 58.8651 9.69031C59.2747 9.61106 59.6768 9.58728 60.0914 9.6137C60.4711 9.63748 60.8507 9.69824 61.2253 9.76693C61.6524 9.84618 62.077 9.93336 62.5041 10.0047C62.7339 10.0443 62.9636 10.0813 63.1934 10.1236C63.4656 10.1711 63.7354 10.2213 64.0051 10.2821C64.115 10.3058 64.2274 10.3323 64.3373 10.3613C64.4172 10.3825 64.5021 10.4062 64.5796 10.4379C64.6645 10.4723 64.7444 10.5225 64.8118 10.5885C64.8768 10.6519 64.9317 10.7285 64.9667 10.8131C65.0016 10.895 65.0166 10.9821 65.0166 11.072C65.0166 11.1697 65.0016 11.2701 64.9717 11.3652C64.8943 11.6162 64.7469 11.8751 64.6095 12.097C64.4222 12.3981 64.2124 12.6861 63.9976 12.9661C63.8677 13.1326 63.7354 13.299 63.6005 13.4601C63.3233 13.7956 63.0361 14.1232 62.7413 14.4429C62.5091 14.6938 62.2743 14.9422 62.0295 15.1799C61.6474 15.5551 61.2553 15.8827 60.7957 16.1442C60.5884 16.2604 60.3761 16.3608 60.1589 16.4559C59.969 16.5378 59.7767 16.6144 59.5844 16.691L59.3971 17.7979C59.5519 17.7477 59.7093 17.6949 59.8641 17.6394C60.4436 17.4334 61.0605 17.1824 61.555 16.7967C61.7398 16.6514 61.9171 16.4929 62.087 16.3291C62.2793 16.1442 62.4641 15.9487 62.6439 15.7506C63.0386 15.3147 63.4157 14.8576 63.7878 14.398C64.095 14.0176 64.3997 13.6319 64.7044 13.2488C64.9792 12.9054 65.2539 12.5646 65.5411 12.2343C65.691 12.0626 65.8433 11.8909 65.9932 11.7166C66.1905 11.4841 66.3853 11.249 66.5701 11.0059C66.6675 10.8765 66.7624 10.747 66.8523 10.6123C66.9473 10.4723 67.0372 10.3296 67.1171 10.1817C67.177 10.0707 67.2345 9.95185 67.2744 9.83297C67.3294 9.67182 67.3618 9.47897 67.2719 9.32575C67.162 9.13554 66.9073 9.08006 66.7125 9.05629C66.5626 9.03779 66.4078 9.03251 66.2579 9.03515C66.0706 9.03515 65.8833 9.04572 65.6985 9.05629H65.696Z" fill="url(#paint4_radial_2005_158)"/>
<path style="mix-blend-mode:multiply" fill-rule="evenodd" clip-rule="evenodd" d="M60.7409 13.5789C60.8782 13.2857 61.0431 12.9 60.9631 12.5671C60.8932 12.2712 60.6534 12.0916 60.4037 11.9727C60.0965 11.8248 59.7393 11.7534 59.3997 11.7402L60.2763 12.6305L59.9192 14.736C59.9691 14.6964 60.0166 14.6541 60.064 14.6092C60.3412 14.345 60.576 13.9329 60.7409 13.5789Z" fill="url(#paint5_radial_2005_158)"/>
<path style="mix-blend-mode:multiply" fill-rule="evenodd" clip-rule="evenodd" d="M68.501 10.9556C67.2547 12.184 66.0509 13.46 64.8745 14.7597C64.5548 15.1111 64.2351 15.4651 63.908 15.8085L64.2027 15.6421L64.8096 15.9855L64.8221 15.975C65.3241 15.4968 65.8286 15.0213 66.3731 14.5959C66.6528 14.3767 66.9175 14.1442 67.1748 13.8959C67.437 13.6423 67.6868 13.3728 67.9315 13.1007C68.009 13.0162 68.0864 12.9316 68.1638 12.8497L68.1264 12.6305L71.9526 8.74968C72.0101 8.69156 71.9576 8.52513 71.8802 8.51456L71.1284 8.40625C70.9486 8.65986 70.7388 8.89498 70.5215 9.11425C70.2718 9.36786 70.0095 9.60562 69.7448 9.84074C69.53 10.0309 69.3152 10.2185 69.1004 10.4087C68.8981 10.5884 68.6983 10.7706 68.5035 10.9582L68.501 10.9556Z" fill="url(#paint6_radial_2005_158)"/>
<path style="mix-blend-mode:multiply" fill-rule="evenodd" clip-rule="evenodd" d="M68.6807 15.9143C68.2686 16.1362 67.864 16.3713 67.4644 16.6196C67.2221 16.7702 66.9823 16.9261 66.7426 17.0846L67.3395 17.4227C67.6716 17.1876 68.0063 16.9551 68.3485 16.7332C68.4909 16.6408 68.6332 16.5536 68.7756 16.4638L68.6807 15.9116V15.9143Z" fill="url(#paint7_radial_2005_158)"/>
<g style="mix-blend-mode:screen" opacity="0.5">
<path fill-rule="evenodd" clip-rule="evenodd" d="M57.9935 8.91873C58.7752 8.66512 59.5569 8.56473 60.3786 8.58322C60.8856 8.59379 61.3877 8.65191 61.8922 8.71003C62.569 8.78928 63.608 8.94251 64.2524 8.93986C64.4672 8.93986 64.6745 8.93194 64.8818 8.92137C63.1509 8.90024 62.1394 8.54624 60.6309 8.48284C59.5694 8.43793 58.8501 8.59643 57.991 8.91609L57.9935 8.91873Z" fill="#CA9E67"/>
</g>
<g style="mix-blend-mode:screen" opacity="0.5">
<path fill-rule="evenodd" clip-rule="evenodd" d="M58.7628 10.5249C59.8193 10.3902 60.9232 10.7468 62.0671 11.2514C62.2944 11.3518 62.5366 11.4892 62.6915 11.7005C62.5341 11.4416 62.2344 11.254 61.8498 11.0982C61.3153 10.8816 60.7559 10.6491 60.1889 10.5461C59.5695 10.4325 59.2748 10.4325 58.7628 10.5249Z" fill="#CA9E67"/>
</g>
<g style="mix-blend-mode:screen" opacity="0.5">
<path fill-rule="evenodd" clip-rule="evenodd" d="M68.366 10.8947C68.5483 10.7151 68.7381 10.5434 68.9279 10.3743C69.1327 10.192 69.34 10.015 69.5423 9.83273C69.7971 9.60817 70.0493 9.37834 70.2891 9.1353C70.3466 9.07718 70.4015 9.01906 70.4564 8.96094C70.0468 9.28852 69.5698 9.59761 69.4574 9.71913C69.3176 9.86971 68.4409 10.7547 67.9814 11.1985C66.5153 12.6145 65.5737 13.4837 64.2775 15.2246C64.4748 15.0001 64.6721 14.7781 64.8719 14.5562C66.0058 13.304 67.1622 12.0782 68.361 10.8974L68.366 10.8947Z" fill="#CA9E67"/>
</g>
<path style="mix-blend-mode:multiply" fill-rule="evenodd" clip-rule="evenodd" d="M60.2788 12.6277L59.4022 11.7374L59.3347 11.6687L58.4906 10.8128L58.2983 10.6173L57.7813 10.0916L57.7388 10.0467L57.0869 9.38622L57.0145 9.31225L56.4575 8.74691C56.4575 8.74691 56.4426 8.72578 56.4401 8.71521C56.5 9.05336 56.9671 9.93835 57.017 9.98855L60.1864 13.2036L60.2838 12.6277H60.2788Z" fill="url(#paint8_radial_2005_158)"/>
<path style="mix-blend-mode:multiply" fill-rule="evenodd" clip-rule="evenodd" d="M59.8643 18.8466L64.2001 16.3871V15.6421L63.9054 15.8085L63.6007 15.9829L59.5297 18.2918C59.4722 18.3235 59.3673 18.2575 59.3448 18.1861C59.3973 18.3526 59.8094 18.8783 59.8668 18.8466H59.8643Z" fill="url(#paint9_radial_2005_158)"/>
<path style="mix-blend-mode:multiply" fill-rule="evenodd" clip-rule="evenodd" d="M64.2001 16.3871L68.5359 18.8466C68.5933 18.8783 69.0054 18.3552 69.0578 18.1888C69.0329 18.2601 68.9305 18.3261 68.873 18.2944L68.1113 17.8612L67.9539 17.7714L67.4119 17.4649L67.3395 17.4227L66.7426 17.0845L66.6552 17.0343L66.2481 16.8045L66.1382 16.7411L65.7386 16.5139L65.6137 16.4425L64.9518 16.0674L64.8095 15.9855L64.2026 15.6421V16.3871H64.2001Z" fill="url(#paint10_radial_2005_158)"/>
<path style="mix-blend-mode:multiply" fill-rule="evenodd" clip-rule="evenodd" d="M68.2213 13.2036L71.3907 9.98855C71.4407 9.93835 71.9077 9.05336 71.9677 8.71521C71.9627 8.72842 71.9577 8.73899 71.9502 8.74691L68.1239 12.6277L68.1614 12.847L68.2013 13.0768L68.2238 13.2036H68.2213Z" fill="url(#paint11_radial_2005_158)"/>
<g style="mix-blend-mode:screen" opacity="0.5">
<path fill-rule="evenodd" clip-rule="evenodd" d="M56.627 8.49864L61.8619 7.90952L62.0342 7.51854C62.7036 7.50005 63.3754 7.50533 64.0448 7.48156C63.7576 7.47363 63.4704 7.46571 63.1806 7.44457C62.8809 7.42344 62.5812 7.4023 62.284 7.38381C62.2415 7.38117 62.1516 7.35739 62.1416 7.33362C62.1317 7.30984 62.1616 7.23587 62.1791 7.1936L63.0607 5.19377C63.1906 5.15415 63.323 5.11188 63.4529 5.06961C63.7176 4.98507 63.9824 4.89525 64.2446 4.80279C64.1347 4.83449 63.2206 5.11452 63.1681 5.03527C63.1532 5.01413 63.1906 4.89525 63.2106 4.85034L64.1147 2.80296C64.1622 2.69729 64.2546 2.69201 64.3295 2.72899L64.317 2.70257C64.2821 2.6286 64.1172 2.6286 64.0823 2.70257L61.7745 7.75102L56.6245 8.496L56.627 8.49864Z" fill="#CA9E67"/>
</g>
</g>
<path fill-rule="evenodd" clip-rule="evenodd" d="M39.5585 3.03959L37.0066 8.70956L30.4228 8.23946C30.4525 8.60722 31.054 9.76488 31.1166 9.82884L35.3509 14.1877L34.3444 17.0306L34.5946 17.0562L33.8948 19.7041C33.8531 19.8129 34.4457 20.5932 34.5201 20.5516L39.6895 17.5743L44.8589 20.5516C44.9363 20.5963 45.5259 19.8129 45.4842 19.7041L44.0281 14.1877L48.2624 9.82884C48.325 9.76488 48.9265 8.60722 48.9562 8.23946L42.3724 8.70956L41.628 7.05622L42.4737 6.88353L39.8205 3.03959C39.7937 3.00121 39.7461 2.97563 39.6925 2.97563C39.6389 2.97563 39.5823 2.99802 39.5644 3.03959H39.5585Z" fill="white"/>
<path fill-rule="evenodd" clip-rule="evenodd" d="M39.5465 1.01221L36.795 7.1235L30.5328 8.04451C30.4405 8.0573 30.378 8.26197 30.4465 8.32913L35.0084 13.0269L34.3384 17.034C34.6957 16.8357 35.0322 16.6022 35.3508 16.3368C35.0084 16.679 34.7195 16.9412 34.3086 17.2098L33.8888 19.7074C33.8709 19.8066 34.0317 19.9313 34.1151 19.8833L39.6834 16.6758L45.2518 19.8833C45.3352 19.9313 45.493 19.8066 45.4781 19.7074L44.3585 13.0269L48.9204 8.32913C48.9889 8.25877 48.9264 8.0573 48.8341 8.04451L41.1991 6.92203C41.622 6.91244 42.0418 6.90284 42.4647 6.88685L39.8204 1.01541C39.7787 0.925869 39.5822 0.925869 39.5405 1.01541L39.5465 1.01221Z" fill="white"/>
<path fill-rule="evenodd" clip-rule="evenodd" d="M40.0437 1.49187C39.7637 1.58141 39.4838 1.67096 39.2039 1.77009L39.1414 1.9076C39.1622 1.89801 39.1861 1.89161 39.2069 1.88202C39.4987 1.77649 39.7935 1.68375 40.0913 1.5974L40.0407 1.48867L40.0437 1.49187ZM38.4952 3.34668C38.5578 3.32749 38.6173 3.30511 38.6798 3.28592C39.3082 3.07805 39.9335 2.86059 40.5558 2.63354L40.5112 2.5376C40.2342 2.64953 39.9543 2.75506 39.6744 2.86059C39.2992 2.99811 38.9181 3.12922 38.5369 3.25074L38.4922 3.34668H38.4952ZM40.794 3.1644C40.133 3.41704 39.466 3.65688 38.793 3.87434C38.5846 3.9415 38.3761 4.00866 38.1677 4.07582L38.1111 4.19734C38.6977 4.02465 39.2784 3.83597 39.8561 3.64089C40.1896 3.52897 40.5231 3.41384 40.8536 3.29552L40.794 3.1644ZM41.1603 3.97988C40.8893 4.08541 40.6213 4.18774 40.3504 4.28688C39.9573 4.43079 39.5642 4.5683 39.1652 4.69622C38.8466 4.79855 38.522 4.89449 38.1945 4.97124C38.0367 5.00642 37.8788 5.0416 37.721 5.07038L37.7121 5.08957C37.8878 5.05759 38.0635 5.02241 38.2362 4.98084C38.9151 4.82414 39.5761 4.58109 40.2342 4.34125C40.5469 4.22612 40.8596 4.11419 41.1722 4.00226L41.1633 3.97988H41.1603ZM37.3964 5.78672C37.7657 5.72596 38.1319 5.6556 38.4982 5.57566C38.9627 5.47652 39.4243 5.36139 39.8858 5.24307C40.13 5.17911 40.3772 5.11515 40.6213 5.05119C40.9251 4.97124 41.2318 4.89449 41.5385 4.81774L41.5027 4.74099C41.202 4.81774 40.8983 4.89449 40.5975 4.97124C39.7637 5.1887 38.924 5.36779 38.0754 5.5085C37.8759 5.54048 37.6764 5.57246 37.4768 5.60124L37.3935 5.78352L37.3964 5.78672ZM41.866 5.55007C41.3271 5.64921 40.7881 5.74515 40.2521 5.85388C39.2218 6.05855 38.1826 6.21525 37.1433 6.34956L37.1195 6.40073C37.6436 6.36235 38.1677 6.32078 38.6918 6.26322C39.2218 6.20565 39.7518 6.1289 40.2759 6.02657C40.8298 5.91784 41.3836 5.8187 41.9405 5.71956L41.866 5.55007ZM34.3384 17.034C34.7315 16.8165 35.0976 16.5542 35.446 16.2568C35.9195 15.8475 36.3513 15.3806 36.7562 14.8945C37.0272 14.5683 37.2863 14.2069 37.5066 13.8424C37.7359 13.465 38.1736 12.6655 38.0307 12.1986C37.8997 11.7701 37.5036 11.527 37.1404 11.364C35.5741 10.6636 34.0703 10.1967 32.644 10.5964L32.8732 10.8331C33.0519 10.7947 33.2336 10.7723 33.4212 10.7595C34.6033 10.6828 35.7944 11.1177 36.8694 11.6006C37.2118 11.7541 37.4471 11.9812 37.5662 12.3649C37.6972 12.787 37.4798 13.2987 37.2922 13.6601C36.5984 14.9904 35.6098 16.0458 34.38 16.7813L34.3353 17.0403L34.3384 17.034ZM34.1835 17.9485C34.4127 17.8558 34.642 17.7631 34.8683 17.6639C35.1274 17.5488 35.3835 17.4273 35.6277 17.2866C36.1756 16.97 36.6431 16.5734 37.0987 16.1193C37.3905 15.8315 37.6704 15.5309 37.9473 15.2271C38.2987 14.8401 38.6411 14.4436 38.9717 14.0374C39.1325 13.8392 39.2903 13.6409 39.4451 13.4394C39.7012 13.1004 39.9513 12.7519 40.1747 12.3873C40.3385 12.1219 40.5112 11.8053 40.6064 11.5015C40.6422 11.3895 40.66 11.268 40.66 11.1465C40.66 11.041 40.6422 10.9322 40.6005 10.8331C40.5588 10.7308 40.4933 10.638 40.4159 10.5613C40.3355 10.4813 40.2402 10.4206 40.1389 10.379C40.0466 10.3406 39.9454 10.3118 39.8501 10.2862C39.7191 10.2511 39.5851 10.2191 39.4541 10.1903C39.1325 10.1199 38.8079 10.0592 38.4863 9.99842C38.2123 9.95045 37.9384 9.90249 37.6644 9.85452C37.1552 9.76817 36.649 9.66264 36.1398 9.5667C35.6932 9.48355 35.2406 9.41 34.7879 9.38122C34.2936 9.34924 33.8112 9.37802 33.3259 9.47396C32.8643 9.5667 32.4147 9.717 31.9799 9.90249L32.0305 9.95685C32.6261 9.74899 33.2425 9.57949 33.8619 9.51234C34.4008 9.45157 34.907 9.47716 35.4401 9.5699C35.7765 9.62746 36.1101 9.71061 36.4436 9.78736C36.8247 9.8769 37.2029 9.96325 37.587 10.0272C37.8133 10.0656 38.0396 10.1104 38.263 10.1551C38.5697 10.2191 38.8794 10.2862 39.1831 10.3662C39.3111 10.3982 39.4362 10.4333 39.5613 10.4717C39.6566 10.5005 39.7518 10.5325 39.8441 10.5677C40.2521 10.7308 40.404 11.1625 40.27 11.591C40.1806 11.882 40.0496 12.1698 39.9097 12.4353C39.725 12.7838 39.5106 13.1196 39.2754 13.4298C38.9508 13.8552 38.6233 14.2741 38.2808 14.6802C37.992 15.0224 37.6972 15.3582 37.3875 15.678C36.8604 16.2184 36.3036 16.6981 35.6783 17.0979C35.2048 17.4049 34.7075 17.6543 34.1954 17.8782L34.1835 17.9421V17.9485ZM33.9512 19.3333C34.1745 19.2533 34.4008 19.1702 34.6212 19.0806C35.2822 18.8216 35.9582 18.5242 36.5567 18.1244C36.8872 17.9038 37.194 17.6415 37.4828 17.3633C37.7925 17.0659 38.0843 16.7461 38.3702 16.4199C38.8466 15.8699 39.2962 15.2942 39.7608 14.7346C40.3474 14.0278 40.931 13.3147 41.5266 12.6175C42.14 11.9012 43.6497 10.1167 43.7301 9.17975C43.739 9.06462 43.7301 8.9463 43.6854 8.84077C43.5455 8.51138 43.0988 8.45701 42.807 8.45062C41.7439 8.42503 40.794 8.55935 39.7459 8.56254C38.9776 8.56254 37.7389 8.38026 36.9319 8.28432C36.3304 8.21397 35.7319 8.14361 35.1274 8.13082C34.0792 8.10524 33.0876 8.24914 32.0901 8.60412C31.7566 8.72244 31.432 8.85995 31.1104 9.01346L31.1968 9.103C31.6553 8.88234 32.1229 8.69686 32.6112 8.55935C33.445 8.3195 34.2787 8.22996 35.1393 8.25234C35.7765 8.26833 36.4108 8.36747 37.0391 8.4794C37.4649 8.55295 37.8937 8.6329 38.3225 8.69686C38.7364 8.75762 39.1533 8.79919 39.5702 8.79919C40.2015 8.79919 40.8328 8.74163 41.464 8.70645C41.6874 8.69366 41.9107 8.68407 42.1311 8.68087C42.3097 8.68087 42.4943 8.68407 42.673 8.70645C42.9023 8.73523 43.206 8.80559 43.34 9.03264C43.4472 9.21812 43.4085 9.45158 43.343 9.64665C43.2954 9.79376 43.2269 9.93447 43.1554 10.0688C43.0601 10.2479 42.9499 10.4238 42.8398 10.59C42.7326 10.7531 42.6194 10.9098 42.5033 11.0665C42.2829 11.3608 42.0507 11.6454 41.8154 11.9268C41.6367 12.1379 41.4551 12.3425 41.2764 12.5536C40.934 12.9533 40.6064 13.3659 40.2789 13.7816C39.9126 14.2453 39.5523 14.7122 39.1861 15.1727C38.7454 15.7292 38.2957 16.2824 37.8223 16.8101C37.6079 17.0499 37.3875 17.2866 37.1582 17.5104C36.9557 17.7087 36.7473 17.9006 36.524 18.0765C35.9344 18.5434 35.1989 18.8504 34.508 19.0966C34.3234 19.1638 34.1388 19.2277 33.9512 19.2885L33.9452 19.3333H33.9512ZM39.335 16.8772C39.728 16.4615 40.1092 16.033 40.4873 15.6076C41.8928 14.031 43.3251 12.4864 44.811 11.0026C45.0403 10.7723 45.2815 10.5517 45.5227 10.3374C45.7788 10.1072 46.0349 9.8801 46.291 9.64985C46.6066 9.36523 46.9193 9.07741 47.217 8.77041C47.4731 8.50498 47.7262 8.22036 47.9406 7.91336L47.7113 7.87818C47.6994 7.89737 47.6875 7.91336 47.6756 7.92935C47.4612 8.24275 47.2081 8.53056 46.9461 8.79919C46.6602 9.0934 46.3594 9.37163 46.0557 9.64345C45.8115 9.86411 45.5644 10.0784 45.3232 10.299C45.0969 10.5037 44.8706 10.7116 44.6532 10.929C43.2239 12.3585 41.8422 13.8456 40.4933 15.3582C40.1657 15.726 39.8441 16.1001 39.5196 16.4711C39.3379 16.6789 39.1563 16.8836 38.9717 17.0851L39.335 16.874V16.8772ZM42.3514 6.62458C41.467 6.68535 40.5826 6.74611 39.6953 6.78768C38.7722 6.83245 37.8461 6.81326 36.92 6.84844L36.8247 7.05951C37.2178 7.03712 37.6079 7.01793 37.9979 7.00194C38.9717 6.96357 39.9454 6.94758 40.9191 6.92839C41.4343 6.9188 41.9524 6.906 42.4675 6.88682L42.3484 6.62458H42.3514ZM44.406 13.2955C44.3137 13.3947 44.2214 13.497 44.1291 13.5993C43.8373 13.9287 43.5395 14.2549 43.2269 14.5619C42.9231 14.8625 42.6045 15.1439 42.271 15.4094C41.6219 15.9242 41.0233 16.4999 40.4218 17.0787L40.4069 17.0915L40.5767 17.1906C40.7762 17.0083 40.9757 16.8229 41.1782 16.6438C41.5712 16.292 41.9673 15.9466 42.3782 15.6204C42.7117 15.355 43.0303 15.0736 43.337 14.773C43.6527 14.4628 43.9505 14.1366 44.2453 13.804C44.3137 13.7272 44.3822 13.6505 44.4507 13.5737L44.4031 13.2955H44.406ZM44.6919 15C43.9326 15.5821 43.1911 16.1865 42.4467 16.7845C42.0894 17.0723 41.7291 17.3601 41.3687 17.6447L41.5176 17.7311C41.875 17.4688 42.2293 17.2002 42.5837 16.9348C43.3043 16.3911 44.0219 15.8379 44.7396 15.2878L44.6919 15ZM44.8825 16.1417C44.5817 16.3496 44.2721 16.551 43.9564 16.7237C43.2715 17.1043 42.6254 17.5392 41.9941 18.0061L42.1251 18.0828C42.7445 17.6447 43.3817 17.245 44.0309 16.8644C44.3286 16.6917 44.6204 16.5031 44.9093 16.308L44.8825 16.1417ZM44.9897 16.7845C44.4954 17.0691 44.013 17.3761 43.5395 17.7023C43.2269 17.9166 42.9172 18.1372 42.6105 18.3611L42.7147 18.4218C42.9976 18.23 43.2864 18.0413 43.5753 17.859C44.0517 17.5584 44.5371 17.2738 45.0254 17.0051L44.9897 16.7845ZM45.1386 17.6735C44.9688 17.779 44.7991 17.8878 44.6294 17.9997C44.2214 18.2683 43.8224 18.5466 43.4264 18.8344L43.5127 18.8855C44.0517 18.5146 44.6026 18.166 45.1654 17.8334L45.1386 17.6767V17.6735ZM45.2845 18.5466C45.1773 18.6105 45.0701 18.6777 44.9629 18.7416C44.6919 18.9079 44.4239 19.0774 44.1589 19.2533L44.3465 19.362C44.6681 19.1542 44.9927 18.9559 45.3202 18.7576L45.2845 18.5466ZM34.5706 15.6396C34.642 15.5821 34.7105 15.5245 34.779 15.4605C35.1393 15.1279 35.4341 14.6546 35.6604 14.2069C35.8361 13.8552 36.0237 13.3595 35.9999 12.9533C35.9999 12.9182 35.9909 12.8798 35.985 12.8446C35.9493 12.6879 35.854 12.5536 35.7468 12.4449C35.6038 12.3041 35.4282 12.1986 35.2495 12.1187C34.8296 11.93 34.3383 11.8596 33.8827 11.866L33.9631 11.9492C34.3711 11.9652 34.7939 12.0515 35.1602 12.2306C35.4549 12.3745 35.7438 12.592 35.8272 12.9501C35.9225 13.3531 35.7229 13.8232 35.5622 14.175C35.3656 14.6003 35.0857 15.1024 34.7552 15.4222C34.6986 15.4765 34.642 15.5277 34.5825 15.5757L34.5735 15.6364L34.5706 15.6396Z" fill="white"/>
<path fill-rule="evenodd" clip-rule="evenodd" d="M40.0915 1.60372C39.7937 1.69007 39.4989 1.78281 39.2071 1.88834C39.1862 1.89474 39.1624 1.90433 39.1416 1.91392L38.54 3.25067C38.9212 3.12915 39.2994 2.99803 39.6775 2.86052C39.9575 2.75818 40.2374 2.64945 40.5143 2.53753L40.0944 1.60372H40.0915Z" fill="white"/>
<path fill-rule="evenodd" clip-rule="evenodd" d="M40.2818 6.02341C39.7577 6.12574 39.2277 6.20249 38.6977 6.26006C38.1736 6.31762 37.6495 6.35919 37.1254 6.39757L36.9229 6.84528C37.846 6.8133 38.7721 6.82929 39.6982 6.78452C40.5855 6.74295 41.4699 6.68219 42.3543 6.62143L41.9464 5.71641C41.3925 5.81554 40.8357 5.91468 40.2818 6.02341Z" fill="white"/>
<path fill-rule="evenodd" clip-rule="evenodd" d="M41.4701 8.70011C40.8388 8.73529 40.2075 8.79285 39.5763 8.79285C39.1594 8.79285 38.7425 8.75128 38.3286 8.69051C37.8998 8.62975 37.474 8.5498 37.0452 8.47305C36.4169 8.36432 35.7826 8.26199 35.1454 8.246C34.2848 8.22681 33.4481 8.31635 32.6173 8.553C32.1319 8.69371 31.6614 8.87919 31.2028 9.09665L31.98 9.89614C32.4148 9.71066 32.8644 9.56036 33.326 9.46762C33.8143 9.37168 34.2937 9.3429 34.788 9.37488C35.2407 9.40366 35.6933 9.47721 36.1399 9.56036C36.6491 9.6563 37.1554 9.76183 37.6645 9.84817C37.9385 9.89614 38.2125 9.94091 38.4864 9.99208C38.811 10.0496 39.1326 10.1104 39.4542 10.184C39.5852 10.2127 39.7192 10.2447 39.8502 10.2799C39.9455 10.3055 40.0467 10.3343 40.139 10.3726C40.2403 10.4142 40.3356 10.475 40.416 10.5549C40.4934 10.6317 40.5589 10.7244 40.6006 10.8267C40.6423 10.9259 40.6602 11.0314 40.6602 11.1401C40.6602 11.2585 40.6423 11.38 40.6066 11.4951C40.5142 11.7989 40.3386 12.1123 40.1748 12.381C39.9515 12.7455 39.7013 13.0941 39.4452 13.4331C39.2904 13.6345 39.1326 13.836 38.9718 14.0311C38.6412 14.4372 38.2988 14.8338 37.9474 15.2207C37.6705 15.5245 37.3906 15.8251 37.0988 16.113C36.6432 16.5671 36.1757 16.9636 35.6278 17.2802C35.3806 17.4209 35.1275 17.5424 34.8684 17.6576C34.6421 17.7567 34.4127 17.8494 34.1835 17.9421L33.9602 19.2821C34.1449 19.2214 34.3325 19.1574 34.5171 19.0903C35.2079 18.8408 35.9434 18.537 36.533 18.0701C36.7534 17.8942 36.9648 17.7023 37.1673 17.5041C37.3965 17.2802 37.6169 17.0436 37.8313 16.8037C38.3018 16.2761 38.7514 15.7228 39.1951 15.1664C39.5614 14.7059 39.9247 14.239 40.2879 13.7753C40.6155 13.3595 40.943 12.947 41.2855 12.5472C41.4641 12.3394 41.6458 12.1315 41.8245 11.9204C42.0597 11.639 42.292 11.3544 42.5123 11.0602C42.6284 10.9035 42.7416 10.7468 42.8488 10.5837C42.962 10.4142 43.0691 10.2415 43.1644 10.0624C43.2359 9.92812 43.3044 9.78421 43.352 9.64031C43.4175 9.44523 43.4563 9.21178 43.3491 9.0263C43.218 8.79605 42.9143 8.72889 42.682 8.70011C42.5034 8.67772 42.3188 8.67133 42.1401 8.67452C41.9168 8.67452 41.6934 8.68732 41.4731 8.70011H41.4701Z" fill="white"/>
<path fill-rule="evenodd" clip-rule="evenodd" d="M35.5622 14.175C35.7259 13.82 35.9225 13.3531 35.8272 12.9501C35.7438 12.592 35.4579 12.3745 35.1602 12.2306C34.7939 12.0515 34.3681 11.9652 33.9631 11.9492L35.0084 13.0269L34.5825 15.5757C34.642 15.5277 34.6986 15.4765 34.7552 15.4222C35.0857 15.1024 35.3656 14.6035 35.5622 14.175Z" fill="white"/>
<path fill-rule="evenodd" clip-rule="evenodd" d="M44.8143 10.9993C43.3284 12.4864 41.8931 14.031 40.4906 15.6044C40.1095 16.0297 39.7283 16.4583 39.3382 16.874L39.6896 16.6725L40.4132 17.0882L40.4281 17.0755C41.0266 16.4966 41.6281 15.921 42.2773 15.4061C42.6108 15.1407 42.9264 14.8593 43.2331 14.5587C43.5458 14.2517 43.8436 13.9255 44.1354 13.5961C44.2277 13.4937 44.32 13.3914 44.4123 13.2923L44.3676 13.0268L48.9295 8.32905C48.998 8.2587 48.9355 8.05723 48.8432 8.04444L47.9469 7.91332C47.7325 8.22032 47.4824 8.50494 47.2233 8.77037C46.9255 9.07738 46.6129 9.36519 46.2972 9.64981C46.0411 9.88006 45.785 10.1071 45.529 10.3374C45.2878 10.5548 45.0495 10.7755 44.8173 11.0025L44.8143 10.9993Z" fill="white"/>
<path fill-rule="evenodd" clip-rule="evenodd" d="M45.0284 17.0019C44.5371 17.2706 44.0547 17.5552 43.5783 17.8558C43.2894 18.0381 43.0036 18.2267 42.7177 18.4186L43.4294 18.828C43.8254 18.5433 44.2244 18.2619 44.6324 17.9933C44.8021 17.8814 44.9719 17.7758 45.1416 17.6671L45.0284 16.9987V17.0019Z" fill="white"/>
<path fill-rule="evenodd" clip-rule="evenodd" d="M32.2865 8.53371C33.2186 8.22671 34.1506 8.10518 35.1303 8.12757C35.7348 8.14036 36.3333 8.21072 36.9348 8.28107C37.7418 8.37701 38.9805 8.56249 39.7488 8.55929C40.0048 8.55929 40.252 8.5497 40.4992 8.53691C38.4356 8.51132 37.2296 8.0828 35.431 8.00605C34.1655 7.95168 33.3079 8.14356 32.2836 8.53051L32.2865 8.53371Z" fill="white"/>
<path fill-rule="evenodd" clip-rule="evenodd" d="M33.204 10.478C34.4636 10.315 35.7797 10.7467 37.1435 11.3575C37.4145 11.479 37.7033 11.6453 37.888 11.9011C37.7004 11.5877 37.343 11.3607 36.8845 11.172C36.2472 10.9098 35.5802 10.6284 34.9043 10.5036C34.1658 10.3661 33.8144 10.3661 33.204 10.478Z" fill="white"/>
<path fill-rule="evenodd" clip-rule="evenodd" d="M44.6534 10.9257C44.8708 10.7082 45.0971 10.5004 45.3234 10.2957C45.5676 10.075 45.8147 9.86077 46.0559 9.64011C46.3596 9.36829 46.6604 9.09007 46.9462 8.79586C47.0147 8.7255 47.0802 8.65515 47.1458 8.58479C46.6574 8.98134 46.0887 9.3555 45.9547 9.5026C45.7879 9.68489 44.7427 10.7562 44.1948 11.2935C42.4469 13.0076 41.3243 14.0597 39.7788 16.1671C40.0141 15.8953 40.2493 15.6267 40.4875 15.3581C41.8394 13.8422 43.2181 12.3584 44.6474 10.9289L44.6534 10.9257Z" fill="white"/>
<path fill-rule="evenodd" clip-rule="evenodd" d="M35.0112 13.0236L33.9661 11.9459L33.8857 11.8628L32.8792 10.8266L32.0335 9.95357L31.9829 9.89921L31.2057 9.09972L31.1193 9.01018L30.4553 8.32582C30.4553 8.32582 30.4374 8.30023 30.4345 8.28744C30.5059 8.69678 31.0628 9.76809 31.1223 9.82885L34.9011 13.7208L35.0172 13.0236H35.0112Z" fill="white"/>
<path fill-rule="evenodd" clip-rule="evenodd" d="M34.5171 20.5515L39.6865 17.5742V16.6724L39.335 16.874L38.9717 17.0851L34.1181 19.8799C34.0496 19.9183 33.9245 19.8384 33.8977 19.752C33.9603 19.9535 34.4516 20.59 34.5201 20.5516L34.5171 20.5515Z" fill="white"/>
<path fill-rule="evenodd" clip-rule="evenodd" d="M39.6865 17.5742L44.8558 20.5515C44.9243 20.5899 45.4157 19.9567 45.4782 19.7552C45.4484 19.8416 45.3263 19.9215 45.2578 19.8831L44.3496 19.3587L44.162 19.2499L43.5159 18.879L43.4294 18.828L42.7177 18.4186L42.6136 18.3577L42.1282 18.0795L41.9972 18.0027L41.5208 17.7277L41.3719 17.6414L40.5828 17.1873L40.4132 17.0882L39.6896 16.6725L39.6895 17.5743L39.6865 17.5742Z" fill="white"/>
<path fill-rule="evenodd" clip-rule="evenodd" d="M44.4808 13.7207L48.2596 9.82883C48.3191 9.76807 48.876 8.69676 48.9475 8.28742C48.9415 8.30341 48.9355 8.3162 48.9266 8.32579L44.3647 13.0236L44.4094 13.289L44.457 13.5672L44.4838 13.7207H44.4808Z" fill="white"/>
<path fill-rule="evenodd" clip-rule="evenodd" d="M30.6577 8.02524L36.8991 7.3121L37.1045 6.8388C37.9026 6.81641 38.7036 6.82281 39.5016 6.79403C39.1592 6.78443 38.8167 6.77484 38.4713 6.74926C38.114 6.72367 37.7567 6.69809 37.4023 6.6757C37.3517 6.6725 37.2445 6.64372 37.2326 6.61494C37.2207 6.58616 37.2564 6.49662 37.2772 6.44545L38.3284 4.0246C38.4832 3.97663 38.6411 3.92546 38.7959 3.8743C39.1115 3.77196 39.4272 3.66323 39.7398 3.5513C39.6088 3.58968 38.519 3.92866 38.4564 3.83272C38.4386 3.80714 38.4832 3.66323 38.5071 3.60887L39.585 1.13045C39.6416 1.00253 39.7518 0.996138 39.8411 1.04091L39.8262 1.00893C39.7845 0.919387 39.588 0.919387 39.5463 1.00893L36.7949 7.12022L30.6547 8.02204L30.6577 8.02524Z" fill="white"/>
<g filter="url(#filter1_dd_2005_158)">
<path fill-rule="evenodd" clip-rule="evenodd" d="M39.6967 4.38011L37.5563 9.06398L32.0342 8.67564C32.0592 8.97945 32.5637 9.93577 32.6161 9.98861L36.1677 13.5894L35.3235 15.9379L35.5333 15.959L34.9463 18.1464C34.9114 18.2363 35.4084 18.8808 35.4708 18.8465L39.8066 16.387L44.1424 18.8465C44.2073 18.8835 44.7019 18.2363 44.6669 18.1464L43.4456 13.5894L46.9971 9.98861C47.0496 9.93577 47.5541 8.97945 47.579 8.67564L42.0569 9.06398L41.4325 7.69818L42.1418 7.55553L39.9165 4.38011C39.894 4.3484 39.8541 4.32727 39.8091 4.32727C39.7642 4.32727 39.7167 4.34576 39.7017 4.38011H39.6967Z" fill="url(#paint12_linear_2005_158)"/>
<path fill-rule="evenodd" clip-rule="evenodd" d="M39.6864 2.70518L37.3787 7.75363L32.1263 8.51446C32.0489 8.52503 31.9964 8.6941 32.0539 8.74958L35.8801 12.6304L35.3182 15.9405C35.6179 15.7767 35.9001 15.5839 36.1674 15.3646C35.8801 15.6473 35.6379 15.8639 35.2932 16.0858L34.9411 18.149C34.9261 18.2309 35.0609 18.334 35.1309 18.2943L39.8013 15.6446L44.4718 18.2943C44.5417 18.334 44.6741 18.2309 44.6616 18.149L43.7225 12.6304L47.5488 8.74958C47.6062 8.69146 47.5538 8.52503 47.4764 8.51446L42.224 7.75363L41.0726 7.58719C41.4272 7.57927 41.7794 7.57134 42.1341 7.55813L39.9162 2.70782C39.8812 2.63385 39.7164 2.63385 39.6814 2.70782L39.6864 2.70518Z" fill="url(#paint13_radial_2005_158)"/>
<g style="mix-blend-mode:multiply" opacity="0.5">
<path fill-rule="evenodd" clip-rule="evenodd" d="M40.1035 3.10152C39.8688 3.17549 39.634 3.24946 39.3992 3.33135L39.3468 3.44495C39.3643 3.43703 39.3842 3.43174 39.4017 3.42382C39.6465 3.33664 39.8938 3.26003 40.1435 3.1887L40.101 3.09888L40.1035 3.10152ZM38.8048 4.63375C38.8573 4.6179 38.9072 4.59941 38.9597 4.58356C39.4866 4.41184 40.0111 4.2322 40.5331 4.04463L40.4957 3.96538C40.2634 4.05784 40.0286 4.14502 39.7938 4.2322C39.4792 4.3458 39.1595 4.45411 38.8398 4.5545L38.8023 4.63375H38.8048ZM40.7329 4.48317C40.1785 4.69187 39.619 4.89001 39.0546 5.06965C38.8797 5.12512 38.7049 5.1806 38.5301 5.23608L38.4826 5.33647C38.9746 5.19381 39.4617 5.03795 39.9462 4.8768C40.2259 4.78433 40.5057 4.68923 40.7829 4.59148L40.7329 4.48317ZM41.0401 5.15683C40.8129 5.244 40.5881 5.32854 40.3608 5.41044C40.0311 5.52932 39.7014 5.64291 39.3668 5.74858C39.0995 5.83312 38.8273 5.91237 38.5526 5.97578C38.4202 6.00484 38.2878 6.0339 38.1554 6.05767L38.148 6.07352C38.2953 6.04711 38.4427 6.01805 38.5875 5.9837C39.157 5.85426 39.7114 5.65348 40.2634 5.45535C40.5256 5.36024 40.7879 5.26778 41.0501 5.17532L41.0426 5.15683H41.0401ZM37.8832 6.64943C38.1929 6.59924 38.5001 6.54112 38.8073 6.47507C39.1969 6.39318 39.5841 6.29808 39.9712 6.20033C40.176 6.14749 40.3833 6.09466 40.5881 6.04182C40.8428 5.97578 41.1001 5.91237 41.3573 5.84897L41.3274 5.78557C41.0751 5.84897 40.8203 5.91237 40.5681 5.97578C39.8688 6.15542 39.1645 6.30336 38.4527 6.4196C38.2853 6.44601 38.118 6.47243 37.9506 6.49621L37.8807 6.64679L37.8832 6.64943ZM41.6321 6.45394C41.18 6.53584 40.7279 6.61509 40.2784 6.70491C39.4142 6.87398 38.5426 7.00343 37.6709 7.11439L37.6509 7.15665C38.0905 7.12495 38.5301 7.09061 38.9696 7.04306C39.4142 6.99551 39.8588 6.9321 40.2984 6.84757C40.7629 6.75775 41.2275 6.67585 41.6945 6.59395L41.6321 6.45394ZM35.3182 15.9406C35.6479 15.7609 35.9551 15.5443 36.2473 15.2986C36.6444 14.9605 37.0066 14.5748 37.3462 14.1732C37.5735 13.9038 37.7908 13.6052 37.9756 13.3041C38.1679 12.9924 38.5351 12.3319 38.4152 11.9462C38.3053 11.5922 37.9731 11.3914 37.6684 11.2567C36.3547 10.6781 35.0934 10.2924 33.8971 10.6227L34.0894 10.8182C34.2393 10.7865 34.3916 10.768 34.549 10.7574C35.5405 10.694 36.5395 11.0533 37.4411 11.4522C37.7284 11.579 37.9257 11.7666 38.0256 12.0836C38.1355 12.4323 37.9531 12.855 37.7958 13.1535C37.2139 14.2525 36.3847 15.1243 35.3532 15.7319L35.3157 15.9459L35.3182 15.9406ZM35.1883 16.6961C35.3806 16.6195 35.573 16.5429 35.7628 16.461C35.9801 16.3659 36.1949 16.2655 36.3997 16.1493C36.8592 15.8877 37.2513 15.5602 37.6335 15.185C37.8782 14.9473 38.113 14.6989 38.3453 14.448C38.64 14.1283 38.9272 13.8007 39.2044 13.4652C39.3393 13.3014 39.4717 13.1376 39.6015 12.9712C39.8163 12.6912 40.0261 12.4032 40.2134 12.1021C40.3508 11.8828 40.4957 11.6213 40.5756 11.3703C40.6056 11.2778 40.6205 11.1774 40.6205 11.0771C40.6205 10.9899 40.6056 10.9001 40.5706 10.8182C40.5356 10.7336 40.4807 10.657 40.4157 10.5936C40.3483 10.5276 40.2684 10.4774 40.1835 10.443C40.106 10.4113 40.0211 10.3876 39.9412 10.3664C39.8313 10.3374 39.7189 10.3109 39.609 10.2872C39.3393 10.229 39.0671 10.1789 38.7973 10.1287C38.5675 10.089 38.3378 10.0494 38.108 10.0098C37.6809 9.93845 37.2563 9.85127 36.8292 9.77202C36.4546 9.70333 36.075 9.64257 35.6953 9.6188C35.2807 9.59238 34.8761 9.61615 34.469 9.69541C34.0819 9.77202 33.7048 9.89618 33.3401 10.0494L33.3826 10.0943C33.8821 9.9226 34.3991 9.78259 34.9186 9.72711C35.3707 9.67691 35.7952 9.69805 36.2423 9.77466C36.5245 9.82221 36.8043 9.8909 37.084 9.9543C37.4037 10.0283 37.7209 10.0996 38.0431 10.1524C38.2329 10.1841 38.4227 10.2211 38.61 10.2581C38.8673 10.3109 39.127 10.3664 39.3818 10.4325C39.4891 10.4589 39.594 10.4879 39.6989 10.5196C39.7789 10.5434 39.8588 10.5698 39.9362 10.5989C40.2784 10.7336 40.4058 11.0903 40.2934 11.4443C40.2184 11.6847 40.1085 11.9224 39.9912 12.1417C39.8363 12.4297 39.6565 12.707 39.4592 12.9633C39.1869 13.3146 38.9122 13.6607 38.625 13.9962C38.3827 14.2789 38.1355 14.5563 37.8757 14.8205C37.4336 15.2669 36.9666 15.6632 36.4421 15.9934C36.045 16.247 35.6279 16.4531 35.1983 16.638L35.1883 16.6908V16.6961ZM34.9935 17.84C35.1808 17.774 35.3707 17.7053 35.5555 17.6313C36.1099 17.4173 36.6769 17.1716 37.1789 16.8414C37.4561 16.6591 37.7134 16.4425 37.9556 16.2127C38.2154 15.967 38.4601 15.7028 38.6999 15.4334C39.0995 14.979 39.4767 14.5035 39.8663 14.0411C40.3583 13.4573 40.8478 12.8682 41.3473 12.2923C41.8618 11.7005 43.1281 10.2264 43.1955 9.45236C43.203 9.35726 43.1955 9.25951 43.1581 9.17233C43.0407 8.90023 42.6661 8.85532 42.4213 8.85004C41.5297 8.8289 40.7329 8.93986 39.8538 8.9425C39.2094 8.9425 38.1704 8.79192 37.4936 8.71266C36.9891 8.65454 36.4871 8.59643 35.9801 8.58586C35.1009 8.56472 34.2692 8.6836 33.4325 8.97684C33.1528 9.07459 32.8806 9.18819 32.6108 9.31499L32.6833 9.38896C33.0679 9.20668 33.46 9.05345 33.8696 8.93986C34.5689 8.74172 35.2683 8.66775 35.9901 8.68625C36.5245 8.69946 37.0565 8.78135 37.5835 8.87381C37.9407 8.93457 38.3003 9.00062 38.66 9.05345C39.0071 9.10365 39.3568 9.13799 39.7064 9.13799C40.2359 9.13799 40.7654 9.09044 41.2949 9.06138C41.4822 9.05081 41.6695 9.04289 41.8543 9.04025C42.0042 9.04025 42.159 9.04289 42.3089 9.06138C42.5012 9.08516 42.756 9.14327 42.8684 9.33084C42.9583 9.48406 42.9258 9.67691 42.8709 9.83806C42.8309 9.95959 42.7734 10.0758 42.7135 10.1868C42.6336 10.3347 42.5412 10.48 42.4488 10.6174C42.3589 10.7521 42.2639 10.8816 42.1665 11.011C41.9817 11.2541 41.7869 11.4892 41.5896 11.7217C41.4397 11.896 41.2874 12.0651 41.1375 12.2394C40.8503 12.5697 40.5756 12.9105 40.3009 13.2539C39.9937 13.6369 39.6914 14.0226 39.3842 14.4031C39.0146 14.8627 38.6375 15.3198 38.2404 15.7557C38.0605 15.9538 37.8757 16.1493 37.6834 16.3342C37.5136 16.498 37.3387 16.6565 37.1514 16.8018C36.6569 17.1875 36.04 17.4411 35.4606 17.6445C35.3057 17.7 35.1509 17.7528 34.9935 17.803L34.9885 17.84H34.9935ZM39.5091 15.8111C39.8388 15.4677 40.1585 15.1137 40.4757 14.7623C41.6545 13.4599 42.8559 12.184 44.1022 10.9582C44.2945 10.768 44.4968 10.5857 44.6991 10.4087C44.9139 10.2185 45.1287 10.0309 45.3434 9.84071C45.6082 9.60559 45.8704 9.36783 46.1202 9.11421C46.335 8.89495 46.5473 8.65983 46.7271 8.40622L46.5348 8.37716C46.5248 8.39301 46.5148 8.40622 46.5048 8.41943C46.325 8.67832 46.1127 8.91608 45.8929 9.13799C45.6531 9.38104 45.4009 9.61087 45.1461 9.83542C44.9413 10.0177 44.734 10.1947 44.5317 10.377C44.3419 10.5461 44.1521 10.7178 43.9698 10.8974C42.771 12.0783 41.6121 13.3067 40.4807 14.5563C40.2059 14.8601 39.9362 15.1692 39.664 15.4756C39.5116 15.6473 39.3593 15.8164 39.2044 15.9828L39.5091 15.8085V15.8111ZM42.0392 7.34158C41.2974 7.39177 40.5556 7.44197 39.8113 7.47631C39.0371 7.51329 38.2603 7.49744 37.4836 7.5265L37.4037 7.70086C37.7334 7.68237 38.0605 7.66652 38.3877 7.65331C39.2044 7.62161 40.0211 7.6084 40.8378 7.59255C41.2699 7.58462 41.7045 7.57406 42.1366 7.55821L42.0367 7.34158H42.0392ZM43.7625 12.8523C43.6851 12.9342 43.6076 13.0188 43.5302 13.1033C43.2855 13.3754 43.0357 13.6449 42.7734 13.8985C42.5187 14.1468 42.2515 14.3793 41.9717 14.5986C41.4273 15.0239 40.9252 15.4994 40.4207 15.9776L40.4083 15.9881L40.5506 16.07C40.7179 15.9194 40.8853 15.7662 41.0551 15.6183C41.3848 15.3277 41.717 15.0424 42.0616 14.7729C42.3414 14.5536 42.6086 14.3212 42.8659 14.0728C43.1306 13.8166 43.3804 13.5471 43.6276 13.2724C43.6851 13.209 43.7425 13.1456 43.8 13.0822L43.76 12.8523H43.7625ZM44.0023 14.2604C43.3654 14.7412 42.7435 15.2405 42.1191 15.7345C41.8194 15.9723 41.5172 16.21 41.215 16.4452L41.3398 16.5165C41.6396 16.2999 41.9368 16.078 42.234 15.8587C42.8384 15.4096 43.4403 14.9526 44.0422 14.4982L44.0023 14.2604ZM44.1621 15.2035C43.9098 15.3752 43.6501 15.5417 43.3854 15.6843C42.8109 15.9987 42.2689 16.358 41.7395 16.7437L41.8493 16.8071C42.3688 16.4452 42.9033 16.1149 43.4478 15.8006C43.6975 15.6579 43.9423 15.502 44.1846 15.3409L44.1621 15.2035ZM44.252 15.7345C43.8374 15.9696 43.4328 16.2233 43.0357 16.4927C42.7734 16.6697 42.5137 16.852 42.2565 17.0369L42.3439 17.0871C42.5811 16.9286 42.8234 16.7727 43.0657 16.6222C43.4653 16.3738 43.8724 16.1387 44.282 15.9168L44.252 15.7345ZM44.3769 16.4689C44.2345 16.5561 44.0922 16.6459 43.9498 16.7384C43.6076 16.9603 43.273 17.1901 42.9408 17.4279L43.0132 17.4702C43.4653 17.1637 43.9273 16.8758 44.3994 16.601L44.3769 16.4716V16.4689ZM44.4993 17.1901C44.4094 17.243 44.3194 17.2985 44.2295 17.3513C44.0023 17.4887 43.7775 17.6287 43.5552 17.774L43.7125 17.8638C43.9823 17.6921 44.2545 17.5283 44.5292 17.3645L44.4993 17.1901ZM35.513 14.7888C35.573 14.7412 35.6304 14.6937 35.6878 14.6408C35.99 14.3661 36.2373 13.9751 36.4271 13.6052C36.5745 13.3146 36.7318 12.9052 36.7118 12.5697C36.7118 12.5406 36.7044 12.5089 36.6994 12.4798C36.6694 12.3504 36.5895 12.2394 36.4996 12.1496C36.3797 12.0334 36.2323 11.9462 36.0825 11.8802C35.7303 11.7243 35.3182 11.6662 34.9361 11.6715L35.0035 11.7401C35.3457 11.7534 35.7003 11.8247 36.0075 11.9726C36.2548 12.0915 36.4971 12.2711 36.567 12.567C36.6469 12.8999 36.4796 13.2882 36.3447 13.5788C36.1799 13.9302 35.9451 14.3449 35.6679 14.6091C35.6204 14.654 35.573 14.6963 35.523 14.7359L35.5155 14.7861L35.513 14.7888Z" fill="#B7805C"/>
</g>
<path style="mix-blend-mode:multiply" fill-rule="evenodd" clip-rule="evenodd" d="M40.1436 3.19397C39.8939 3.2653 39.6466 3.34191 39.4019 3.42909C39.3844 3.43437 39.3644 3.4423 39.3469 3.45022L38.8424 4.55449C39.1621 4.4541 39.4793 4.34579 39.7965 4.23219C40.0313 4.14765 40.266 4.05783 40.4983 3.96537L40.1461 3.19397H40.1436Z" fill="url(#paint14_radial_2005_158)"/>
<path style="mix-blend-mode:multiply" fill-rule="evenodd" clip-rule="evenodd" d="M40.3033 6.84504C39.8638 6.92958 39.4192 6.99298 38.9746 7.04053C38.5351 7.08809 38.0955 7.12243 37.6559 7.15413L37.4861 7.52398C38.2603 7.49756 39.0371 7.51077 39.8138 7.47379C40.5581 7.43944 41.2999 7.38925 42.0416 7.33906L41.6995 6.59143C41.2349 6.67333 40.7679 6.75522 40.3033 6.84504Z" fill="url(#paint15_radial_2005_158)"/>
<path style="mix-blend-mode:multiply" fill-rule="evenodd" clip-rule="evenodd" d="M41.2999 9.05629C40.7704 9.08535 40.2409 9.1329 39.7114 9.1329C39.3617 9.1329 39.0121 9.09856 38.6649 9.04836C38.3053 8.99817 37.9481 8.93212 37.5885 8.86872C37.0615 8.7789 36.5295 8.69436 35.995 8.68115C35.2732 8.6653 34.5714 8.73927 33.8746 8.93476C33.4675 9.051 33.0729 9.20423 32.6882 9.38387L33.3401 10.0443C33.7047 9.89109 34.0819 9.76693 34.469 9.69031C34.8786 9.61106 35.2807 9.58728 35.6953 9.6137C36.0749 9.63748 36.4546 9.69824 36.8292 9.76693C37.2563 9.84618 37.6809 9.93336 38.108 10.0047C38.3377 10.0443 38.5675 10.0813 38.7973 10.1236C39.0695 10.1711 39.3393 10.2213 39.609 10.2821C39.7189 10.3058 39.8313 10.3323 39.9412 10.3613C40.0211 10.3825 40.106 10.4062 40.1834 10.4379C40.2684 10.4723 40.3483 10.5225 40.4157 10.5885C40.4806 10.6519 40.5356 10.7285 40.5706 10.8131C40.6055 10.895 40.6205 10.9821 40.6205 11.072C40.6205 11.1697 40.6055 11.2701 40.5756 11.3652C40.4981 11.6162 40.3508 11.8751 40.2134 12.097C40.0261 12.3981 39.8163 12.6861 39.6015 12.9661C39.4716 13.1326 39.3393 13.299 39.2044 13.4601C38.9272 13.7956 38.6399 14.1232 38.3452 14.4429C38.113 14.6938 37.8782 14.9422 37.6334 15.1799C37.2513 15.5551 36.8592 15.8827 36.3996 16.1442C36.1923 16.2604 35.98 16.3608 35.7627 16.4559C35.5729 16.5378 35.3806 16.6144 35.1883 16.691L35.001 17.7979C35.1558 17.7477 35.3132 17.6949 35.468 17.6394C36.0475 17.4334 36.6644 17.1824 37.1589 16.7967C37.3437 16.6514 37.521 16.4929 37.6909 16.3291C37.8832 16.1442 38.068 15.9487 38.2478 15.7506C38.6424 15.3147 39.0196 14.8576 39.3917 14.398C39.6989 14.0176 40.0036 13.6319 40.3083 13.2488C40.583 12.9054 40.8578 12.5646 41.145 12.2343C41.2949 12.0626 41.4472 11.8909 41.5971 11.7166C41.7944 11.4841 41.9892 11.249 42.174 11.0059C42.2714 10.8765 42.3663 10.747 42.4562 10.6123C42.5511 10.4723 42.641 10.3296 42.721 10.1817C42.7809 10.0707 42.8384 9.95185 42.8783 9.83297C42.9333 9.67182 42.9657 9.47897 42.8758 9.32575C42.7659 9.13554 42.5112 9.08006 42.3164 9.05629C42.1665 9.03779 42.0117 9.03251 41.8618 9.03515C41.6745 9.03515 41.4872 9.04572 41.3024 9.05629H41.2999Z" fill="url(#paint16_radial_2005_158)"/>
<path style="mix-blend-mode:multiply" fill-rule="evenodd" clip-rule="evenodd" d="M36.3447 13.5789C36.4821 13.2857 36.6469 12.9 36.567 12.5671C36.4971 12.2712 36.2573 12.0916 36.0076 11.9727C35.7004 11.8248 35.3432 11.7534 35.0035 11.7402L35.8802 12.6305L35.523 14.736C35.573 14.6964 35.6204 14.6541 35.6679 14.6092C35.9451 14.345 36.1799 13.9329 36.3447 13.5789Z" fill="url(#paint17_radial_2005_158)"/>
<path style="mix-blend-mode:multiply" fill-rule="evenodd" clip-rule="evenodd" d="M44.1049 10.9556C42.8586 12.184 41.6548 13.46 40.4784 14.7597C40.1587 15.1111 39.839 15.4651 39.5118 15.8085L39.8066 15.6421L40.4135 15.9855L40.4259 15.975C40.928 15.4968 41.4325 15.0213 41.9769 14.5959C42.2567 14.3767 42.5214 14.1442 42.7787 13.8959C43.0409 13.6423 43.2907 13.3728 43.5354 13.1007C43.6128 13.0162 43.6903 12.9316 43.7677 12.8497L43.7302 12.6305L47.5565 8.74968C47.614 8.69156 47.5615 8.52513 47.4841 8.51456L46.7323 8.40625C46.5525 8.65986 46.3427 8.89498 46.1254 9.11425C45.8756 9.36786 45.6134 9.60562 45.3487 9.84074C45.1339 10.0309 44.9191 10.2185 44.7043 10.4087C44.502 10.5884 44.3022 10.7706 44.1074 10.9582L44.1049 10.9556Z" fill="url(#paint18_radial_2005_158)"/>
<path style="mix-blend-mode:multiply" fill-rule="evenodd" clip-rule="evenodd" d="M44.2845 15.9143C43.8724 16.1362 43.4678 16.3713 43.0682 16.6196C42.826 16.7702 42.5862 16.9261 42.3464 17.0846L42.9434 17.4227C43.2755 17.1876 43.6102 16.9551 43.9524 16.7332C44.0947 16.6408 44.2371 16.5536 44.3795 16.4638L44.2845 15.9116V15.9143Z" fill="url(#paint19_radial_2005_158)"/>
<g style="mix-blend-mode:screen" opacity="0.5">
<path fill-rule="evenodd" clip-rule="evenodd" d="M33.5973 8.91873C34.3791 8.66512 35.1608 8.56473 35.9825 8.58322C36.4895 8.59379 36.9915 8.65191 37.4961 8.71003C38.1729 8.78928 39.2119 8.94251 39.8563 8.93986C40.071 8.93986 40.2783 8.93194 40.4856 8.92137C38.7548 8.90024 37.7433 8.54624 36.2348 8.48284C35.1733 8.43793 34.454 8.59643 33.5948 8.91609L33.5973 8.91873Z" fill="#CA9E67"/>
</g>
<g style="mix-blend-mode:screen" opacity="0.5">
<path fill-rule="evenodd" clip-rule="evenodd" d="M34.3667 10.5249C35.4232 10.3902 36.5271 10.7468 37.671 11.2514C37.8983 11.3518 38.1405 11.4892 38.2954 11.7005C38.138 11.4416 37.8383 11.254 37.4537 11.0982C36.9192 10.8816 36.3598 10.6491 35.7928 10.5461C35.1734 10.4325 34.8787 10.4325 34.3667 10.5249Z" fill="#CA9E67"/>
</g>
<g style="mix-blend-mode:screen" opacity="0.5">
<path fill-rule="evenodd" clip-rule="evenodd" d="M43.9699 10.8947C44.1522 10.7151 44.342 10.5434 44.5318 10.3743C44.7366 10.192 44.9439 10.015 45.1462 9.83273C45.401 9.60817 45.6532 9.37834 45.893 9.1353C45.9504 9.07718 46.0054 9.01906 46.0603 8.96094C45.6507 9.28852 45.1737 9.59761 45.0613 9.71913C44.9214 9.86971 44.0448 10.7547 43.5852 11.1985C42.1192 12.6145 41.1776 13.4837 39.8813 15.2246C40.0787 15.0001 40.276 14.7781 40.4758 14.5562C41.6097 13.304 42.766 12.0782 43.9649 10.8974L43.9699 10.8947Z" fill="#CA9E67"/>
</g>
<path style="mix-blend-mode:multiply" fill-rule="evenodd" clip-rule="evenodd" d="M35.8827 12.6277L35.0061 11.7374L34.9386 11.6687L34.0945 10.8128L33.9021 10.6173L33.3851 10.0916L33.3427 10.0467L32.6908 9.38622L32.6184 9.31225L32.0614 8.74691C32.0614 8.74691 32.0464 8.72578 32.0439 8.71521C32.1039 9.05336 32.5709 9.93835 32.6209 9.98855L35.7903 13.2036L35.8877 12.6277H35.8827Z" fill="url(#paint20_radial_2005_158)"/>
<path style="mix-blend-mode:multiply" fill-rule="evenodd" clip-rule="evenodd" d="M35.4682 18.8466L39.804 16.3871V15.6421L39.5093 15.8085L39.2046 15.9829L35.1335 18.2918C35.0761 18.3235 34.9712 18.2575 34.9487 18.1861C35.0012 18.3526 35.4133 18.8783 35.4707 18.8466H35.4682Z" fill="url(#paint21_radial_2005_158)"/>
<path style="mix-blend-mode:multiply" fill-rule="evenodd" clip-rule="evenodd" d="M39.804 16.3871L44.1397 18.8466C44.1972 18.8783 44.6093 18.3552 44.6617 18.1888C44.6368 18.2601 44.5343 18.3261 44.4769 18.2944L43.7151 17.8612L43.5578 17.7714L43.0158 17.4649L42.9434 17.4227L42.3465 17.0845L42.2591 17.0343L41.852 16.8045L41.7421 16.7411L41.3425 16.5139L41.2176 16.4425L40.5557 16.0674L40.4134 15.9855L39.8065 15.6421V16.3871H39.804Z" fill="url(#paint22_radial_2005_158)"/>
<path style="mix-blend-mode:multiply" fill-rule="evenodd" clip-rule="evenodd" d="M43.8252 13.2036L46.9946 9.98855C47.0446 9.93835 47.5116 9.05336 47.5715 8.71521C47.5665 8.72842 47.5616 8.73899 47.5541 8.74691L43.7278 12.6277L43.7652 12.847L43.8052 13.0768L43.8277 13.2036H43.8252Z" fill="url(#paint23_radial_2005_158)"/>
<g style="mix-blend-mode:screen" opacity="0.5">
<path fill-rule="evenodd" clip-rule="evenodd" d="M32.2309 8.49864L37.4658 7.90952L37.6381 7.51854C38.3075 7.50005 38.9793 7.50533 39.6487 7.48156C39.3615 7.47363 39.0742 7.46571 38.7845 7.44457C38.4848 7.42344 38.1851 7.4023 37.8879 7.38381C37.8454 7.38117 37.7555 7.35739 37.7455 7.33362C37.7355 7.30984 37.7655 7.23587 37.783 7.1936L38.6646 5.19377C38.7945 5.15415 38.9269 5.11188 39.0567 5.06961C39.3215 4.98507 39.5862 4.89525 39.8485 4.80279C39.7386 4.83449 38.8245 5.11452 38.772 5.03527C38.757 5.01413 38.7945 4.89525 38.8145 4.85034L39.7186 2.80296C39.7661 2.69729 39.8585 2.69201 39.9334 2.72899L39.9209 2.70257C39.8859 2.6286 39.7211 2.6286 39.6861 2.70257L37.3784 7.75102L32.2284 8.496L32.2309 8.49864Z" fill="#CA9E67"/>
</g>
</g>
<defs>
<filter id="filter0_dd_2005_158" x="52.4257" y="2.64709" width="23.5513" height="24.2009" filterUnits="userSpaceOnUse" color-interpolation-filters="sRGB">
<feFlood flood-opacity="0" result="BackgroundImageFix"/>
<feColorMatrix in="SourceAlpha" type="matrix" values="0 0 0 0 0 0 0 0 0 0 0 0 0 0 0 0 0 0 127 0" result="hardAlpha"/>
<feOffset dy="1"/>
<feComposite in2="hardAlpha" operator="out"/>
<feColorMatrix type="matrix" values="0 0 0 0 0 0 0 0 0 0 0 0 0 0 0 0 0 0 1 0"/>
<feBlend mode="normal" in2="BackgroundImageFix" result="effect1_dropShadow_2005_158"/>
<feColorMatrix in="SourceAlpha" type="matrix" values="0 0 0 0 0 0 0 0 0 0 0 0 0 0 0 0 0 0 127 0" result="hardAlpha"/>
<feOffset dy="4"/>
<feGaussianBlur stdDeviation="2"/>
<feComposite in2="hardAlpha" operator="out"/>
<feColorMatrix type="matrix" values="0 0 0 0 0 0 0 0 0 0 0 0 0 0 0 0 0 0 0.25 0"/>
<feBlend mode="normal" in2="effect1_dropShadow_2005_158" result="effect2_dropShadow_2005_158"/>
<feBlend mode="normal" in="SourceGraphic" in2="effect2_dropShadow_2005_158" result="shape"/>
</filter>
<filter id="filter1_dd_2005_158" x="28.0295" y="2.64709" width="23.5513" height="24.2009" filterUnits="userSpaceOnUse" color-interpolation-filters="sRGB">
<feFlood flood-opacity="0" result="BackgroundImageFix"/>
<feColorMatrix in="SourceAlpha" type="matrix" values="0 0 0 0 0 0 0 0 0 0 0 0 0 0 0 0 0 0 127 0" result="hardAlpha"/>
<feOffset dy="1"/>
<feComposite in2="hardAlpha" operator="out"/>
<feColorMatrix type="matrix" values="0 0 0 0 0 0 0 0 0 0 0 0 0 0 0 0 0 0 1 0"/>
<feBlend mode="normal" in2="BackgroundImageFix" result="effect1_dropShadow_2005_158"/>
<feColorMatrix in="SourceAlpha" type="matrix" values="0 0 0 0 0 0 0 0 0 0 0 0 0 0 0 0 0 0 127 0" result="hardAlpha"/>
<feOffset dy="4"/>
<feGaussianBlur stdDeviation="2"/>
<feComposite in2="hardAlpha" operator="out"/>
<feColorMatrix type="matrix" values="0 0 0 0 0 0 0 0 0 0 0 0 0 0 0 0 0 0 0.25 0"/>
<feBlend mode="normal" in2="effect1_dropShadow_2005_158" result="effect2_dropShadow_2005_158"/>
<feBlend mode="normal" in="SourceGraphic" in2="effect2_dropShadow_2005_158" result="shape"/>
</filter>
<linearGradient id="paint0_linear_2005_158" x1="64.2002" y1="18.8465" x2="64.2002" y2="4.32727" gradientUnits="userSpaceOnUse">
<stop stop-color="#F8D273"/>
<stop offset="1" stop-color="#FBB62B"/>
</linearGradient>
<radialGradient id="paint1_radial_2005_158" cx="0" cy="0" r="1" gradientUnits="userSpaceOnUse" gradientTransform="translate(62.3492 3.03276) scale(15.8321 16.7463)">
<stop stop-color="#F59445"/>
<stop offset="1" stop-color="#944419"/>
</radialGradient>
<radialGradient id="paint2_radial_2005_158" cx="0" cy="0" r="1" gradientUnits="userSpaceOnUse" gradientTransform="translate(67.2147 1.8176) scale(6.24393 6.60446)">
<stop stop-color="#CFA04D"/>
<stop offset="1" stop-color="white"/>
</radialGradient>
<radialGradient id="paint3_radial_2005_158" cx="0" cy="0" r="1" gradientUnits="userSpaceOnUse" gradientTransform="translate(69.8819 6.81334) scale(11.9159 12.6039)">
<stop stop-color="#CFA04D"/>
<stop offset="1" stop-color="white"/>
</radialGradient>
<radialGradient id="paint4_radial_2005_158" cx="0" cy="0" r="1" gradientUnits="userSpaceOnUse" gradientTransform="translate(62.9461 23.9665) scale(22.081 23.356)">
<stop stop-color="#CFA04D"/>
<stop offset="1" stop-color="white"/>
</radialGradient>
<radialGradient id="paint5_radial_2005_158" cx="0" cy="0" r="1" gradientUnits="userSpaceOnUse" gradientTransform="translate(55.8881 15.7848) scale(8.58414 9.07981)">
<stop stop-color="#CFA04D"/>
<stop offset="1" stop-color="white"/>
</radialGradient>
<radialGradient id="paint6_radial_2005_158" cx="0" cy="0" r="1" gradientUnits="userSpaceOnUse" gradientTransform="translate(69.9296 25.2687) scale(22.9751 24.3018)">
<stop stop-color="#CFA04D"/>
<stop offset="1" stop-color="white"/>
</radialGradient>
<radialGradient id="paint7_radial_2005_158" cx="0" cy="0" r="1" gradientUnits="userSpaceOnUse" gradientTransform="translate(67.3894 24.014) scale(13.7966 14.5932)">
<stop stop-color="#CFA04D"/>
<stop offset="1" stop-color="white"/>
</radialGradient>
<radialGradient id="paint8_radial_2005_158" cx="0" cy="0" r="1" gradientUnits="userSpaceOnUse" gradientTransform="translate(62.8014 12.9685) scale(8.23199 8.70731)">
<stop stop-color="#946437"/>
<stop offset="1" stop-color="white"/>
</radialGradient>
<radialGradient id="paint9_radial_2005_158" cx="0" cy="0" r="1" gradientUnits="userSpaceOnUse" gradientTransform="translate(63.8555 15.3858) scale(13.7641 14.5589)">
<stop stop-color="#946437"/>
<stop offset="1" stop-color="white"/>
</radialGradient>
<radialGradient id="paint10_radial_2005_158" cx="0" cy="0" r="1" gradientUnits="userSpaceOnUse" gradientTransform="translate(64.8694 13.1324) scale(12.5728 13.2987)">
<stop stop-color="#946437"/>
<stop offset="1" stop-color="white"/>
</radialGradient>
<radialGradient id="paint11_radial_2005_158" cx="0" cy="0" r="1" gradientUnits="userSpaceOnUse" gradientTransform="translate(68.3787 13.555) scale(14.1587 14.9763)">
<stop stop-color="#946437"/>
<stop offset="1" stop-color="white"/>
</radialGradient>
<linearGradient id="paint12_linear_2005_158" x1="39.8041" y1="18.8465" x2="39.8041" y2="4.32727" gradientUnits="userSpaceOnUse">
<stop stop-color="#F8D273"/>
<stop offset="1" stop-color="#FBB62B"/>
</linearGradient>
<radialGradient id="paint13_radial_2005_158" cx="0" cy="0" r="1" gradientUnits="userSpaceOnUse" gradientTransform="translate(37.9531 3.03276) scale(15.8321 16.7463)">
<stop stop-color="#F59445"/>
<stop offset="1" stop-color="#944419"/>
</radialGradient>
<radialGradient id="paint14_radial_2005_158" cx="0" cy="0" r="1" gradientUnits="userSpaceOnUse" gradientTransform="translate(42.8185 1.8176) scale(6.24393 6.60446)">
<stop stop-color="#CFA04D"/>
<stop offset="1" stop-color="white"/>
</radialGradient>
<radialGradient id="paint15_radial_2005_158" cx="0" cy="0" r="1" gradientUnits="userSpaceOnUse" gradientTransform="translate(45.4858 6.81334) scale(11.9159 12.6039)">
<stop stop-color="#CFA04D"/>
<stop offset="1" stop-color="white"/>
</radialGradient>
<radialGradient id="paint16_radial_2005_158" cx="0" cy="0" r="1" gradientUnits="userSpaceOnUse" gradientTransform="translate(38.55 23.9665) scale(22.081 23.356)">
<stop stop-color="#CFA04D"/>
<stop offset="1" stop-color="white"/>
</radialGradient>
<radialGradient id="paint17_radial_2005_158" cx="0" cy="0" r="1" gradientUnits="userSpaceOnUse" gradientTransform="translate(31.492 15.7848) scale(8.58414 9.07981)">
<stop stop-color="#CFA04D"/>
<stop offset="1" stop-color="white"/>
</radialGradient>
<radialGradient id="paint18_radial_2005_158" cx="0" cy="0" r="1" gradientUnits="userSpaceOnUse" gradientTransform="translate(45.5335 25.2687) scale(22.9751 24.3018)">
<stop stop-color="#CFA04D"/>
<stop offset="1" stop-color="white"/>
</radialGradient>
<radialGradient id="paint19_radial_2005_158" cx="0" cy="0" r="1" gradientUnits="userSpaceOnUse" gradientTransform="translate(42.9933 24.014) scale(13.7966 14.5932)">
<stop stop-color="#CFA04D"/>
<stop offset="1" stop-color="white"/>
</radialGradient>
<radialGradient id="paint20_radial_2005_158" cx="0" cy="0" r="1" gradientUnits="userSpaceOnUse" gradientTransform="translate(38.4053 12.9685) scale(8.23199 8.70731)">
<stop stop-color="#946437"/>
<stop offset="1" stop-color="white"/>
</radialGradient>
<radialGradient id="paint21_radial_2005_158" cx="0" cy="0" r="1" gradientUnits="userSpaceOnUse" gradientTransform="translate(39.4593 15.3858) scale(13.7641 14.5589)">
<stop stop-color="#946437"/>
<stop offset="1" stop-color="white"/>
</radialGradient>
<radialGradient id="paint22_radial_2005_158" cx="0" cy="0" r="1" gradientUnits="userSpaceOnUse" gradientTransform="translate(40.4733 13.1324) scale(12.5728 13.2987)">
<stop stop-color="#946437"/>
<stop offset="1" stop-color="white"/>
</radialGradient>
<radialGradient id="paint23_radial_2005_158" cx="0" cy="0" r="1" gradientUnits="userSpaceOnUse" gradientTransform="translate(43.9825 13.555) scale(14.1587 14.9763)">
<stop stop-color="#946437"/>
<stop offset="1" stop-color="white"/>
</radialGradient>
</defs>
</svg>
