<svg width="103" height="106" viewBox="0 0 103 106" fill="none" xmlns="http://www.w3.org/2000/svg">
<path d="M19.2767 32.431C19.2767 32.1595 19.0895 31.9794 18.8728 31.9283C18.8728 31.9283 18.8541 31.9257 18.8434 31.9257C18.8006 31.9176 18.7551 31.9122 18.7096 31.9149C17.4711 31.8289 15.6922 31.9257 15.6922 31.9257C15.6949 31.9257 9.19995 41.0353 9.19995 53.9296C9.19995 66.8239 15.9517 75.9255 15.9517 75.9255C17.0056 76.0303 18.4822 75.9577 18.9049 75.9335C19.2687 75.9416 19.6352 75.6701 19.6325 75.2239L19.2767 32.431Z" fill="#733C0E"/>
<path d="M13.5817 51.2311L16.5108 69.4315L16.2032 32.4312C16.1978 31.9071 15.5103 31.7108 15.2402 32.1597C7.18035 45.4465 7.1857 62.3218 15.2642 75.6005C15.4702 75.9391 15.8501 76.0037 16.1443 75.8719L13.5817 51.2338V51.2311Z" fill="#C26618"/>
<g style="mix-blend-mode:screen" opacity="0.5">
<path d="M16.4894 66.7272C16.4734 66.6653 16.4546 66.6008 16.4306 66.539C16.1604 65.8079 15.9143 65.0714 15.6896 64.3268L16.3262 68.2808C16.3985 68.1357 16.4573 67.9851 16.4974 67.8292L16.4894 66.7299V66.7272Z" fill="#DB7C2C"/>
</g>
<g style="mix-blend-mode:screen" opacity="0.5">
<path d="M16.2031 32.4311C16.2031 32.3639 16.1897 32.3021 16.1683 32.2456C12.1852 38.514 9.87402 45.9544 9.87402 53.9297C9.87402 58.7869 10.722 63.5393 12.3992 68.0497C12.7229 68.9179 13.5415 69.4555 14.4135 69.4555C14.6623 69.4555 14.9164 69.4125 15.1652 69.3185C15.2642 69.2808 15.3578 69.2351 15.4487 69.1841L13.5816 51.2282L14.1942 55.0371C14.1835 54.6662 14.1754 54.2979 14.1754 53.9243C14.1754 49.6531 14.9191 45.5566 16.2807 41.7504L16.2031 32.4257V32.4311Z" fill="#DB7C2C"/>
</g>
<path d="M33.1523 83.7315H33.1576L30.1964 80.7962L30.0519 80.9817C26.1892 77.1378 23.2333 72.3747 21.5481 67.0417C21.5026 66.8993 18.4156 63.8484 18.4156 63.8484L18.6537 69.2674L20.8098 70.7619L20.3122 80.3258C20.2694 81.1376 20.5209 81.9359 21.0184 82.5757C22.0537 83.9089 23.1825 85.1938 24.4023 86.4195C26.5744 88.6021 28.9284 90.4864 31.4162 92.0831C31.8094 92.3358 32.3311 92.0965 32.3899 91.6315L33.3315 84.253C33.3556 84.0594 33.286 83.8686 33.1496 83.7315H33.1523Z" fill="#733C0E"/>
<path d="M17.9259 64.0286L17.2385 77.2374C17.1957 78.0492 17.4471 78.8475 17.9447 79.4873C18.9799 80.8205 20.1087 82.1054 21.3285 83.3311C23.5007 85.5138 25.8547 87.4008 28.3424 88.9947C28.7357 89.2474 29.2573 89.0082 29.3161 88.5432L30.2577 81.1646C30.2872 80.9415 30.1935 80.7211 30.017 80.584C24.6536 76.388 20.5742 70.6115 18.4716 63.9534C18.378 63.655 17.9393 63.7141 17.9233 64.0259L17.9259 64.0286Z" fill="#DB7C2C"/>
<path d="M48.5412 87.7206L48.1587 88.4356C43.4534 87.8415 39.0476 86.2852 35.1421 83.9627C34.7034 83.702 34.1416 83.9762 34.0721 84.4842C34.0721 84.4842 31.4666 91.6854 31.7368 91.8332C36.715 94.5427 43.6914 95.9163 49.0361 96.3248C49.416 96.3544 49.7503 96.0722 49.7985 95.6932L50.5716 89.4301C50.5769 89.3952 50.5716 89.3629 50.5716 89.328C50.5716 89.328 50.5716 89.328 50.5716 89.3253C50.6919 88.2743 49.6273 87.82 48.5412 87.7233V87.7206Z" fill="#733C0E"/>
<path d="M31.9883 91.0806C36.8782 93.5535 42.156 94.9916 47.498 95.3975C47.8779 95.427 48.2123 95.1448 48.2604 94.7658L49.0335 88.5028C49.0843 88.0942 48.7847 87.7206 48.3754 87.6883C43.0094 87.2905 37.991 85.6454 33.6067 83.0354C33.168 82.7746 32.6062 83.0488 32.5367 83.5569L31.6031 90.3333C31.5603 90.6397 31.7155 90.9408 31.9883 91.0779V91.0806Z" fill="#C26618"/>
<path d="M75.2811 20.9212C74.5722 20.1067 74.0666 19.3621 73.3256 18.9401C70.9636 17.5961 68.2618 17.1418 65.7313 16.2978C65.4237 16.1957 65.0946 16.3946 65.0411 16.7171L64.2921 20.9991L62.0317 21.0206C62.1494 21.5528 63.2355 22.9802 64.3269 23.378C67.9328 24.6924 71.2686 26.5713 74.1977 28.9448C74.5321 29.2163 75.0323 28.9932 75.0617 28.5631L75.5245 21.6496C75.5379 21.4561 75.4095 21.0663 75.2811 20.9212Z" fill="#733C0E"/>
<path d="M73.3254 18.9401C70.3133 16.9644 67.1006 15.4242 63.7729 14.3167C63.4653 14.2146 63.1363 14.4135 63.0828 14.7361L62.0235 20.8029C61.978 21.0609 62.1251 21.3109 62.3712 21.3969C65.9825 22.6952 69.3129 24.5902 72.242 26.9637C72.5764 27.2352 73.0766 27.0121 73.106 26.5821L73.5688 19.4266C73.5822 19.2331 73.4886 19.0449 73.3281 18.9401H73.3254Z" fill="#DB7C2C"/>
<path d="M90.6567 70.477L89.239 32.5064C89.2336 32.3612 89.1908 32.2188 89.1159 32.0924C87.749 29.8506 86.152 27.711 84.325 25.7084L83.7739 25.1144C83.5412 24.8671 83.3058 24.6225 83.065 24.3806L82.0806 23.3914C79.5661 20.8431 77.8354 21.6092 77.188 23.8107L78.3543 32.4741C78.2901 32.7671 78.2848 33.0655 78.3276 33.3558C79.5955 35.0895 80.7057 36.9469 81.6366 38.9065C87.4922 49.9568 86.3981 63.7705 78.357 73.7859C76.308 76.5922 73.8443 79.0732 71.0569 81.1376C70.233 81.7478 69.7569 82.7235 69.8104 83.753L70.1153 89.5026C70.538 93.333 73.5607 90.5913 74.406 89.9919C77.3271 87.9248 80.4221 85.9814 83.065 83.3256C83.3004 83.0891 83.5305 82.8472 83.7579 82.6052L85.2345 80.9656C86.8849 79.0329 88.3295 76.9846 89.568 74.845C90.3357 73.5198 90.7102 72.0011 90.654 70.4689L90.6567 70.477Z" fill="#733C0E"/>
<path d="M82.6371 67.9825L81.5056 75.1219L80.7245 82.5461L83.9158 82.4816L85.2372 80.9709L82.2412 80.8634L82.6371 67.9825Z" fill="#51290B"/>
<path d="M83.7738 25.1144H80.7002V29.9286L81.2512 25.7111H84.3248L83.7738 25.1144Z" fill="#51290B"/>
<path d="M87.583 70.477L86.1652 32.5064C86.1599 32.3612 86.1171 32.2187 86.0422 32.0924C84.6753 29.8506 83.0783 27.711 81.2512 25.7084L80.7002 29.9259V25.1144C80.4675 24.8671 80.2321 24.6225 79.9913 24.3805L79.0069 23.3914C78.3917 22.7731 77.3377 23.0822 77.1504 23.937L75.9333 29.4985C75.829 29.9743 75.9654 30.4689 76.2891 30.8317C81.6632 36.877 84.9294 44.8523 84.9294 53.5937C84.9294 65.1763 79.1942 75.4095 70.4281 81.5919C69.9787 81.909 69.73 82.4413 69.7567 82.9923L70.0804 89.3037C70.1125 89.93 70.7919 90.3036 71.3323 89.9918C74.43 88.2043 77.3484 85.9814 79.9913 83.3256C80.2214 83.0944 80.4487 82.8579 80.6708 82.6214C80.7136 82.5757 80.7376 82.5219 80.743 82.4601C81.0319 79.0705 82.6342 67.9772 82.6342 67.9772L81.7969 80.6027C81.7782 80.8769 82.1179 81.0166 82.2945 80.8096C83.8995 78.9092 85.3092 76.9013 86.5183 74.8047C87.2754 73.4929 87.6365 71.9876 87.5776 70.4743L87.583 70.477Z" fill="#C26618"/>
<path d="M87.773 32.5198C88.5943 32.5279 89.263 33.1811 89.2951 34.0063L90.6059 69.1572C90.6353 69.9179 90.111 70.5899 89.3673 70.7378C88.4364 70.9259 87.559 70.2297 87.5243 69.2755L86.2269 34.1192C86.1948 33.2402 86.8983 32.5118 87.7757 32.5198H87.773Z" fill="#51290B"/>
<g style="mix-blend-mode:screen" opacity="0.5">
<path d="M70.0644 89.0027C74.2562 86.5835 77.9744 83.4251 81.0454 79.7103C81.4306 76.5384 82.0458 72.1301 82.3882 69.7217C79.5474 75.5654 75.1791 80.5274 69.813 84.0836L70.0644 89.0027Z" fill="#DB7C2C"/>
</g>
<g style="mix-blend-mode:screen" opacity="0.5">
<path d="M86.3391 37.1378C85.7533 36.7346 84.9829 36.6298 84.2793 36.9309C83.1879 37.3986 82.6797 38.67 83.1451 39.7667C85.0497 44.2476 86.0154 49.0134 86.0154 53.9297C86.0154 59.4643 84.7689 64.7086 82.5433 69.4019L81.9333 78.5975C84.2285 75.6138 86.1197 72.3022 87.5188 68.7433L86.3391 37.1378Z" fill="#DB7C2C"/>
</g>
<path d="M69.8773 84.8042C69.8773 84.8042 69.8799 84.7934 69.8773 84.7907C69.8719 84.7746 69.8612 84.7558 69.8505 84.7343C69.8398 84.7155 69.8291 84.6993 69.8184 84.6805C69.5643 84.28 68.6922 83.4198 67.7881 83.4387L67.5607 85.1536C63.0052 87.4276 57.8745 88.7125 52.4415 88.7125H52.4362C52.1018 88.7125 51.8156 88.9464 51.7567 89.2743L50.8874 94.2498L49.1914 95.1583C49.6328 95.8438 50.7322 96.4244 51.302 96.4324C57.4144 96.5641 63.5482 95.3519 69.2246 92.7902C69.4626 92.6827 69.6178 92.4488 69.6285 92.1881L69.9254 85.073C69.9308 84.9735 69.9094 84.8848 69.8773 84.8015V84.8042Z" fill="#733C0E"/>
<path d="M67.3735 83.5219C62.4943 86.2395 56.8794 87.7878 50.9061 87.7878H50.9008C50.5664 87.7878 50.2802 88.0216 50.2213 88.3496L49.1112 94.6986C49.039 95.1126 49.3493 95.497 49.7666 95.5077C50.8312 95.5319 51.8985 95.5077 52.9632 95.4513L53.434 90.1102L53.5998 95.4109C58.4229 95.0696 63.1978 93.8922 67.6865 91.8682C67.9245 91.7606 68.0797 91.5268 68.0904 91.266L68.3873 84.1509C68.4087 83.6133 67.8389 83.2612 67.3708 83.5219H67.3735Z" fill="#DB7C2C"/>
<path d="M53.6025 95.411L53.4366 90.1102L52.9658 95.4513L53.6265 96.419C53.9689 96.4082 54.3114 96.3894 54.6538 96.3706L53.6025 95.411Z" fill="#51290B"/>
<g style="mix-blend-mode:screen" opacity="0.5">
<path d="M68.3553 85.0002C63.0026 88.1882 56.7591 90.0241 50.0956 90.0241C50.0395 90.0241 49.9833 90.0295 49.9271 90.0322L49.2075 94.1529C49.4777 94.2765 49.7773 94.3464 50.0956 94.3464C51.0961 94.3464 52.0885 94.3088 53.0702 94.2362L53.434 90.1101L53.5624 94.1932C58.7653 93.7443 63.69 92.2955 68.1439 90.0402L68.3553 85.0002Z" fill="#DB7C2C"/>
</g>
<path d="M39.6067 14.7333V14.7279C39.6067 14.7279 39.5879 14.7225 39.5772 14.7198C39.5692 14.7198 39.5639 14.7171 39.5585 14.7145C38.3146 14.3838 36.3859 14.7225 36.3859 14.7225C36.5331 14.6688 36.6855 14.787 36.6722 14.9456L36.5946 15.7762L36.616 15.8891C36.616 15.8891 36.5919 15.8999 36.5812 15.9052L36.0061 22.1656C35.966 22.6145 35.6958 23.0042 35.2972 23.2112C29.6182 26.1626 24.7068 20.9076 21.4567 26.4153C20.9912 27.2029 20.7264 37.7748 20.3252 38.6C20.1994 38.8554 19.956 38.9468 19.734 38.9091L19.7286 38.9172C21.0207 39.0838 22.6096 38.9951 22.9815 38.9172C22.9868 38.9172 22.9895 38.9091 22.9948 38.9064C23.1553 38.8796 23.3078 38.7801 23.3988 38.5973C26.6114 31.9929 31.8812 26.582 38.3708 23.2085C38.7694 23.0016 39.0369 22.6118 39.0797 22.1629L39.7431 14.9403C39.7511 14.8408 39.6896 14.7602 39.6093 14.7279L39.6067 14.7333Z" fill="#733C0E"/>
<path d="M36.6081 15.6123L36.1213 20.9238C36.0999 21.155 36.1775 21.3888 36.3406 21.5501C37.5738 22.7758 39.0959 21.9963 39.2082 20.7706L39.671 15.7467C39.7112 15.3166 39.3741 14.9457 38.9434 14.9457H37.3384C36.9612 14.9457 36.6456 15.2333 36.6108 15.6123H36.6081Z" fill="#51290B"/>
<path d="M36.3835 14.7252C30.8863 16.7412 25.7316 19.9588 21.3285 24.3832C21.0851 24.6278 20.847 24.8724 20.6116 25.1224C20.1568 25.6009 19.892 26.2299 19.8572 26.8884L19.2634 38.3312C19.2473 38.6592 19.4747 38.8715 19.7342 38.9145C19.9562 38.9495 20.2023 38.8608 20.3254 38.6054C20.6169 38.006 20.9326 37.4173 21.2589 36.8367L22.3798 26.0713L21.8394 35.8395C25.0815 30.4903 29.7414 26.1035 35.3001 23.2166C35.6986 23.0097 35.9661 22.6199 36.0089 22.171L36.5841 15.9107L36.5948 15.7816L36.6723 14.951C36.6857 14.7951 36.5332 14.6742 36.3861 14.7279L36.3835 14.7252Z" fill="#DB7C2C"/>
<g style="mix-blend-mode:screen" opacity="0.5">
<path d="M19.833 27.3374L19.4264 35.1594C20.1486 33.9713 20.9378 32.8289 21.7884 31.7376L22.3796 26.0686L22.088 31.364C25.7956 26.7245 30.6186 23.0204 36.1479 20.6711L36.5866 15.908L36.5919 15.8623C30.0676 18.2062 24.319 22.1979 19.841 27.3374H19.833Z" fill="#DB7C2C"/>
</g>
<path d="M62.5103 15.3004C62.2054 13.8839 59.8968 13.0479 58.1715 12.4592C58.6583 12.6581 58.974 13.1581 58.9071 13.7038L58.2464 19.0609C58.1634 19.7249 57.5508 20.1899 56.8928 20.0824C54.9721 19.7706 53.0033 19.6066 50.9971 19.6066C46.6475 19.6066 42.4772 20.3673 38.6064 21.7597C38.2613 21.8833 37.9163 21.835 37.6381 21.6737C37.6381 21.6737 37.6407 21.6764 37.6434 21.6791C38.3015 22.1817 40.4602 22.136 41.5035 21.7678C45.4972 20.7866 49.7264 20.4668 54.0493 20.921C56.0448 21.1307 57.9869 21.499 59.8647 22.0097C60.5094 22.1844 61.1648 21.7866 61.3173 21.1361L62.529 15.8757C62.5745 15.6768 62.5638 15.4832 62.513 15.3004H62.5103Z" fill="#733C0E"/>
<path d="M62.1279 15.131L59.7606 14.0827C59.3352 13.8946 58.8511 14.1714 58.7922 14.6338L58.2465 19.0636C58.2278 19.2222 58.177 19.3673 58.1047 19.4964C57.7891 20.0581 57.9469 20.7678 58.4873 21.1172C58.9153 21.3941 59.3299 21.6656 59.592 21.8322C59.9023 22.0338 60.2982 22.101 60.638 21.9532C60.967 21.808 61.2291 21.515 61.3147 21.136L62.5265 15.8756C62.5265 15.8756 62.5265 15.8729 62.5265 15.8702C62.5961 15.5638 62.4115 15.2574 62.1253 15.131H62.1279Z" fill="#51290B"/>
<path d="M38.6064 21.7624C42.4771 20.37 46.6502 19.6093 50.997 19.6093C53.0033 19.6093 54.9748 19.7733 56.8928 20.0851C57.5508 20.1926 58.1634 19.7276 58.2463 19.0636L58.9071 13.7064C58.9739 13.1608 58.6583 12.6608 58.1714 12.4646C58.0912 12.4323 58.0056 12.4055 57.9146 12.3893C54.0894 11.7711 50.2614 11.6448 46.4094 12.0211C46.2757 12.2065 46.0403 12.599 46.0403 12.599C46.0403 12.599 45.3314 12.2657 45.104 12.1662C43.0148 12.4296 40.939 12.8409 38.8953 13.3973C38.4512 13.5183 38.1222 13.8946 38.0473 14.3489L37.0495 20.456C36.9639 20.9802 37.2288 21.4452 37.6327 21.6764C37.9109 21.8349 38.256 21.886 38.601 21.7624H38.6064Z" fill="#C26618"/>
<path d="M45.1067 12.1636L42.948 19.1335C42.948 19.1335 45.9173 12.7872 46.0403 12.5963C45.6203 12.3786 45.1041 12.1636 45.1041 12.1636H45.1067Z" fill="#51290B"/>
<g style="mix-blend-mode:screen" opacity="0.5">
<path d="M37.8764 15.4214L37.0819 20.2867C41.1185 18.7035 45.5082 17.8326 50.0985 17.8326C52.8672 17.8326 55.6144 18.1524 58.2841 18.776L58.8164 14.4672C55.9648 13.8355 53.0437 13.5103 50.0985 13.5103C45.8399 13.5103 41.7338 14.1823 37.8764 15.4187V15.4214Z" fill="#DB7C2C"/>
</g>
<path d="M90.4855 34.5197C90.44 34.4336 90.3544 34.4094 90.2795 34.4256H87.2059L90.1324 46.2124L91.2586 46.535L91.6491 50.6665L91.5903 50.6503L90.1351 65.9961C91.9755 66.2031 93.2087 65.9961 93.2087 65.9961C93.2996 66.0284 93.4146 65.9934 93.4494 65.8751C96.531 55.5398 95.5439 44.2287 90.4882 34.517L90.4855 34.5197Z" fill="#733C0E"/>
<path d="M87.0614 34.6271L90.0066 65.8402C90.0253 66.0444 90.3143 66.0767 90.3731 65.8778C93.4547 55.5424 92.4676 44.2314 87.4119 34.5196C87.3182 34.3368 87.04 34.4229 87.0588 34.6271H87.0614Z" fill="#DB7C2C"/>
<path d="M52.2865 19.276C32.8017 19.276 16.9523 35.2051 16.9523 54.7817C16.9523 74.3584 32.8044 90.2875 52.2865 90.2875C71.7686 90.2875 87.6207 74.3584 87.6207 54.7817C87.6207 35.2051 71.7713 19.276 52.2865 19.276ZM52.2865 88.1264C33.9894 88.1264 19.103 73.1677 19.103 54.7817C19.103 36.3959 33.9894 21.4372 52.2865 21.4372C70.5836 21.4372 85.47 36.3959 85.47 54.7817C85.47 73.1677 70.5836 88.1264 52.2865 88.1264Z" fill="#5F300C"/>
<path d="M51.3662 18.3513C31.8814 18.3513 16.032 34.2804 16.032 53.8571C16.032 73.4338 31.8841 89.3628 51.3662 89.3628C70.8483 89.3628 86.7004 73.4338 86.7004 53.8571C86.7004 34.2804 70.8483 18.3513 51.3662 18.3513ZM51.3662 87.2017C33.0691 87.2017 18.1827 72.243 18.1827 53.8571C18.1827 35.4712 33.0691 20.5125 51.3662 20.5125C69.6633 20.5125 84.5497 35.4712 84.5497 53.8571C84.5497 72.243 69.6633 87.2017 51.3662 87.2017Z" fill="#FFE46B"/>
<g style="mix-blend-mode:multiply">
<path d="M84.5337 54.8786C83.9853 72.4339 69.8719 86.6426 52.4014 87.1856C51.8236 87.2044 51.3662 87.6829 51.3662 88.2635C51.3662 88.8764 51.8745 89.3656 52.4817 89.3441C71.0864 88.7608 86.1119 73.6569 86.6817 54.9592C86.7004 54.3544 86.227 53.8464 85.6224 53.8356C85.0366 53.8249 84.5497 54.2872 84.531 54.8759L84.5337 54.8786Z" fill="#FFE46B"/>
</g>
<g style="mix-blend-mode:screen">
<path d="M50.2908 18.3673C31.6728 18.929 16.6312 34.0329 16.0507 52.736C16.032 53.3488 16.5161 53.8596 17.1261 53.8596C17.7039 53.8596 18.18 53.3999 18.1987 52.8193C18.7391 35.2721 32.914 21.0956 50.3738 20.5311C50.9703 20.5123 51.4331 20.0069 51.409 19.4075C51.3849 18.8108 50.8847 18.3484 50.2908 18.3673Z" fill="#FFE46B"/>
</g>
<path fill-rule="evenodd" clip-rule="evenodd" d="M51.8126 2.13936L49.0732 7.9216L42.0057 7.4422C42.0376 7.81724 42.6833 8.99783 42.7505 9.06305L47.2959 13.5082L46.2155 16.4075L46.484 16.4335L45.7328 19.1339C45.6881 19.2448 46.3242 20.0405 46.4041 19.9981L51.9533 16.9619L57.5025 19.9981C57.5856 20.0438 58.2185 19.2448 58.1737 19.1339L56.6106 13.5082L61.1561 9.06305C61.2232 8.99783 61.8689 7.81724 61.9009 7.4422L54.8334 7.9216L54.0342 6.23552L54.942 6.05941L52.0939 2.13936C52.0652 2.10022 52.014 2.07413 51.9565 2.07413C51.8989 2.07413 51.8382 2.09696 51.819 2.13936H51.8126Z" fill="white"/>
<path fill-rule="evenodd" clip-rule="evenodd" d="M51.7997 0.0718356L48.8461 6.30414L42.1238 7.24339C42.0247 7.25643 41.9576 7.46515 42.0311 7.53364L46.9282 12.3245L46.209 16.4108C46.5926 16.2086 46.9538 15.9706 47.2958 15.6999C46.9282 16.0488 46.6182 16.3163 46.177 16.5902L45.7263 19.1373C45.7072 19.2384 45.8798 19.3656 45.9693 19.3166L51.9468 16.0456L57.9243 19.3166C58.0138 19.3656 58.1832 19.2384 58.1672 19.1373L56.9653 12.3245L61.8624 7.53364C61.936 7.46189 61.8688 7.25643 61.7697 7.24339L53.5738 6.09868C54.0277 6.08889 54.4784 6.07911 54.9324 6.06281L52.0938 0.075097C52.0491 -0.0162188 51.8381 -0.0162188 51.7934 0.075097L51.7997 0.0718356Z" fill="white"/>
<path fill-rule="evenodd" clip-rule="evenodd" d="M52.3335 0.56099C52.033 0.652306 51.7325 0.743622 51.432 0.844722L51.3649 0.984957C51.3873 0.975173 51.4129 0.96865 51.4352 0.958866C51.7485 0.851244 52.065 0.756667 52.3846 0.668613L52.3303 0.557729L52.3335 0.56099ZM50.6713 2.45253C50.7384 2.43296 50.8023 2.41014 50.8695 2.39057C51.5439 2.17858 52.2152 1.95682 52.8833 1.72527L52.8353 1.62743C52.538 1.74157 52.2376 1.8492 51.9371 1.95682C51.5343 2.09705 51.1252 2.23077 50.716 2.35469L50.6681 2.45253H50.6713ZM53.139 2.26664C52.4294 2.52428 51.7133 2.76888 50.9909 2.99064C50.7672 3.05913 50.5434 3.12762 50.3196 3.1961L50.2589 3.32003C50.8886 3.14392 51.512 2.95151 52.1321 2.75257C52.4901 2.63842 52.8481 2.52102 53.2029 2.40035L53.139 2.26664ZM53.5322 3.09827C53.2413 3.20589 52.9536 3.31025 52.6627 3.41135C52.2408 3.55811 51.8188 3.69834 51.3905 3.82879C51.0485 3.93315 50.7 4.03099 50.3484 4.10926C50.179 4.14514 50.0096 4.18101 49.8402 4.21036L49.8306 4.22993C50.0192 4.19732 50.2078 4.16144 50.3932 4.11905C51.122 3.95924 51.8316 3.71139 52.538 3.46679C52.8737 3.34938 53.2093 3.23524 53.545 3.12109L53.5354 3.09827H53.5322ZM49.4917 4.94089C49.8881 4.87892 50.2813 4.80718 50.6745 4.72564C51.1731 4.62454 51.6686 4.50714 52.164 4.38647C52.4262 4.32124 52.6915 4.25602 52.9536 4.19079C53.2796 4.10926 53.6089 4.03099 53.9381 3.95272L53.8998 3.87445C53.5769 3.95272 53.2509 4.03099 52.928 4.10926C52.033 4.33103 51.1316 4.51366 50.2206 4.65716C50.0064 4.68977 49.7922 4.72238 49.5781 4.75173L49.4885 4.93763L49.4917 4.94089ZM54.2897 4.69955C53.7112 4.80065 53.1326 4.89849 52.5572 5.00937C51.4512 5.2181 50.3356 5.3779 49.22 5.51487L49.1945 5.56705C49.7571 5.52792 50.3196 5.48552 50.8822 5.42682C51.4512 5.36812 52.0202 5.28984 52.5828 5.18548C53.1773 5.0746 53.7719 4.9735 54.3697 4.8724L54.2897 4.69955ZM46.209 16.4108C46.6309 16.1891 47.024 15.9216 47.398 15.6183C47.9063 15.2009 48.3698 14.7247 48.8045 14.229C49.0954 13.8964 49.3735 13.5278 49.61 13.156C49.8561 12.7712 50.326 11.9559 50.1726 11.4798C50.032 11.0427 49.6068 10.7949 49.2168 10.6286C47.5355 9.91434 45.9212 9.43819 44.3901 9.84585L44.6362 10.0872C44.828 10.0481 45.023 10.0252 45.2244 10.0122C46.4934 9.93391 47.772 10.3774 48.926 10.8699C49.2936 11.0264 49.5461 11.258 49.6739 11.6493C49.8146 12.0798 49.5812 12.6016 49.3799 12.9702C48.6351 14.3268 47.5738 15.4031 46.2537 16.1532L46.2057 16.4173L46.209 16.4108ZM46.0427 17.3435C46.2888 17.249 46.5349 17.1544 46.7779 17.0533C47.056 16.9359 47.3309 16.8119 47.593 16.6684C48.1812 16.3456 48.683 15.9412 49.1721 15.4781C49.4854 15.1846 49.7858 14.878 50.0831 14.5682C50.4603 14.1736 50.8279 13.7692 51.1827 13.355C51.3553 13.1528 51.5247 12.9506 51.691 12.7451C51.9659 12.3994 52.2344 12.044 52.4741 11.6722C52.6499 11.4015 52.8353 11.0786 52.9376 10.7688C52.976 10.6546 52.9951 10.5307 52.9951 10.4068C52.9951 10.2992 52.976 10.1883 52.9312 10.0872C52.8865 9.98282 52.8161 9.88825 52.733 9.80998C52.6467 9.72845 52.5444 9.66648 52.4358 9.62408C52.3367 9.58495 52.228 9.5556 52.1257 9.52951C51.985 9.49363 51.8412 9.46102 51.7006 9.43167C51.3553 9.35992 51.0069 9.29796 50.6617 9.23599C50.3676 9.18707 50.0735 9.13815 49.7794 9.08923C49.2328 9.00118 48.6894 8.89356 48.1428 8.79572C47.6633 8.71093 47.1775 8.63592 46.6916 8.60657C46.161 8.57395 45.6431 8.6033 45.1221 8.70114C44.6266 8.79572 44.1439 8.949 43.6772 9.13815L43.7316 9.1936C44.3709 8.98161 45.0326 8.80876 45.6975 8.74028C46.276 8.67831 46.8194 8.7044 47.3916 8.79898C47.7528 8.85768 48.1108 8.94248 48.4689 9.02075C48.878 9.11206 49.284 9.20012 49.6963 9.26534C49.9393 9.30448 50.1822 9.35014 50.4219 9.3958C50.7512 9.46102 51.0836 9.52951 51.4097 9.61104C51.5471 9.64365 51.6814 9.67953 51.8156 9.71866C51.9179 9.74801 52.0202 9.78063 52.1193 9.8165C52.5572 9.98283 52.7202 10.4231 52.5764 10.8601C52.4805 11.1569 52.3399 11.4504 52.1896 11.7211C51.9914 12.0766 51.7613 12.419 51.5088 12.7353C51.1603 13.1691 50.8087 13.5963 50.4411 14.0105C50.1311 14.3595 49.8146 14.7019 49.4822 15.028C48.9164 15.5792 48.3186 16.0684 47.6473 16.476C47.1391 16.7891 46.6053 17.0435 46.0555 17.2718L46.0427 17.337V17.3435ZM45.7934 18.7557C46.0331 18.6741 46.276 18.5893 46.5126 18.498C47.2222 18.2339 47.9478 17.9306 48.5903 17.5229C48.9451 17.2979 49.2744 17.0304 49.5844 16.7467C49.9169 16.4434 50.2301 16.1173 50.537 15.7846C51.0485 15.2237 51.5311 14.6367 52.0298 14.0659C52.6595 13.3452 53.286 12.6179 53.9253 11.907C54.5838 11.1765 56.2045 9.35666 56.2908 8.40111C56.3004 8.2837 56.2908 8.16303 56.2428 8.05541C56.0926 7.7195 55.6131 7.66406 55.2998 7.65753C54.1587 7.63144 53.139 7.76842 52.0138 7.77168C51.1891 7.77168 49.8593 7.58579 48.9931 7.48795C48.3474 7.4162 47.7049 7.34445 47.056 7.33141C45.9308 7.30532 44.8664 7.45207 43.7955 7.81407C43.4375 7.93474 43.0891 8.07498 42.7439 8.23152L42.8366 8.32283C43.3288 8.09781 43.8307 7.90865 44.3549 7.76842C45.2499 7.52382 46.145 7.43251 47.0688 7.45533C47.7528 7.47164 48.4337 7.57274 49.1082 7.68689C49.5653 7.76189 50.0256 7.84343 50.4859 7.90865C50.9302 7.97062 51.3777 8.01301 51.8252 8.01301C52.5029 8.01301 53.1805 7.95431 53.8582 7.91844C54.098 7.90539 54.3377 7.89561 54.5742 7.89235C54.766 7.89235 54.9642 7.89561 55.156 7.91844C55.4021 7.94779 55.7282 8.01954 55.872 8.25109C55.9871 8.44024 55.9456 8.67831 55.8752 8.87725C55.8241 9.02727 55.7506 9.17077 55.6738 9.30774C55.5716 9.49037 55.4533 9.66974 55.335 9.83933C55.2199 10.0057 55.0985 10.1655 54.9738 10.3253C54.7373 10.6253 54.4879 10.9156 54.2354 11.2025C54.0436 11.4178 53.8486 11.6265 53.6568 11.8418C53.2892 12.2494 52.9376 12.6701 52.586 13.0941C52.1928 13.567 51.806 14.0431 51.4129 14.5127C50.9398 15.0802 50.4571 15.6444 49.9488 16.1825C49.7187 16.4271 49.4822 16.6684 49.236 16.8967C49.0187 17.0989 48.7949 17.2946 48.5552 17.474C47.9222 17.9501 47.1327 18.2632 46.3911 18.5143C46.1929 18.5828 45.9947 18.648 45.7934 18.71L45.787 18.7557H45.7934ZM51.5727 16.251C51.9946 15.827 52.4038 15.39 52.8097 14.9563C54.3185 13.3485 55.856 11.7733 57.4511 10.26C57.6972 10.0252 57.9562 9.80019 58.2151 9.58169C58.49 9.34688 58.7649 9.11533 59.0398 8.88051C59.3786 8.59026 59.7143 8.29674 60.0339 7.98366C60.3088 7.71297 60.5805 7.42272 60.8107 7.10964L60.5645 7.07376C60.5518 7.09333 60.539 7.10964 60.5262 7.12594C60.296 7.44555 60.0243 7.73907 59.743 8.01301C59.4362 8.31305 59.1133 8.59678 58.7873 8.87399C58.5252 9.09902 58.2598 9.31752 58.0009 9.54255C57.758 9.75128 57.515 9.96326 57.2817 10.185C55.7474 11.6428 54.2642 13.1593 52.8161 14.7019C52.4645 15.0769 52.1193 15.4585 51.7709 15.8368C51.5759 16.0488 51.3809 16.2575 51.1827 16.463L51.5727 16.2477V16.251ZM54.8108 5.79534C53.8614 5.85731 52.912 5.91927 51.9595 5.96167C50.9685 6.00733 49.9744 5.98776 48.9803 6.02363L48.878 6.23888C49.3 6.21605 49.7187 6.19648 50.1374 6.18017C51.1827 6.14104 52.228 6.12473 53.2732 6.10516C53.8262 6.09538 54.3824 6.08234 54.9354 6.06277L54.8076 5.79534H54.8108ZM57.0164 12.5984C56.9173 12.6995 56.8182 12.8038 56.7191 12.9082C56.4059 13.2441 56.0862 13.5768 55.7506 13.8898C55.4245 14.1964 55.0825 14.4834 54.7245 14.7541C54.0276 15.2791 53.3851 15.8662 52.7394 16.4565L52.7234 16.4695L52.9056 16.5706C53.1198 16.3847 53.334 16.1956 53.5513 16.0129C53.9733 15.6542 54.3984 15.302 54.8395 14.9693C55.1976 14.6986 55.5396 14.4116 55.8688 14.1051C56.2077 13.7887 56.5273 13.4561 56.8438 13.1169C56.9173 13.0386 56.9908 12.9604 57.0643 12.8821L57.0132 12.5984H57.0164ZM57.3233 14.3366C56.5081 14.9302 55.7122 15.5466 54.9131 16.1564C54.5295 16.4499 54.1427 16.7435 53.7559 17.0337L53.9157 17.1218C54.2993 16.8543 54.6797 16.5804 55.0601 16.3097C55.8337 15.7553 56.604 15.1911 57.3744 14.6301L57.3233 14.3366ZM57.5278 15.5009C57.205 15.7129 56.8725 15.9184 56.5337 16.0945C55.7985 16.4826 55.1049 16.9261 54.4272 17.4022L54.5678 17.4805C55.2327 17.0337 55.9168 16.6261 56.6136 16.238C56.9333 16.0618 57.2465 15.8694 57.5566 15.6705L57.5278 15.5009ZM57.6429 16.1564C57.1123 16.4467 56.5944 16.7598 56.0862 17.0924C55.7506 17.3109 55.4181 17.5359 55.0889 17.7642L55.2008 17.8262C55.5044 17.6305 55.8145 17.4381 56.1246 17.2522C56.636 16.9457 57.157 16.6554 57.6813 16.3815L57.6429 16.1564ZM57.8027 17.0631C57.6205 17.1707 57.4383 17.2816 57.2561 17.3957C56.8182 17.6697 56.3899 17.9534 55.9647 18.2469L56.0574 18.2991C56.636 17.9208 57.2274 17.5653 57.8315 17.2261L57.8027 17.0663V17.0631ZM57.9594 17.9534C57.8443 18.0186 57.7292 18.0871 57.6141 18.1523C57.3233 18.3219 57.0356 18.4948 56.7511 18.6741L56.9525 18.785C57.2977 18.573 57.6461 18.3708 57.9977 18.1686L57.9594 17.9534ZM46.4582 14.9889C46.5349 14.9302 46.6085 14.8715 46.682 14.8063C47.0688 14.4671 47.3852 13.9844 47.6282 13.5278C47.8168 13.1691 48.0181 12.6636 47.9926 12.2494C47.9926 12.2135 47.983 12.1744 47.9766 12.1385C47.9382 11.9787 47.8359 11.8418 47.7209 11.7309C47.5674 11.5874 47.3788 11.4798 47.187 11.3982C46.7363 11.2058 46.2089 11.1341 45.7198 11.1406L45.8061 11.2254C46.2441 11.2417 46.698 11.3297 47.0911 11.5124C47.4076 11.6591 47.7177 11.8809 47.8072 12.2462C47.9095 12.6571 47.6953 13.1365 47.5227 13.4952C47.3117 13.929 47.0112 14.441 46.6564 14.7671C46.5957 14.8226 46.535 14.8747 46.471 14.9237L46.4614 14.9856L46.4582 14.9889Z" fill="white"/>
<path fill-rule="evenodd" clip-rule="evenodd" d="M52.3848 0.675059C52.0651 0.763113 51.7487 0.85769 51.4354 0.965312C51.413 0.971835 51.3875 0.981619 51.3651 0.991403L50.7194 2.35462C51.1285 2.23069 51.5345 2.09698 51.9405 1.95674C52.2409 1.85238 52.5414 1.7415 52.8387 1.62735L52.388 0.675059H52.3848Z" fill="white"/>
<path fill-rule="evenodd" clip-rule="evenodd" d="M52.5891 5.18226C52.0265 5.28662 51.4576 5.3649 50.8886 5.4236C50.326 5.4823 49.7634 5.5247 49.2008 5.56383L48.9834 6.02041C49.9744 5.9878 50.9685 6.00411 51.9626 5.95845C52.9152 5.91605 53.8645 5.85409 54.8139 5.79212L54.376 4.86918C53.7814 4.97028 53.1837 5.07138 52.5891 5.18226Z" fill="white"/>
<path fill-rule="evenodd" clip-rule="evenodd" d="M53.8647 7.91197C53.1871 7.94784 52.5094 8.00654 51.8317 8.00654C51.3842 8.00654 50.9367 7.96415 50.4924 7.90218C50.0321 7.84022 49.575 7.75869 49.1147 7.68042C48.4402 7.56953 47.7593 7.46517 47.0753 7.44886C46.1515 7.4293 45.2533 7.52061 44.3614 7.76195C43.8404 7.90544 43.3353 8.0946 42.8431 8.31637L43.6774 9.13168C44.1441 8.94253 44.6267 8.78925 45.1222 8.69467C45.6464 8.59683 46.1611 8.56748 46.6917 8.6001C47.1776 8.62945 47.6634 8.70446 48.1429 8.78925C48.6895 8.88709 49.2329 8.99471 49.7795 9.08276C50.0736 9.13168 50.3677 9.17734 50.6618 9.22952C51.0102 9.28823 51.3554 9.35019 51.7007 9.4252C51.8413 9.45455 51.9852 9.48716 52.1258 9.52304C52.2281 9.54913 52.3368 9.57848 52.4359 9.61762C52.5446 9.66001 52.6468 9.72198 52.7331 9.80351C52.8163 9.88178 52.8866 9.97635 52.9313 10.0807C52.9761 10.1818 52.9953 10.2894 52.9953 10.4003C52.9953 10.521 52.9761 10.6449 52.9377 10.7623C52.8386 11.0721 52.65 11.3917 52.4742 11.6657C52.2345 12.0375 51.966 12.393 51.6911 12.7387C51.5249 12.9441 51.3554 13.1496 51.1828 13.3485C50.828 13.7627 50.4604 14.1671 50.0832 14.5617C49.7859 14.8715 49.4855 15.1781 49.1722 15.4716C48.6831 15.9347 48.1813 16.3391 47.5931 16.662C47.3278 16.8055 47.0561 16.9294 46.778 17.0468C46.5351 17.1479 46.2888 17.2424 46.0427 17.337L45.8031 18.7035C46.0012 18.6416 46.2026 18.5763 46.4008 18.5079C47.1424 18.2535 47.9319 17.9437 48.5649 17.4675C48.8014 17.2881 49.0284 17.0925 49.2457 16.8903C49.4919 16.662 49.7284 16.4206 49.9586 16.176C50.4636 15.6379 50.9463 15.0737 51.4226 14.5063C51.8157 14.0366 52.2057 13.5605 52.5957 13.0876C52.9473 12.6636 53.2989 12.2429 53.6665 11.8353C53.8583 11.6233 54.0533 11.4113 54.2451 11.1961C54.4976 10.9091 54.747 10.6188 54.9835 10.3188C55.1082 10.159 55.2296 9.99918 55.3447 9.83286C55.4662 9.66001 55.5813 9.4839 55.6835 9.30127C55.7603 9.1643 55.8338 9.01754 55.8849 8.87078C55.9553 8.67184 55.9968 8.43377 55.8817 8.24462C55.7411 8.0098 55.415 7.94132 55.1657 7.91197C54.9739 7.88914 54.7757 7.88261 54.5839 7.88588C54.3442 7.88588 54.1045 7.89892 53.8679 7.91197H53.8647Z" fill="white"/>
<path fill-rule="evenodd" clip-rule="evenodd" d="M47.5227 13.4952C47.6985 13.1332 47.9095 12.6571 47.8072 12.2462C47.7177 11.8809 47.4108 11.6591 47.0911 11.5124C46.698 11.3297 46.2409 11.2417 45.8061 11.2254L46.9282 12.3245L46.471 14.9237C46.535 14.8747 46.5957 14.8226 46.6564 14.7671C47.0112 14.441 47.3117 13.9322 47.5227 13.4952Z" fill="white"/>
<path fill-rule="evenodd" clip-rule="evenodd" d="M57.4546 10.2567C55.8596 11.7732 54.3188 13.3484 52.8133 14.953C52.4041 15.3867 51.995 15.8237 51.5762 16.2477L51.9534 16.0422L52.7302 16.4662L52.7461 16.4532C53.3886 15.8629 54.0343 15.2758 54.7312 14.7508C55.0892 14.4801 55.428 14.1931 55.7573 13.8865C56.0929 13.5735 56.4126 13.2408 56.7258 12.9049C56.8249 12.8005 56.924 12.6962 57.0231 12.5951L56.9752 12.3244L61.8723 7.53356C61.9458 7.46182 61.8786 7.25636 61.7796 7.24331L60.8174 7.1096C60.5872 7.42268 60.3187 7.71293 60.0406 7.98362C59.721 8.2967 59.3853 8.59022 59.0465 8.88047C58.7716 9.11529 58.4967 9.34684 58.2218 9.58165C57.9629 9.80341 57.7072 10.0284 57.4578 10.26L57.4546 10.2567Z" fill="white"/>
<path fill-rule="evenodd" clip-rule="evenodd" d="M57.6845 16.3782C57.1571 16.6521 56.6392 16.9424 56.1278 17.2489C55.8177 17.4348 55.5109 17.6273 55.204 17.8229L55.968 18.2404C56.3931 17.9501 56.8214 17.6631 57.2594 17.3892C57.4416 17.275 57.6238 17.1674 57.806 17.0565L57.6845 16.3749V16.3782Z" fill="white"/>
<path fill-rule="evenodd" clip-rule="evenodd" d="M44.0064 7.74227C45.0069 7.42919 46.0074 7.30526 47.0591 7.32809C47.708 7.34114 48.3505 7.41288 48.9962 7.48463C49.8624 7.58247 51.1922 7.77162 52.0169 7.76836C52.2918 7.76836 52.5571 7.75858 52.8224 7.74553C50.6072 7.71944 49.3126 7.28243 47.3819 7.20416C46.0234 7.14872 45.1028 7.3444 44.0032 7.73901L44.0064 7.74227Z" fill="white"/>
<path fill-rule="evenodd" clip-rule="evenodd" d="M44.9912 9.72511C46.3434 9.55879 47.7562 9.99906 49.2202 10.622C49.5111 10.7459 49.8212 10.9155 50.0194 11.1764C49.818 10.8568 49.4344 10.6252 48.9421 10.4328C48.2581 10.1654 47.5421 9.87839 46.8164 9.7512C46.0237 9.61097 45.6465 9.61097 44.9912 9.72511Z" fill="white"/>
<path fill-rule="evenodd" clip-rule="evenodd" d="M57.2819 10.1816C57.5152 9.95985 57.7582 9.74787 58.0011 9.53915C58.2632 9.31412 58.5286 9.09562 58.7875 8.87059C59.1135 8.59338 59.4364 8.30965 59.7432 8.00961C59.8168 7.93786 59.8871 7.86611 59.9574 7.79437C59.4332 8.19876 58.8226 8.58033 58.6788 8.73035C58.4998 8.91625 57.3778 10.0088 56.7896 10.5567C54.9133 12.3047 53.7082 13.3777 52.0492 15.5269C52.3017 15.2496 52.5542 14.9757 52.8099 14.7018C54.2612 13.1559 55.7412 11.6427 57.2755 10.1849L57.2819 10.1816Z" fill="white"/>
<path fill-rule="evenodd" clip-rule="evenodd" d="M46.9313 12.3211L45.8093 11.222L45.723 11.1372L44.6426 10.0806L43.7348 9.19025L43.6804 9.13481L42.8461 8.31949L42.7534 8.22818L42.0406 7.53026C42.0406 7.53026 42.0214 7.50417 42.0182 7.49113C42.0949 7.90857 42.6927 9.0011 42.7566 9.06306L46.813 13.032L46.9377 12.3211H46.9313Z" fill="white"/>
<path fill-rule="evenodd" clip-rule="evenodd" d="M46.4009 19.9981L51.95 16.9618V16.0421L51.5727 16.2477L51.1827 16.463L45.9725 19.3132C45.899 19.3523 45.7647 19.2708 45.736 19.1827C45.8031 19.3882 46.3306 20.0373 46.4041 19.9981L46.4009 19.9981Z" fill="white"/>
<path fill-rule="evenodd" clip-rule="evenodd" d="M51.95 16.9618L57.4992 19.9981C57.5728 20.0372 58.1002 19.3915 58.1673 19.186C58.1353 19.274 58.0043 19.3556 57.9308 19.3164L56.9558 18.7816L56.7544 18.6707L56.0608 18.2924L55.968 18.2404L55.204 17.8229L55.0922 17.7608L54.5712 17.4771L54.4306 17.3988L53.9191 17.1183L53.7593 17.0303L52.9122 16.5672L52.7302 16.4662L51.9534 16.0422L51.9533 16.9619L51.95 16.9618Z" fill="white"/>
<path fill-rule="evenodd" clip-rule="evenodd" d="M57.0967 13.032L61.1531 9.06304C61.217 9.00108 61.8148 7.90855 61.8915 7.4911C61.8851 7.50741 61.8787 7.52046 61.8691 7.53024L56.972 12.3211L57.02 12.5917L57.0711 12.8755L57.0999 13.032H57.0967Z" fill="white"/>
<path fill-rule="evenodd" clip-rule="evenodd" d="M42.2579 7.22373L48.9578 6.49647L49.1784 6.0138C50.0351 5.99097 50.8949 5.99749 51.7516 5.96814C51.384 5.95836 51.0164 5.94857 50.6456 5.92248C50.262 5.89639 49.8784 5.8703 49.4981 5.84747C49.4437 5.84421 49.3286 5.81486 49.3158 5.78551C49.3031 5.75616 49.3414 5.66484 49.3638 5.61266L50.4922 3.14387C50.6584 3.09495 50.8278 3.04277 50.994 2.99059C51.3329 2.88623 51.6717 2.77535 52.0073 2.6612C51.8667 2.70034 50.6968 3.04603 50.6296 2.9482C50.6104 2.92211 50.6584 2.77535 50.684 2.71991L51.8411 0.192415C51.9018 0.0619643 52.0201 0.0554419 52.116 0.1011L52.1 0.0684869C52.0553 -0.022829 51.8443 -0.022829 51.7996 0.0684869L48.846 6.30079L42.2547 7.22047L42.2579 7.22373Z" fill="white"/>
<g filter="url(#filter0_dd_2005_159)">
<path fill-rule="evenodd" clip-rule="evenodd" d="M51.961 3.50652L49.6633 8.28315L43.7355 7.88712C43.7623 8.19694 44.3039 9.1722 44.3602 9.22608L48.1727 12.8981L47.2665 15.2932L47.4917 15.3147L46.8616 17.5454C46.8241 17.637 47.3576 18.2944 47.4246 18.2594L52.079 15.7512L56.7333 18.2594C56.8031 18.2971 57.3339 17.637 57.2964 17.5454L55.9853 12.8981L59.7978 9.22608C59.8541 9.1722 60.3957 8.19694 60.4225 7.88712L54.4946 8.28315L53.8244 6.8903L54.5858 6.74482L52.197 3.50652C52.1728 3.47419 52.1299 3.45264 52.0817 3.45264C52.0334 3.45264 51.9825 3.4715 51.9664 3.50652H51.961Z" fill="url(#paint0_linear_2005_159)"/>
<path fill-rule="evenodd" clip-rule="evenodd" d="M51.9502 1.79863L49.4729 6.94705L43.8346 7.72295C43.7515 7.73372 43.6952 7.90615 43.7568 7.96272L47.8642 11.9203L47.261 15.296C47.5827 15.129 47.8857 14.9323 48.1726 14.7087C47.8642 14.997 47.6042 15.2179 47.2342 15.4442L46.8562 17.5483C46.8401 17.6318 46.9848 17.7369 47.0599 17.6965L52.0735 14.9943L57.0872 17.6965C57.1622 17.7369 57.3043 17.6318 57.2909 17.5483L56.2828 11.9203L60.3902 7.96272C60.4519 7.90345 60.3956 7.73372 60.3125 7.72295L54.6742 6.94705L53.4382 6.77732C53.8189 6.76924 54.197 6.76116 54.5777 6.74768L52.1969 1.80133C52.1593 1.72589 51.9824 1.72589 51.9448 1.80133L51.9502 1.79863Z" fill="url(#paint1_radial_2005_159)"/>
<g style="mix-blend-mode:multiply" opacity="0.5">
<path fill-rule="evenodd" clip-rule="evenodd" d="M52.398 2.20265C52.146 2.27808 51.8939 2.35351 51.6419 2.43703L51.5856 2.55288C51.6044 2.5448 51.6258 2.53941 51.6446 2.53132C51.9073 2.44242 52.1728 2.36429 52.4409 2.29155L52.3953 2.19995L52.398 2.20265ZM51.0038 3.76522C51.0601 3.74906 51.1137 3.7302 51.17 3.71403C51.7358 3.53892 52.2988 3.35572 52.8591 3.16444L52.8189 3.08361C52.5696 3.17791 52.3175 3.26681 52.0655 3.35572C51.7277 3.47156 51.3845 3.58202 51.0414 3.6844L51.0011 3.76522H51.0038ZM53.0736 3.61166C52.4784 3.82449 51.8778 4.02655 51.2719 4.20975C51.0842 4.26632 50.8966 4.3229 50.7089 4.37947L50.658 4.48185C51.1861 4.33637 51.7089 4.17742 52.2291 4.01308C52.5293 3.91878 52.8296 3.8218 53.1272 3.72211L53.0736 3.61166ZM53.4034 4.29865C53.1594 4.38756 52.9181 4.47377 52.6741 4.55728C52.3202 4.67852 51.9663 4.79436 51.6071 4.90213C51.3202 4.98834 51.0279 5.06916 50.733 5.13382C50.5909 5.16346 50.4488 5.19309 50.3067 5.21734L50.2987 5.2335C50.4569 5.20656 50.6151 5.17693 50.7706 5.1419C51.3818 5.00989 51.977 4.80514 52.5696 4.60308C52.8511 4.5061 53.1326 4.4118 53.4141 4.31751L53.4061 4.29865H53.4034ZM50.0145 5.82081C50.347 5.76963 50.6767 5.71036 51.0065 5.643C51.4247 5.55949 51.8403 5.4625 52.2559 5.36282C52.4757 5.30894 52.6983 5.25505 52.9181 5.20117C53.1916 5.13382 53.4677 5.06916 53.7439 5.0045L53.7117 4.93985C53.4409 5.0045 53.1674 5.06916 52.8967 5.13382C52.146 5.31702 51.3899 5.46789 50.6258 5.58643C50.4462 5.61337 50.2665 5.64031 50.0869 5.66456L50.0118 5.81812L50.0145 5.82081ZM54.0388 5.62145C53.5535 5.70497 53.0682 5.78579 52.5857 5.87739C51.658 6.04981 50.7223 6.18182 49.7866 6.29498L49.7652 6.33808C50.237 6.30575 50.7089 6.27073 51.1808 6.22223C51.658 6.17374 52.1352 6.10908 52.6071 6.02287C53.1058 5.93127 53.6045 5.84776 54.1058 5.76424L54.0388 5.62145ZM47.261 15.2959C47.6149 15.1127 47.9447 14.8918 48.2584 14.6413C48.6847 14.2964 49.0734 13.9031 49.4381 13.4936C49.682 13.2188 49.9153 12.9144 50.1137 12.6072C50.3201 12.2893 50.7143 11.6158 50.5856 11.2225C50.4676 10.8615 50.111 10.6567 49.7839 10.5193C48.3737 9.92931 47.0197 9.53597 45.7355 9.87273L45.9419 10.0721C46.1028 10.0398 46.2663 10.0209 46.4353 10.0101C47.4996 9.94547 48.5721 10.3119 49.5399 10.7187C49.8483 10.848 50.0601 11.0393 50.1673 11.3626C50.2853 11.7182 50.0896 12.1492 49.9207 12.4537C49.296 13.5744 48.4058 14.4635 47.2986 15.0831L47.2583 15.3013L47.261 15.2959ZM47.1216 16.0665C47.3281 15.9883 47.5345 15.9102 47.7383 15.8267C47.9715 15.7297 48.2021 15.6273 48.4219 15.5088C48.9153 15.2421 49.3362 14.908 49.7464 14.5254C50.0091 14.283 50.2612 14.0297 50.5105 13.7738C50.8269 13.4478 51.1352 13.1137 51.4328 12.7716C51.5776 12.6045 51.7197 12.4375 51.8591 12.2678C52.0897 11.9822 52.3149 11.6886 52.5159 11.3814C52.6634 11.1578 52.8189 10.8911 52.9047 10.6352C52.9369 10.5409 52.953 10.4385 52.953 10.3361C52.953 10.2472 52.9369 10.1556 52.8993 10.0721C52.8618 9.98588 52.8028 9.90776 52.7331 9.8431C52.6607 9.77575 52.5749 9.72456 52.4838 9.68953C52.4007 9.65721 52.3095 9.63296 52.2237 9.61141C52.1057 9.58177 51.9851 9.55483 51.8671 9.53058C51.5776 9.47131 51.2853 9.42012 50.9958 9.36894C50.7491 9.32853 50.5025 9.28811 50.2558 9.2477C49.7973 9.17496 49.3415 9.08606 48.8831 9.00523C48.4809 8.93519 48.0734 8.87322 47.6659 8.84898C47.2208 8.82204 46.7865 8.84628 46.3495 8.92711C45.9339 9.00523 45.529 9.13186 45.1376 9.28811L45.1832 9.33391C45.7194 9.1588 46.2744 9.01601 46.8321 8.95944C47.3173 8.90825 47.7731 8.9298 48.253 9.00793C48.556 9.05642 48.8563 9.12647 49.1566 9.19113C49.4997 9.26656 49.8402 9.3393 50.1861 9.39318C50.3898 9.42551 50.5936 9.46323 50.7947 9.50095C51.0708 9.55483 51.3497 9.61141 51.6231 9.67876C51.7384 9.7057 51.851 9.73533 51.9636 9.76766C52.0494 9.79191 52.1352 9.81885 52.2183 9.84849C52.5857 9.98589 52.7224 10.3496 52.6017 10.7106C52.5213 10.9558 52.4033 11.1982 52.2773 11.4218C52.1111 11.7155 51.9181 11.9984 51.7063 12.2597C51.414 12.618 51.1191 12.9709 50.8108 13.3131C50.5507 13.6014 50.2853 13.8842 50.0065 14.1537C49.5319 14.609 49.0305 15.0131 48.4675 15.3498C48.0412 15.6085 47.5935 15.8186 47.1323 16.0072L47.1216 16.0611V16.0665ZM46.9125 17.233C47.1136 17.1656 47.3173 17.0956 47.5157 17.0202C48.1109 16.8019 48.7195 16.5514 49.2584 16.2146C49.556 16.0287 49.8322 15.8078 50.0922 15.5734C50.3711 15.3229 50.6338 15.0535 50.8912 14.7787C51.3202 14.3153 51.725 13.8304 52.1433 13.3589C52.6714 12.7635 53.1969 12.1627 53.7332 11.5754C54.2855 10.9719 55.6448 9.46862 55.7172 8.67925C55.7252 8.58226 55.7172 8.48258 55.6769 8.39368C55.5509 8.11618 55.1488 8.07038 54.886 8.065C53.9289 8.04344 53.0736 8.15659 52.1299 8.15929C51.4382 8.15929 50.3228 8.00573 49.5962 7.9249C49.0547 7.86563 48.5158 7.80636 47.9715 7.79559C47.0278 7.77403 46.135 7.89527 45.2368 8.19431C44.9365 8.29399 44.6443 8.40984 44.3547 8.53916L44.4325 8.61459C44.8454 8.4287 45.2663 8.27244 45.706 8.15659C46.4567 7.95454 47.2074 7.8791 47.9822 7.89796C48.556 7.91143 49.1271 7.99495 49.6928 8.08924C50.0762 8.15121 50.4622 8.21856 50.8483 8.27244C51.221 8.32363 51.5963 8.35865 51.9717 8.35865C52.5401 8.35865 53.1085 8.31016 53.6769 8.28052C53.8779 8.26975 54.079 8.26166 54.2774 8.25897C54.4383 8.25897 54.6045 8.26166 54.7654 8.28052C54.9718 8.30477 55.2453 8.36404 55.3659 8.55532C55.4625 8.71158 55.4276 8.90825 55.3686 9.07259C55.3257 9.19652 55.2641 9.31506 55.1997 9.42821C55.1139 9.57908 55.0147 9.72725 54.9155 9.86735C54.819 10.0047 54.7171 10.1368 54.6125 10.2688C54.4141 10.5166 54.205 10.7564 53.9932 10.9935C53.8324 11.1713 53.6688 11.3437 53.5079 11.5215C53.1996 11.8583 52.9047 12.2058 52.6098 12.5561C52.28 12.9467 51.9556 13.34 51.6258 13.728C51.229 14.1968 50.8242 14.6628 50.3979 15.1074C50.2049 15.3094 50.0065 15.5088 49.8 15.6974C49.6177 15.8644 49.43 16.026 49.2289 16.1742C48.6981 16.5676 48.0359 16.8262 47.4139 17.0336C47.2476 17.0902 47.0814 17.1441 46.9125 17.1953L46.9071 17.233H46.9125ZM51.7599 15.1639C52.1138 14.8137 52.457 14.4527 52.7975 14.0944C54.0629 12.7662 55.3525 11.4649 56.6904 10.2149C56.8968 10.0209 57.114 9.83502 57.3312 9.65451C57.5617 9.46054 57.7923 9.26926 58.0229 9.07528C58.3071 8.83551 58.5886 8.59304 58.8567 8.33441C59.0873 8.1108 59.3152 7.87102 59.5082 7.61239L59.3018 7.58275C59.291 7.59892 59.2803 7.61239 59.2696 7.62586C59.0766 7.88988 58.8487 8.13235 58.6127 8.35865C58.3553 8.60651 58.0845 8.84089 57.8111 9.06989C57.5912 9.25579 57.3687 9.43629 57.1515 9.62218C56.9478 9.7946 56.744 9.96972 56.5483 10.1529C55.2614 11.3572 54.0173 12.6099 52.8028 13.8842C52.5079 14.1941 52.2183 14.5093 51.9261 14.8218C51.7626 14.9969 51.599 15.1693 51.4328 15.3391L51.7599 15.1612V15.1639ZM54.4758 6.52667C53.6795 6.57786 52.8833 6.62904 52.0843 6.66407C51.2532 6.70178 50.4193 6.68562 49.5855 6.71525L49.4997 6.89306C49.8536 6.87421 50.2049 6.85804 50.5561 6.84457C51.4328 6.81224 52.3095 6.79877 53.1862 6.78261C53.65 6.77452 54.1165 6.76375 54.5804 6.74758L54.4731 6.52667H54.4758ZM56.3258 12.1465C56.2426 12.2301 56.1595 12.3163 56.0764 12.4025C55.8137 12.68 55.5456 12.9548 55.2641 13.2134C54.9906 13.4667 54.7037 13.7037 54.4034 13.9273C53.8189 14.3611 53.2801 14.846 52.7385 15.3337L52.7251 15.3444L52.8779 15.428C53.0575 15.2744 53.2372 15.1181 53.4195 14.9673C53.7734 14.6709 54.13 14.38 54.4999 14.1052C54.8002 13.8815 55.0871 13.6445 55.3633 13.3912C55.6474 13.1299 55.9156 12.8551 56.181 12.5749C56.2426 12.5103 56.3043 12.4456 56.366 12.3809L56.3231 12.1465H56.3258ZM56.5831 13.5825C55.8995 14.0728 55.2319 14.582 54.5616 15.0858C54.2399 15.3283 53.9155 15.5707 53.5911 15.8105L53.7251 15.8833C54.0468 15.6623 54.3659 15.436 54.6849 15.2124C55.3338 14.7544 55.9799 14.2884 56.626 13.825L56.5831 13.5825ZM56.7547 14.5443C56.4839 14.7194 56.2051 14.8891 55.9209 15.0346C55.3043 15.3552 54.7225 15.7216 54.1541 16.115L54.2721 16.1796C54.8297 15.8105 55.4035 15.4738 55.9879 15.1532C56.2561 15.0077 56.5188 14.8487 56.7789 14.6844L56.7547 14.5443ZM56.8513 15.0858C56.4062 15.3256 55.9719 15.5842 55.5456 15.859C55.264 16.0395 54.9852 16.2254 54.7091 16.414L54.8029 16.4652C55.0576 16.3035 55.3177 16.1446 55.5777 15.991C56.0067 15.7378 56.4437 15.498 56.8834 15.2717L56.8513 15.0858ZM56.9853 15.8348C56.8325 15.9237 56.6797 16.0153 56.5268 16.1096C56.1595 16.3359 55.8003 16.5703 55.4437 16.8127L55.5214 16.8558C56.0067 16.5433 56.5027 16.2497 57.0094 15.9695L56.9853 15.8375V15.8348ZM57.1167 16.5703C57.0202 16.6241 56.9236 16.6807 56.8271 16.7346C56.5831 16.8747 56.3418 17.0175 56.1032 17.1656L56.2721 17.2572C56.5617 17.0821 56.8539 16.9151 57.1489 16.7481L57.1167 16.5703ZM47.4702 14.1213C47.5345 14.0728 47.5962 14.0243 47.6578 13.9705C47.9822 13.6903 48.2477 13.2915 48.4514 12.9144C48.6096 12.618 48.7785 12.2004 48.7571 11.8583C48.7571 11.8286 48.749 11.7963 48.7437 11.7667C48.7115 11.6347 48.6257 11.5215 48.5292 11.4299C48.4005 11.3114 48.2423 11.2225 48.0814 11.1551C47.7034 10.9962 47.261 10.9369 46.8508 10.9423L46.9232 11.0123C47.2905 11.0258 47.6712 11.0985 48.001 11.2494C48.2664 11.3707 48.5265 11.5538 48.6016 11.8556C48.6874 12.195 48.5077 12.5911 48.363 12.8874C48.186 13.2457 47.934 13.6687 47.6364 13.9381C47.5854 13.9839 47.5345 14.027 47.4809 14.0674L47.4728 14.1186L47.4702 14.1213Z" fill="#B7805C"/>
</g>
<path style="mix-blend-mode:multiply" fill-rule="evenodd" clip-rule="evenodd" d="M52.4409 2.29688C52.1728 2.36962 51.9074 2.44774 51.6446 2.53665C51.6259 2.54204 51.6044 2.55012 51.5856 2.5582L51.0441 3.68433C51.3872 3.58196 51.7277 3.4715 52.0682 3.35565C52.3203 3.26944 52.5723 3.17784 52.8216 3.08355L52.4436 2.29688H52.4409Z" fill="url(#paint2_radial_2005_159)"/>
<path style="mix-blend-mode:multiply" fill-rule="evenodd" clip-rule="evenodd" d="M52.6124 6.02011C52.1405 6.10632 51.6633 6.17098 51.1861 6.21947C50.7142 6.26796 50.2423 6.30299 49.7704 6.33532L49.5881 6.71249C50.4193 6.68555 51.2531 6.69902 52.0869 6.6613C52.8859 6.62628 53.6821 6.57509 54.4784 6.5239L54.1111 5.76147C53.6124 5.84499 53.1111 5.92851 52.6124 6.02011Z" fill="url(#paint3_radial_2005_159)"/>
<path style="mix-blend-mode:multiply" fill-rule="evenodd" clip-rule="evenodd" d="M53.6824 8.27518C53.114 8.30482 52.5456 8.35331 51.9772 8.35331C51.6018 8.35331 51.2265 8.31829 50.8538 8.2671C50.4677 8.21591 50.0843 8.14856 49.6983 8.0839C49.1326 7.9923 48.5615 7.90609 47.9877 7.89262C47.2129 7.87646 46.4595 7.95189 45.7115 8.15125C45.2745 8.26979 44.8509 8.42605 44.438 8.60925L45.1378 9.28277C45.5292 9.12652 45.934 8.99989 46.3496 8.92176C46.7893 8.84094 47.2209 8.81669 47.666 8.84364C48.0735 8.86788 48.4811 8.92985 48.8832 8.99989C49.3417 9.08072 49.7975 9.16962 50.2559 9.24236C50.5026 9.28277 50.7493 9.32049 50.9959 9.3636C51.2881 9.41209 51.5777 9.46328 51.8673 9.52524C51.9852 9.54949 52.1059 9.57643 52.2238 9.60606C52.3096 9.62762 52.4008 9.65186 52.4839 9.68419C52.5751 9.71922 52.6609 9.7704 52.7333 9.83776C52.803 9.90241 52.8619 9.98054 52.8995 10.0668C52.937 10.1503 52.9531 10.2392 52.9531 10.3308C52.9531 10.4305 52.937 10.5328 52.9048 10.6298C52.8217 10.8858 52.6635 11.1498 52.5161 11.3761C52.315 11.6832 52.0898 11.9769 51.8592 12.2624C51.7198 12.4322 51.5777 12.6019 51.4329 12.7662C51.1353 13.1084 50.827 13.4425 50.5106 13.7684C50.2613 14.0244 50.0093 14.2776 49.7465 14.5201C49.3363 14.9027 48.9154 15.2367 48.4221 15.5034C48.1995 15.622 47.9717 15.7244 47.7384 15.8213C47.5346 15.9049 47.3282 15.983 47.1217 16.0611L46.9207 17.1899C47.0869 17.1388 47.2558 17.0849 47.422 17.0283C48.044 16.8182 48.7063 16.5622 49.2371 16.1689C49.4355 16.0207 49.6259 15.8591 49.8082 15.692C50.0146 15.5034 50.213 15.3041 50.4061 15.102C50.8297 14.6575 51.2345 14.1914 51.634 13.7226C51.9638 13.3347 52.2909 12.9414 52.618 12.5507C52.9129 12.2005 53.2078 11.8529 53.5161 11.5162C53.677 11.3411 53.8405 11.1659 54.0014 10.9881C54.2132 10.7511 54.4223 10.5113 54.6207 10.2634C54.7253 10.1314 54.8272 9.9994 54.9237 9.862C55.0256 9.71922 55.1221 9.57374 55.2079 9.42287C55.2722 9.30971 55.3339 9.18848 55.3768 9.06725C55.4358 8.90291 55.4706 8.70624 55.3741 8.54998C55.2561 8.356 54.9827 8.29943 54.7736 8.27518C54.6127 8.25632 54.4465 8.25093 54.2856 8.25363C54.0845 8.25363 53.8834 8.26441 53.685 8.27518H53.6824Z" fill="url(#paint4_radial_2005_159)"/>
<path style="mix-blend-mode:multiply" fill-rule="evenodd" clip-rule="evenodd" d="M48.363 12.8874C48.5104 12.5884 48.6874 12.195 48.6016 11.8556C48.5265 11.5538 48.2691 11.3706 48.001 11.2494C47.6712 11.0985 47.2878 11.0258 46.9232 11.0123L47.8643 11.9202L47.4809 14.0674C47.5345 14.027 47.5854 13.9839 47.6364 13.9381C47.934 13.6687 48.186 13.2484 48.363 12.8874Z" fill="url(#paint5_radial_2005_159)"/>
<path style="mix-blend-mode:multiply" fill-rule="evenodd" clip-rule="evenodd" d="M56.6933 10.212C55.3555 11.4647 54.0632 12.766 52.8004 14.0915C52.4572 14.4498 52.114 14.8108 51.7628 15.161L52.0792 14.9913L52.7307 15.3415L52.7441 15.3308C53.283 14.8431 53.8246 14.3582 54.409 13.9244C54.7093 13.7008 54.9935 13.4638 55.2697 13.2105C55.5512 12.9519 55.8193 12.6771 56.082 12.3996C56.1651 12.3134 56.2483 12.2272 56.3314 12.1437L56.2912 11.92L60.3986 7.96241C60.4602 7.90314 60.4039 7.73342 60.3208 7.72264L59.5138 7.61218C59.3208 7.87082 59.0956 8.11059 58.8623 8.3342C58.5942 8.59283 58.3127 8.8353 58.0285 9.07508C57.7979 9.26905 57.5674 9.46033 57.3368 9.65431C57.1196 9.8375 56.9051 10.0234 56.696 10.2147L56.6933 10.212Z" fill="url(#paint6_radial_2005_159)"/>
<path style="mix-blend-mode:multiply" fill-rule="evenodd" clip-rule="evenodd" d="M56.8861 15.2689C56.4437 15.4952 56.0093 15.735 55.5804 15.9883C55.3203 16.1418 55.0629 16.3008 54.8055 16.4624L55.4463 16.8073C55.8029 16.5675 56.1622 16.3304 56.5295 16.1041C56.6823 16.0098 56.8351 15.9209 56.9879 15.8293L56.8861 15.2662V15.2689Z" fill="url(#paint7_radial_2005_159)"/>
<g style="mix-blend-mode:screen" opacity="0.5">
<path fill-rule="evenodd" clip-rule="evenodd" d="M45.4136 8.13491C46.2527 7.87627 47.0919 7.7739 47.974 7.79276C48.5183 7.80353 49.0572 7.8628 49.5987 7.92207C50.3253 8.0029 51.4406 8.15915 52.1324 8.15646C52.3629 8.15646 52.5855 8.14838 52.808 8.1376C50.95 8.11605 49.8642 7.75504 48.2448 7.69038C47.1053 7.64458 46.3332 7.80623 45.4109 8.13221L45.4136 8.13491Z" fill="#CA9E67"/>
</g>
<g style="mix-blend-mode:screen" opacity="0.5">
<path fill-rule="evenodd" clip-rule="evenodd" d="M46.2395 9.77295C47.3736 9.63555 48.5586 9.99925 49.7866 10.5138C50.0305 10.6162 50.2906 10.7563 50.4568 10.9718C50.2879 10.7078 49.9662 10.5165 49.5533 10.3576C48.9796 10.1366 48.379 9.89957 47.7704 9.7945C47.1055 9.67865 46.7891 9.67865 46.2395 9.77295Z" fill="#CA9E67"/>
</g>
<g style="mix-blend-mode:screen" opacity="0.5">
<path fill-rule="evenodd" clip-rule="evenodd" d="M56.5485 10.1501C56.7442 9.96686 56.948 9.79174 57.1517 9.61932C57.3716 9.43343 57.5941 9.25292 57.8113 9.06703C58.0847 8.83803 58.3555 8.60365 58.6129 8.35579C58.6746 8.29652 58.7336 8.23725 58.7925 8.17798C58.3528 8.51205 57.8408 8.82726 57.7201 8.95118C57.57 9.10475 56.6289 10.0073 56.1356 10.4599C54.5618 11.9039 53.551 12.7903 52.1595 14.5657C52.3714 14.3367 52.5832 14.1104 52.7976 13.8841C54.0149 12.6071 55.2562 11.357 56.5431 10.1527L56.5485 10.1501Z" fill="#CA9E67"/>
</g>
<path style="mix-blend-mode:multiply" fill-rule="evenodd" clip-rule="evenodd" d="M47.8669 11.9176L46.9259 11.0097L46.8535 10.9396L45.9473 10.0667L45.7408 9.86736L45.1858 9.33124L45.1403 9.28544L44.4405 8.61191L44.3627 8.53648L43.7649 7.95994C43.7649 7.95994 43.7488 7.93839 43.7461 7.92761C43.8104 8.27246 44.3118 9.17498 44.3654 9.22617L47.7677 12.5049L47.8723 11.9176H47.8669Z" fill="url(#paint8_radial_2005_159)"/>
<path style="mix-blend-mode:multiply" fill-rule="evenodd" clip-rule="evenodd" d="M47.422 18.2594L52.0764 15.7512V14.9915L51.76 15.1612L51.4329 15.339L47.0628 17.6936C47.0011 17.726 46.8885 17.6586 46.8644 17.5859C46.9207 17.7556 47.3631 18.2917 47.4247 18.2594H47.422Z" fill="url(#paint9_radial_2005_159)"/>
<path style="mix-blend-mode:multiply" fill-rule="evenodd" clip-rule="evenodd" d="M52.0763 15.7512L56.7306 18.2594C56.7923 18.2917 57.2347 17.7583 57.291 17.5886C57.2642 17.6613 57.1543 17.7287 57.0926 17.6963L56.2749 17.2545L56.106 17.1629L55.5242 16.8504L55.4464 16.8073L54.8056 16.4624L54.7118 16.4112L54.2748 16.1769L54.1568 16.1122L53.7278 15.8805L53.5938 15.8078L52.8833 15.4252L52.7305 15.3417L52.079 14.9915V15.7512H52.0763Z" fill="url(#paint10_radial_2005_159)"/>
<path style="mix-blend-mode:multiply" fill-rule="evenodd" clip-rule="evenodd" d="M56.393 12.5049L59.7953 9.22617C59.8489 9.17498 60.3503 8.27246 60.4146 7.92761C60.4093 7.94108 60.4039 7.95186 60.3959 7.95994L56.2885 11.9176L56.3287 12.1412L56.3716 12.3756L56.3957 12.5049H56.393Z" fill="url(#paint11_radial_2005_159)"/>
<g style="mix-blend-mode:screen" opacity="0.5">
<path fill-rule="evenodd" clip-rule="evenodd" d="M43.947 7.70668L49.5666 7.10589L49.7516 6.70717C50.4701 6.68831 51.1913 6.6937 51.9098 6.66945C51.6015 6.66137 51.2932 6.65329 50.9822 6.63173C50.6604 6.61018 50.3387 6.58863 50.0197 6.56977C49.9741 6.56708 49.8776 6.54283 49.8668 6.51858C49.8561 6.49434 49.8883 6.4189 49.9071 6.37579L50.8535 4.33637C50.9929 4.29595 51.135 4.25285 51.2744 4.20974C51.5586 4.12353 51.8428 4.03193 52.1243 3.93764C52.0063 3.96997 51.0251 4.25554 50.9688 4.17472C50.9527 4.15317 50.9929 4.03193 51.0143 3.98613L51.9849 1.89821C52.0358 1.79045 52.135 1.78506 52.2155 1.82277L52.2021 1.79583C52.1645 1.7204 51.9876 1.7204 51.95 1.79583L49.4727 6.94425L43.9443 7.70398L43.947 7.70668Z" fill="#CA9E67"/>
</g>
</g>
<defs>
<filter id="filter0_dd_2005_159" x="39.7307" y="1.73926" width="24.694" height="24.5217" filterUnits="userSpaceOnUse" color-interpolation-filters="sRGB">
<feFlood flood-opacity="0" result="BackgroundImageFix"/>
<feColorMatrix in="SourceAlpha" type="matrix" values="0 0 0 0 0 0 0 0 0 0 0 0 0 0 0 0 0 0 127 0" result="hardAlpha"/>
<feOffset dy="1"/>
<feComposite in2="hardAlpha" operator="out"/>
<feColorMatrix type="matrix" values="0 0 0 0 0 0 0 0 0 0 0 0 0 0 0 0 0 0 1 0"/>
<feBlend mode="normal" in2="BackgroundImageFix" result="effect1_dropShadow_2005_159"/>
<feColorMatrix in="SourceAlpha" type="matrix" values="0 0 0 0 0 0 0 0 0 0 0 0 0 0 0 0 0 0 127 0" result="hardAlpha"/>
<feOffset dy="4"/>
<feGaussianBlur stdDeviation="2"/>
<feComposite in2="hardAlpha" operator="out"/>
<feColorMatrix type="matrix" values="0 0 0 0 0 0 0 0 0 0 0 0 0 0 0 0 0 0 0.25 0"/>
<feBlend mode="normal" in2="effect1_dropShadow_2005_159" result="effect2_dropShadow_2005_159"/>
<feBlend mode="normal" in="SourceGraphic" in2="effect2_dropShadow_2005_159" result="shape"/>
</filter>
<linearGradient id="paint0_linear_2005_159" x1="52.0763" y1="18.2594" x2="52.0763" y2="3.45264" gradientUnits="userSpaceOnUse">
<stop stop-color="#F8D273"/>
<stop offset="1" stop-color="#FBB62B"/>
</linearGradient>
<radialGradient id="paint1_radial_2005_159" cx="0" cy="0" r="1" gradientUnits="userSpaceOnUse" gradientTransform="translate(50.0895 2.1327) scale(16.9954 17.0779)">
<stop stop-color="#F59445"/>
<stop offset="1" stop-color="#944419"/>
</radialGradient>
<radialGradient id="paint2_radial_2005_159" cx="0" cy="0" r="1" gradientUnits="userSpaceOnUse" gradientTransform="translate(55.3124 0.893252) scale(6.70271 6.73524)">
<stop stop-color="#CFA04D"/>
<stop offset="1" stop-color="white"/>
</radialGradient>
<radialGradient id="paint3_radial_2005_159" cx="0" cy="0" r="1" gradientUnits="userSpaceOnUse" gradientTransform="translate(58.1756 5.98778) scale(12.7914 12.8535)">
<stop stop-color="#CFA04D"/>
<stop offset="1" stop-color="white"/>
</radialGradient>
<radialGradient id="paint4_radial_2005_159" cx="0" cy="0" r="1" gradientUnits="userSpaceOnUse" gradientTransform="translate(50.7305 23.4807) scale(23.7034 23.8185)">
<stop stop-color="#CFA04D"/>
<stop offset="1" stop-color="white"/>
</radialGradient>
<radialGradient id="paint5_radial_2005_159" cx="0" cy="0" r="1" gradientUnits="userSpaceOnUse" gradientTransform="translate(43.1536 15.137) scale(9.21486 9.2596)">
<stop stop-color="#CFA04D"/>
<stop offset="1" stop-color="white"/>
</radialGradient>
<radialGradient id="paint6_radial_2005_159" cx="0" cy="0" r="1" gradientUnits="userSpaceOnUse" gradientTransform="translate(58.2269 24.8086) scale(24.6633 24.783)">
<stop stop-color="#CFA04D"/>
<stop offset="1" stop-color="white"/>
</radialGradient>
<radialGradient id="paint7_radial_2005_159" cx="0" cy="0" r="1" gradientUnits="userSpaceOnUse" gradientTransform="translate(55.4999 23.529) scale(14.8103 14.8822)">
<stop stop-color="#CFA04D"/>
<stop offset="1" stop-color="white"/>
</radialGradient>
<radialGradient id="paint8_radial_2005_159" cx="0" cy="0" r="1" gradientUnits="userSpaceOnUse" gradientTransform="translate(50.5748 12.2651) scale(8.83684 8.87974)">
<stop stop-color="#946437"/>
<stop offset="1" stop-color="white"/>
</radialGradient>
<radialGradient id="paint9_radial_2005_159" cx="0" cy="0" r="1" gradientUnits="userSpaceOnUse" gradientTransform="translate(51.7064 14.7301) scale(14.7754 14.8472)">
<stop stop-color="#946437"/>
<stop offset="1" stop-color="white"/>
</radialGradient>
<radialGradient id="paint10_radial_2005_159" cx="0" cy="0" r="1" gradientUnits="userSpaceOnUse" gradientTransform="translate(52.7948 12.4321) scale(13.4966 13.5621)">
<stop stop-color="#946437"/>
<stop offset="1" stop-color="white"/>
</radialGradient>
<radialGradient id="paint11_radial_2005_159" cx="0" cy="0" r="1" gradientUnits="userSpaceOnUse" gradientTransform="translate(56.5619 12.8632) scale(15.199 15.2728)">
<stop stop-color="#946437"/>
<stop offset="1" stop-color="white"/>
</radialGradient>
</defs>
</svg>
